<svg xmlns="http://www.w3.org/2000/svg" viewBox="0 0 322.81 155.93" width="162px" height="78px"><defs><style>.\31 db7ac35-1da6-422a-ab25-70c3b3e95544{fill:#ffb800;}.\34 15d6dfd-b577-46cf-b6eb-ab68e1008543{fill:#ff5714;}.\36 8f2deb4-7adc-4f45-90de-eb938205ea7d{fill:#dc0073;}.\32 c6e5dbf-b424-4817-8eb3-b2618e1f567c{fill:#1be7ff;}.\33 243dd11-3ac7-424b-84c3-40183c0504cd{fill:#04e762;}</style></defs><title>Asset 17</title><g id="bd26d861-1761-471f-ab3b-d4f0b2e8fdc9" data-name="Layer 2"><g id="0b538975-cb6b-4de9-850e-d975bd4f9c5f" data-name="Layer 1"><path class="1db7ac35-1da6-422a-ab25-70c3b3e95544" d="M110.25,1.77V33.06l-9.3,8.3c0-.26,0-.52,0-.78V1.77Z"/><path class="415d6dfd-b577-46cf-b6eb-ab68e1008543" d="M49.1,51.85a16.62,16.62,0,0,1-2,7.89,20.82,20.82,0,0,1-5.34,6.41,26.68,26.68,0,0,1-7.94,4.37,29.16,29.16,0,0,1-9.75,1.61A30,30,0,0,1,15,70.76,25.53,25.53,0,0,1,7.4,66.94,22.43,22.43,0,0,1,2,61.2,17.64,17.64,0,0,1,.64,58.8l6.88-6.14A14.27,14.27,0,0,0,13.28,60a18.53,18.53,0,0,0,10.83,3.09,20.82,20.82,0,0,0,6.12-.89,16.6,16.6,0,0,0,5.05-2.45,12.52,12.52,0,0,0,3.38-3.57,8.21,8.21,0,0,0,1.22-4.36q0-9-16.67-13.18L23,38.62q-4-1-8.14-2.26c-.72-.22-1.42-.46-2.09-.72A28.85,28.85,0,0,1,7.5,33a17.72,17.72,0,0,1-5.39-5.34A14.77,14.77,0,0,1,0,19.41a18.21,18.21,0,0,1,1.66-7.79A17.54,17.54,0,0,1,6.37,5.49a22.57,22.57,0,0,1,7.35-4A29.26,29.26,0,0,1,23.22,0a26.42,26.42,0,0,1,8.63,1.38,23.32,23.32,0,0,1,7,3.77A20.38,20.38,0,0,1,42.65,9L36,15a13.93,13.93,0,0,0-2.76-2.89q-3.82-3-10-3Q16.67,9,13,12a9.14,9.14,0,0,0-3.67,7.45A7.59,7.59,0,0,0,10,22.59a6.33,6.33,0,0,0,2.35,2.6,22,22,0,0,0,4.8,2.3c1,.37,2.2.76,3.53,1.16s2.87.82,4.55,1.24q3.21.81,5.9,1.75a39.44,39.44,0,0,1,6.21,2.76A28.54,28.54,0,0,1,44.59,40a16.7,16.7,0,0,1,3.58,6A19.83,19.83,0,0,1,49.1,51.85Z"/><polygon class="68f2deb4-7adc-4f45-90de-eb938205ea7d" points="96.63 1.77 96.63 10.49 76.24 10.49 76.24 70.37 67.03 70.37 67.03 10.49 54.79 10.49 64.56 1.77 96.63 1.77"/><path class="2c6e5dbf-b424-4817-8eb3-b2618e1f567c" d="M159.05,1.83V40.58A38.94,38.94,0,0,1,157,53.66a28.54,28.54,0,0,1-5.83,10A25.2,25.2,0,0,1,142,69.93a31.3,31.3,0,0,1-12,2.2q-14,0-21.56-8.18a27,27,0,0,1-6.13-11.54l8.13-7.25q1.9,18,19.56,18a21.14,21.14,0,0,0,7.89-1.33,17.55,17.55,0,0,0,5.49-3.38,16.12,16.12,0,0,0,3.48-4.6,25.71,25.71,0,0,0,1.91-5.05,30.45,30.45,0,0,0,.83-4.66c.13-1.43.2-2.61.2-3.52V10.05Z"/><path class="415d6dfd-b577-46cf-b6eb-ab68e1008543" d="M225,36.07a33.53,33.53,0,0,1-2.69,13.33,34.43,34.43,0,0,1-18.23,18.27,33,33,0,0,1-13.28,2.7h-6.7l10.41-9.29a23.38,23.38,0,0,0,6-1.74,25.33,25.33,0,0,0,7.94-5.44,25.63,25.63,0,0,0,5.34-8,21.92,21.92,0,0,0,1-2.95,25.78,25.78,0,0,0,.29-12.57,23.4,23.4,0,0,0-1.32-4.08,25.79,25.79,0,0,0-5.34-8,25.5,25.5,0,0,0-7.94-5.44,23.9,23.9,0,0,0-9.75-2H180.41V61.35l-9.21,8.21V1.77h19.6a33.15,33.15,0,0,1,13.28,2.69,34.4,34.4,0,0,1,18.23,18.28c.13.29.25.59.36.89a33.15,33.15,0,0,1,2.27,10.3C225,34.64,225,35.35,225,36.07Z"/><polygon class="68f2deb4-7adc-4f45-90de-eb938205ea7d" points="242.45 1.77 242.45 5.98 233.23 14.2 233.23 1.77 242.45 1.77"/><polygon class="3243dd11-3ac7-424b-84c3-40183c0504cd" points="242.45 18.3 242.45 58.39 233.23 66.62 233.23 26.52 242.45 18.3"/><path class="1db7ac35-1da6-422a-ab25-70c3b3e95544" d="M322.81,36.07a34.79,34.79,0,0,1-2.85,14,36.32,36.32,0,0,1-19.2,19.21,36.25,36.25,0,0,1-28.13,0,35.58,35.58,0,0,1-15.07-12.07l6.84-6.11a27,27,0,0,0,3.33,4.12,26.62,26.62,0,0,0,19,7.89A26,26,0,0,0,297.18,61a26.77,26.77,0,0,0,8.48-5.78,27.69,27.69,0,0,0,5.73-8.63,26.69,26.69,0,0,0,2.11-10.53,26.35,26.35,0,0,0-2.11-10.49A27.88,27.88,0,0,0,305.66,17c-.48-.48-1-1-1.48-1.38a27.32,27.32,0,0,0-7-4.45l-1.24-.52a26.56,26.56,0,0,0-19.68.52A27.17,27.17,0,0,0,267.73,17,27.53,27.53,0,0,0,262,25.58a26.18,26.18,0,0,0-2.11,10.49,27,27,0,0,0,.69,6.14l-7.53,6.72a34.8,34.8,0,0,1-2.37-12.86,34.83,34.83,0,0,1,2.84-14,37.11,37.11,0,0,1,7.69-11.46,35.93,35.93,0,0,1,11.42-7.74,36.13,36.13,0,0,1,28.13,0c.88.38,1.73.78,2.56,1.23a35.55,35.55,0,0,1,7.74,5.4c.39.36.78.73,1.16,1.11A36.56,36.56,0,0,1,320,22.05,34.84,34.84,0,0,1,322.81,36.07Z"/><polygon class="2c6e5dbf-b424-4817-8eb3-b2618e1f567c" points="83.74 119.87 83.74 128.88 54.34 128.88 54.34 154.17 45.13 154.17 45.13 103.46 54.34 95.25 54.34 119.87 83.74 119.87"/><polygon class="3243dd11-3ac7-424b-84c3-40183c0504cd" points="90.6 85.57 90.6 94.58 55.09 94.58 65.18 85.57 90.6 85.57"/><path class="2c6e5dbf-b424-4817-8eb3-b2618e1f567c" d="M204.38,85.57v38.81a39.19,39.19,0,0,1-2.06,13.08,28.85,28.85,0,0,1-5.83,9.95,25.24,25.24,0,0,1-9.17,6.32,31.28,31.28,0,0,1-11.95,2.2q-13.06,0-20.49-7.1l7-6.22q4.88,4.32,13.52,4.31a21.14,21.14,0,0,0,7.89-1.33,17.62,17.62,0,0,0,5.48-3.38,16.12,16.12,0,0,0,3.48-4.6,25.1,25.1,0,0,0,1.91-5.05,29.36,29.36,0,0,0,.84-4.66c.13-1.43.19-2.61.19-3.52V85.57Z"/><path class="1db7ac35-1da6-422a-ab25-70c3b3e95544" d="M157,134.68l-7.42,6.62q-3.27-7-3.27-16.92V104.12l9.31-8.31v28.57A34.29,34.29,0,0,0,157,134.68Z"/><path class="3243dd11-3ac7-424b-84c3-40183c0504cd" d="M247.69,83.8a34.79,34.79,0,0,1,14,2.85,36.32,36.32,0,0,1,19.21,19.2,36,36,0,0,1,0,28,36.3,36.3,0,0,1-19.21,19.21,36.22,36.22,0,0,1-28.12,0,36,36,0,0,1-11.42-7.74,37,37,0,0,1-7.69-11.47,36,36,0,0,1,0-28,37.11,37.11,0,0,1,7.69-11.46,35.82,35.82,0,0,1,11.42-7.74A35,35,0,0,1,247.69,83.8Zm0,63.12a26,26,0,0,0,10.44-2.11A26.61,26.61,0,0,0,266.6,139a27.54,27.54,0,0,0,5.74-8.63,26.68,26.68,0,0,0,2.1-10.53,26.35,26.35,0,0,0-2.1-10.49,27.73,27.73,0,0,0-5.74-8.57A27.25,27.25,0,0,0,258.13,95a25.41,25.41,0,0,0-10.44-2.16A25.75,25.75,0,0,0,237.2,95a27.12,27.12,0,0,0-8.52,5.83,27.73,27.73,0,0,0-5.74,8.57,26.35,26.35,0,0,0-2.1,10.49,26.68,26.68,0,0,0,2.1,10.53,27.54,27.54,0,0,0,5.74,8.63,26.58,26.58,0,0,0,19,7.89Z"/><polygon class="415d6dfd-b577-46cf-b6eb-ab68e1008543" points="141.95 145.15 141.95 154.17 98.83 154.17 98.83 146.44 108.04 138.22 108.04 145.15 141.95 145.15"/><polygon class="68f2deb4-7adc-4f45-90de-eb938205ea7d" points="108.04 85.57 108.04 125.9 98.83 134.12 98.83 85.57 108.04 85.57"/></g></g></svg>