<svg id="96747660-8f44-4221-8c45-07b57e120de2" data-name="Layer 2" xmlns="http://www.w3.org/2000/svg" viewBox="0 0 512 512"><defs><style>.ab0a48d7-f4e9-43a9-add4-7afc0c7eb43f,.cd43488c-15fc-4ab5-b4dd-8f5f1d89c832,.eaad8c9e-3277-4203-82cc-913b78d1d6e7{fill:none;stroke-width:12px;}.ab0a48d7-f4e9-43a9-add4-7afc0c7eb43f,.cd43488c-15fc-4ab5-b4dd-8f5f1d89c832{stroke:#ff5714;}.ab0a48d7-f4e9-43a9-add4-7afc0c7eb43f,.eaad8c9e-3277-4203-82cc-913b78d1d6e7{stroke-linecap:round;stroke-linejoin:round;}.eaad8c9e-3277-4203-82cc-913b78d1d6e7{stroke:#04e762;}.cd43488c-15fc-4ab5-b4dd-8f5f1d89c832{stroke-miterlimit:10;}</style></defs><title>illustration</title><rect class="ab0a48d7-f4e9-43a9-add4-7afc0c7eb43f" x="63" y="48.5" width="386" height="415" rx="12" ry="12"/><path class="eaad8c9e-3277-4203-82cc-913b78d1d6e7" d="M309,373.5c2.72-1.69,54.83-35.3,54-98a113.91,113.91,0,0,0-61-99"/><path class="eaad8c9e-3277-4203-82cc-913b78d1d6e7" d="M430,267.5c-2-3.67-27.79-.36-43.83,7.06S363.33,291.07,366,296.83s13.79,6,29.83-1.39S432,271.17,430,267.5Z"/><path class="eaad8c9e-3277-4203-82cc-913b78d1d6e7" d="M304.62,250.79c-2.44,3.39,11.77,25.18,25.43,36.38s24.8,13.38,28.83,8.47-.58-15-14.24-26.25S307.05,247.39,304.62,250.79Z"/><path class="eaad8c9e-3277-4203-82cc-913b78d1d6e7" d="M275.71,217.93c.07,4.18,24.45,13.22,42.11,14.09s27.88-4,28.2-10.36S336.6,209.92,319,209.05,275.64,213.76,275.71,217.93Z"/><path class="eaad8c9e-3277-4203-82cc-913b78d1d6e7" d="M229.71,189.3c1.17,4,27.07,6.29,44.33,2.45s25.83-11.25,24.45-17.45-12.19-8.83-29.44-5S228.54,185.29,229.71,189.3Z"/><path class="eaad8c9e-3277-4203-82cc-913b78d1d6e7" d="M305.93,101.91c-4.18-.2-14.72,23.58-16.68,41.14s2.27,28.08,8.58,28.79,12.31-8.67,14.27-26.23S310.1,102.1,305.93,101.91Z"/><path class="eaad8c9e-3277-4203-82cc-913b78d1d6e7" d="M396.66,168.54c-3.11-2.78-26.3,9-38.92,21.36s-16,23.21-11.53,27.75,15,1,27.64-11.33S399.78,171.33,396.66,168.54Z"/><path class="cd43488c-15fc-4ab5-b4dd-8f5f1d89c832" d="M238.33,284.68l4.32,5.49-19.53,17.2c-.84-.74-1.58-1.42-2.18-2C186.54,270.82,82.05,157.67,98.65,151,117.77,143.29,238.33,284.68,238.33,284.68Z"/><path class="cd43488c-15fc-4ab5-b4dd-8f5f1d89c832" d="M254.54,357.22c-19.72-16.64-7.8-31.73-7.8-31.73l-.14-.1,14-12.44.51.65S278.91,304,289,327.9s5.4,32.54,18.71,41.64S274.26,373.86,254.54,357.22Z"/><polygon class="ab0a48d7-f4e9-43a9-add4-7afc0c7eb43f" points="264.05 309.83 260.56 312.95 246.6 325.39 241.35 330.07 218.44 311.49 223.12 307.37 242.65 290.17 249.04 284.54 264.05 309.83"/></svg>