<svg id="609d7265-6faa-4367-8cee-8f8db504e619" data-name="sewing_string" xmlns="http://www.w3.org/2000/svg" viewBox="0 0 512 512"><defs><style>.c8fe3c82-b74a-4c1b-a0fc-b313445590fc{fill:#dc0073;}.\30 2a715a7-b01b-402d-bbeb-0b0613fdb738{fill:#455a64;}.\36 3857376-25ea-4121-b423-4c7498c2f78b{fill:#f44336;}.\33 caab1a3-0794-49fe-b8cf-9f1007852d47{fill:#1be7ff;}</style></defs><title>sewing</title><path class="c8fe3c82-b74a-4c1b-a0fc-b313445590fc" d="M499.25,293.15c-8-22.39-22.53-42-42.83-57.89-.4,1-.81,2.05-1.19,3.17-1,3.06.24,6.21-1,9.29,16.25,13.89,28,30.46,34.63,49.11,11.46,32.21,6.21,65.39-13.71,86.6-19.08,20.33-48.33,26.75-80.26,17.6l-3,10.58a112.08,112.08,0,0,0,30.82,4.52c23.78,0,45-8.62,60.49-25.17C506,366.74,512.1,329.26,499.25,293.15Z"/><path class="c8fe3c82-b74a-4c1b-a0fc-b313445590fc" d="M131.16,234.07c-3.62.4-7.18.74-10.64,1-39.06,2.69-67-4.34-83.18-20.89-15.61-16-26.29-56.18-16.29-93.09,3.3-12.21,10.82-27.78,22.79-39.76-.33-.72-5.21-9.87-5.31-10-16,14.19-24,31.93-28.1,46.92-11.15,41.2.92,85,19,103.65,18.48,19,49.37,27.11,91.8,24.19q7.58-.53,15.58-1.54A46.55,46.55,0,0,1,131.16,234.07Z"/><path class="c8fe3c82-b74a-4c1b-a0fc-b313445590fc" d="M228.83,209.83a452.52,452.52,0,0,1-75.26,20.95,53.92,53.92,0,0,1,3.6,10.31,1.6,1.6,0,0,0,.05.21,466.3,466.3,0,0,0,75.43-21.15,257,257,0,0,1,42.48-11.67,51.59,51.59,0,0,0,1.66-5.34c.5-2.1.87-4.21,1.41-6.28A265.84,265.84,0,0,0,228.83,209.83Z"/><path class="c8fe3c82-b74a-4c1b-a0fc-b313445590fc" d="M470.94,155.53,294.16,117.14a27.89,27.89,0,0,0-28.74,43.3l11,15.67L231,385.2l-16.53,9.69a27.9,27.9,0,0,0,8.19,51.33l176.78,38.4a27.9,27.9,0,0,0,28.74-43.31l-11-15.67L462.6,216.55l16.53-9.69c.33-.19.65-.39,1-.6a27.9,27.9,0,0,0-9.16-50.73Zm-56,217.16c-22.2-7.34-47.23-17.84-70.66-28.53,6.64-.12,13.21-.31,19.57-.53a309.21,309.21,0,0,0,54,15.74Zm-75.16,9.89c32.22,3.22,59.69,4.48,71.94,4.92l-3.42,15.75a442.73,442.73,0,0,1-68.52-20.67Zm-87.81-30.21c1.86,1.27,4,2.7,6.44,4.27q-3.54-.78-7-1.61Zm13.45-61.9a496.51,496.51,0,0,0,68.89,40.35c-6.16.06-12.32.06-18.38,0-25-12.13-45.22-22.78-53.38-27.14Zm46.18-17.84c8.52,4.32,17.94,8.93,28,13.61-32.36-4.1-59.24-9.63-70.64-12.14l.35-1.64C277,272.62,292.06,272.84,311.56,272.63Zm-39.35-13.58,1.47-6.78c3.23,1.85,7.42,4.21,12.43,7-5.62,0-10.32-.11-13.9-.17Zm10.61,70.42a189.8,189.8,0,0,1-25.17-3.4l1.89-8.71c5.38,2.86,13.43,7.09,23.28,12.11Zm-25.35,10.3c14.58,2.84,34.26,4.11,55.12,4.47,19,9.18,40.63,19.09,62,27.78-21.64-1.51-48.87-4-76.2-8.09A372.34,372.34,0,0,1,257.47,339.77Zm144,2c8.37-.5,15.38-1,20.46-1.37l-1.26,5.77C414.21,345,407.8,343.52,401.45,341.81ZM366.26,330c-28.9-11.48-54.58-25.88-72.77-37.21a750.5,750.5,0,0,0,86.73,10.92c15,5.92,30.61,11.43,46.18,16l-1.51,7C415.54,327.41,392.79,329,366.26,330Zm56.42-25.49c2.37-.08,4.74-.17,7.09-.29l-.5,2.29c-2.2-.65-4.39-1.32-6.59-2ZM383,290.35C368.18,284.44,354,278.15,341,272c17.11-.53,35.88-1.42,55-2.89a375.17,375.17,0,0,0,38.53,13.36l-1.76,8.1a421.48,421.48,0,0,1-49.73-.24Zm44.27-24.14q5.55-.61,11-1.32l-1,4.4Q432.26,267.82,427.28,266.21Zm-29-10.77c-9.39-3.93-18.34-8.12-26.8-12.42,21.94.48,46.41.11,72-1.83l-2.11,9.72C427.19,252.81,412.64,254.29,398.24,255.44Zm-28.52,1.9c-20,1.07-38.89,1.58-55,1.79-18.26-9.35-31.89-17.1-38-20.68l.67-3.07c5.25.83,29.19,4.4,63.61,6.43C349.82,247,359.43,252.27,369.72,257.34ZM280.21,222.2l3.6-16.58c1.85.43,4.05.92,6.58,1.47,6.9,5.51,15.77,12.19,26.4,19.41-19.09-1.72-32.16-3.62-36.58-4.3Zm7.57-34.83.56-2.58,100,21.72a633,633,0,0,1-92-12C292.57,191.49,289.69,189.05,287.78,187.37ZM248.5,368.21c14.43,3.45,29.82,6.29,45.22,8.64A460.42,460.42,0,0,0,405.4,416.41l-.12.55L245.45,382.24Zm171,92.21a14.44,14.44,0,0,1-17.16,11l-176.78-38.4a14.42,14.42,0,0,1-4.73-26.23l.5-.31L240.89,395l163.24,35.46,13.05,18.57a14.49,14.49,0,0,1,2.3,11.36Zm27-233a753.73,753.73,0,0,1-101.14,1.12c-9.06-5.43-17.25-10.77-24.47-15.76,32.36,5.26,78.7,10.27,125.34,6.73l0-.46,2,.44Zm32.67-41.58a14.51,14.51,0,0,1-6.81,9.38l-19.58,11.48L289.49,171.26l-13.05-18.57A14.42,14.42,0,0,1,291.3,130.3l176.78,38.4a14.45,14.45,0,0,1,11,17.16Z"/><path class="02a715a7-b01b-402d-bbeb-0b0613fdb738" d="M67.5,73.1A5.68,5.68,0,0,1,57,73.83L49.85,59.44A5.68,5.68,0,1,1,59.94,54.2l.09.17,7.16,14.4A5.62,5.62,0,0,1,67.5,73.1Z"/><path class="63857376-25ea-4121-b423-4c7498c2f78b" d="M153.72,102a5.69,5.69,0,0,1-11-3c4-19-5.55-32.53-28.48-40.22C101.8,54.63,82.9,58.32,61.07,69.2A5.69,5.69,0,0,1,56,59c24.92-12.41,46.31-16.21,61.88-11,28.47,9.55,41.25,28.5,36.05,53.36l-.21.63Z"/><path class="3caab1a3-0794-49fe-b8cf-9f1007852d47" d="M210.75,361a5.69,5.69,0,0,1-10.35,1L31.11,60.07A22.73,22.73,0,1,1,71.35,38.91c.12.21.23.43.34.66L210.56,356.88A5.66,5.66,0,0,1,210.75,361ZM40.59,46.09a11.38,11.38,0,0,0,.6,8.68L154,255.89,61.43,44.39a11.37,11.37,0,0,0-20.84,1.7Z"/><path class="3caab1a3-0794-49fe-b8cf-9f1007852d47" d="M67.5,73.1A5.68,5.68,0,0,1,57,73.83L49.85,59.44A5.68,5.68,0,1,1,59.94,54.2l.09.17,7.16,14.4A5.62,5.62,0,0,1,67.5,73.1Z"/><path class="c8fe3c82-b74a-4c1b-a0fc-b313445590fc" d="M153.72,102a5.69,5.69,0,0,1-11-3c4-19-5.55-32.53-28.48-40.22C101.8,54.63,82.9,58.32,61.07,69.2A5.69,5.69,0,0,1,56,59c24.92-12.41,46.31-16.21,61.88-11,28.47,9.55,41.25,28.5,36.05,53.36l-.21.63Z"/></svg>