<svg id="346026a3-d119-46ae-9f6e-d57e2a039912" data-name="Layer 2" xmlns="http://www.w3.org/2000/svg" viewBox="0 0 512 512"><defs><style>.\30 e7c4d9e-d615-4987-84a7-af591d63b5aa,.b88cfaed-830d-4a22-9991-3ae930d7b1e9,.e8f27c81-0c97-41b0-9c87-fadfe21d6ab9{fill:none;stroke-miterlimit:10;stroke-width:12px;}.\30 e7c4d9e-d615-4987-84a7-af591d63b5aa,.b88cfaed-830d-4a22-9991-3ae930d7b1e9{stroke:#ff5714;}.e8f27c81-0c97-41b0-9c87-fadfe21d6ab9{stroke:#ffb800;}.b88cfaed-830d-4a22-9991-3ae930d7b1e9{stroke-linecap:round;}</style></defs><title>webdesing</title><rect class="0e7c4d9e-d615-4987-84a7-af591d63b5aa" x="15" y="79.5" width="482" height="353" rx="6.5" ry="6.5"/><polyline class="e8f27c81-0c97-41b0-9c87-fadfe21d6ab9" points="284.94 228 224.94 211 151.94 265"/><polyline class="e8f27c81-0c97-41b0-9c87-fadfe21d6ab9" points="42.94 231 100.94 188 197.94 231"/><circle class="e8f27c81-0c97-41b0-9c87-fadfe21d6ab9" cx="156.84" cy="173" r="21.5"/><path class="0e7c4d9e-d615-4987-84a7-af591d63b5aa" d="M276.44,265h-225a6.5,6.5,0,0,1-6.5-6.5v-114a6.5,6.5,0,0,1,6.5-6.5h225a6.5,6.5,0,0,1,6.5,6.5v114A6.5,6.5,0,0,1,276.44,265Z"/><line class="b88cfaed-830d-4a22-9991-3ae930d7b1e9" x1="340.56" y1="168" x2="432.56" y2="168"/><line class="b88cfaed-830d-4a22-9991-3ae930d7b1e9" x1="304.06" y1="190.33" x2="469.06" y2="190.33"/><line class="b88cfaed-830d-4a22-9991-3ae930d7b1e9" x1="304.06" y1="212.67" x2="469.06" y2="212.67"/><line class="b88cfaed-830d-4a22-9991-3ae930d7b1e9" x1="304.06" y1="235" x2="469.06" y2="235"/><line class="0e7c4d9e-d615-4987-84a7-af591d63b5aa" x1="11.5" y1="103.5" x2="500.5" y2="103.5"/><rect class="e8f27c81-0c97-41b0-9c87-fadfe21d6ab9" x="70.7" y="295.42" width="112" height="99.92" rx="6.5" ry="6.5"/><rect class="e8f27c81-0c97-41b0-9c87-fadfe21d6ab9" x="200.8" y="295.42" width="112" height="99.92" rx="6.5" ry="6.5"/><rect class="e8f27c81-0c97-41b0-9c87-fadfe21d6ab9" x="330.9" y="295.42" width="112" height="99.92" rx="6.5" ry="6.5"/><polyline class="b88cfaed-830d-4a22-9991-3ae930d7b1e9" points="52.8 326.63 40.2 346.63 52.67 364.13"/><polyline class="b88cfaed-830d-4a22-9991-3ae930d7b1e9" points="459.2 326.63 471.8 346.63 459.33 364.13"/></svg>