<svg id="Layer_5" data-name="Layer 5" xmlns="http://www.w3.org/2000/svg" xmlns:xlink="http://www.w3.org/1999/xlink" viewBox="0 0 1600 800"><defs><style>.cls-1{opacity:0.74;}.cls-2,.cls-3{fill:#fff;}.cls-2{fill-rule:evenodd;}.cls-4{fill:url(#linear-gradient);}</style><linearGradient id="linear-gradient" x1="1595.52" y1="-47.2" x2="13.48" y2="866.2" gradientUnits="userSpaceOnUse"><stop offset="0.05" stop-color="#345b62" stop-opacity="0"/><stop offset="0.08" stop-color="#22474e" stop-opacity="0.21"/><stop offset="0.15" stop-color="#082d32" stop-opacity="0.5"/><stop offset="0.22" stop-color="#002429" stop-opacity="0.6"/><stop offset="0.33" stop-color="#20474e" stop-opacity="0.26"/><stop offset="0.45" stop-color="#39626a" stop-opacity="0"/><stop offset="0.69" stop-color="#1a4147" stop-opacity="0.16"/><stop offset="0.82" stop-color="#002429" stop-opacity="0.3"/><stop offset="1" stop-color="#002429" stop-opacity="0.5"/></linearGradient></defs><title>meduse-dust-flare</title><g class="cls-1"><path class="cls-2" d="M398.53,400.07c-1-.75,1.45-1.85,2-1.45C401.58,399.38,399.1,400.47,398.53,400.07Z"/><path class="cls-2" d="M410.53,403a1,1,0,0,1,2,0A1,1,0,0,1,410.53,403Z"/><path class="cls-2" d="M1068.18-.18a1,1,0,0,1,2,0A1,1,0,0,1,1068.18-.18Z"/><path class="cls-2" d="M1106.15-.18c1.07-2.24,2.09-.1,2,1.45C1107.1,3.51,1106.08,1.36,1106.15-.18Z"/><path class="cls-2" d="M1134.15,2.73c-1-.76,1.46-1.86,2-1.46C1137.18,2,1134.71,3.13,1134.15,2.73Z"/><path class="cls-2" d="M1140.16,2.73c-1.06-.76,1.42-1.86,2-1.46C1143.19,2,1140.71,3.13,1140.16,2.73Z"/><path class="cls-2" d="M1436,2.73a1,1,0,0,1,2,0A1,1,0,0,1,1436,2.73Z"/><path class="cls-2" d="M1532,2.73c-1.06-.76,1.41-1.86,2-1.46C1535,2,1532.55,3.13,1532,2.73Z"/><path class="cls-2" d="M340.5,4.18a1,1,0,0,1,2,0A1,1,0,0,1,340.5,4.18Z"/><path class="cls-2" d="M626.38,5.64c5.16-5,4.83,7.5,0,0Z"/><path class="cls-2" d="M1268.11,5.64c-1.07-.74,1.45-1.86,2-1.46C1271.13,4.94,1268.66,6.05,1268.11,5.64Z"/><path class="cls-2" d="M1516,5.64c-1-.74,1.45-1.86,2-1.46C1519,4.94,1516.52,6.05,1516,5.64Z"/><path class="cls-2" d="M623.57,109.09a1,1,0,0,1,2,0A1,1,0,0,1,623.57,109.09Z"/><path class="cls-2" d="M456.44,7.09a1,1,0,0,1,2,0A1,1,0,0,1,456.44,7.09Z"/><path class="cls-2" d="M810.3,7.09a1,1,0,0,1,2,0A1,1,0,0,1,810.3,7.09Z"/><path class="cls-2" d="M842.28,7.09a1,1,0,0,1,2,0A1,1,0,0,1,842.28,7.09Z"/><path class="cls-2" d="M1184.15,7.09a1,1,0,0,1,2,0A1,1,0,0,1,1184.15,7.09Z"/><path class="cls-2" d="M438.46,10c-1-.76,1.45-1.87,2-1.46C441.48,9.3,439,10.41,438.46,10Z"/><path class="cls-2" d="M1348.06,10c-1-.76,1.45-1.87,2-1.46C1351.08,9.3,1348.61,10.41,1348.06,10Z"/><path class="cls-2" d="M1514,10a1,1,0,0,1,2,0A1,1,0,0,1,1514,10Z"/><path class="cls-2" d="M768.3,11.47c-1-.76,1.45-1.87,2-1.45C771.34,10.77,768.87,11.87,768.3,11.47Z"/><path class="cls-2" d="M1366,11.47c-1-.76,1.46-1.87,2-1.45C1369.07,10.77,1366.59,11.87,1366,11.47Z"/><path class="cls-2" d="M1540,12.92a1,1,0,0,1,2,0A1,1,0,0,1,1540,12.92Z"/><path class="cls-2" d="M1566,12.92a1,1,0,0,1,2,0A1,1,0,0,1,1566,12.92Z"/><path class="cls-2" d="M1430,15.83a1,1,0,0,1,2,0A1,1,0,0,1,1430,15.83Z"/><path class="cls-2" d="M806.29,18.74a1,1,0,0,1,2,0A1,1,0,0,1,806.29,18.74Z"/><path class="cls-2" d="M1102.15,18.74a1,1,0,0,1,2,0A1,1,0,0,1,1102.15,18.74Z"/><path class="cls-2" d="M1194.12,18.74c1.06-2.24,2.08-.08,2,1.46C1195.06,22.45,1194,20.3,1194.12,18.74Z"/><path class="cls-2" d="M1544,18.74a1,1,0,0,1,2,0A1,1,0,0,1,1544,18.74Z"/><path class="cls-2" d="M478.43,21.67c-1-.76,1.45-1.87,2-1.47C481.47,21,479,22.07,478.43,21.67Z"/><path class="cls-2" d="M642.36,23.12c-1-.75,1.46-1.87,2-1.45C645.4,22.42,642.91,23.52,642.36,23.12Z"/><path class="cls-2" d="M806.29,24.58a1,1,0,0,1,2,0A1,1,0,0,1,806.29,24.58Z"/><path class="cls-2" d="M1386,24.58c1.06-2.24,2.08-.1,2,1.45C1387,28.27,1386,26.12,1386,24.58Z"/><path class="cls-2" d="M404.46,27.49c.5-1.83,4-1.47,4,0C407.59,29.61,406.7,27.34,404.46,27.49Z"/><path class="cls-2" d="M796.3,27.49a1,1,0,0,1,2,0A1,1,0,0,1,796.3,27.49Z"/><path class="cls-2" d="M1212.11,27.49c-1-.76,1.45-1.86,2-1.46C1215.17,26.79,1212.66,27.89,1212.11,27.49Z"/><path class="cls-2" d="M1320.06,27.49c-1-.76,1.45-1.86,2-1.46C1323.12,26.79,1320.61,27.89,1320.06,27.49Z"/><path class="cls-2" d="M1524,27.49c-1-.76,1.45-1.86,2-1.46C1527,26.79,1524.53,27.89,1524,27.49Z"/><path class="cls-2" d="M1100.19,28.94c-1.06-.76,1.41-1.85,2-1.45C1103.21,28.24,1100.74,29.34,1100.19,28.94Z"/><path class="cls-2" d="M26.63,30.39a1,1,0,0,1,2,0A1,1,0,0,1,26.63,30.39Z"/><path class="cls-2" d="M808.3,30.39a1,1,0,0,1,2,0A1,1,0,0,1,808.3,30.39Z"/><path class="cls-2" d="M1360,30.39a1,1,0,0,1,2,0A1,1,0,0,1,1360,30.39Z"/><path class="cls-2" d="M1418,30.39a1,1,0,0,1,2,0A1,1,0,0,1,1418,30.39Z"/><path class="cls-2" d="M42.64,33.32c-1-.76,1.43-1.87,2-1.46C45.66,32.61,43.19,33.72,42.64,33.32Z"/><path class="cls-2" d="M408.47,33.32c-1-.76,1.44-1.87,2-1.46C411.49,32.61,409,33.72,408.47,33.32Z"/><path class="cls-2" d="M548.41,33.32c-1-.76,1.43-1.87,2-1.46C551.43,32.61,549,33.72,548.41,33.32Z"/><path class="cls-2" d="M774.31,33.32c-1-.76,1.45-1.87,2-1.46C777.33,32.61,774.86,33.72,774.31,33.32Z"/><path class="cls-2" d="M800.31,33.32c-1-.76,1.43-1.87,2-1.46C803.33,32.61,800.86,33.72,800.31,33.32Z"/><path class="cls-2" d="M442.46,34.77c-1-.75,1.43-1.86,2-1.45C445.49,34.06,443,35.17,442.46,34.77Z"/><path class="cls-2" d="M1010.22,34.77c-1.06-.75,1.42-1.86,2-1.45C1013.24,34.06,1010.77,35.17,1010.22,34.77Z"/><path class="cls-2" d="M1362,34.77c-1-.75,1.45-1.86,2-1.45C1365.1,34.06,1362.59,35.17,1362,34.77Z"/><path class="cls-2" d="M450.45,36.23c-1-.76,1.43-1.87,2-1.46C453.48,35.53,451,36.63,450.45,36.23Z"/><path class="cls-2" d="M806.29,36.23c-1-.76,1.45-1.87,2-1.46C809.32,35.53,806.84,36.63,806.29,36.23Z"/><path class="cls-2" d="M1370.05,36.23c-1-.76,1.45-1.87,2-1.46C1373.07,35.53,1370.6,36.63,1370.05,36.23Z"/><path class="cls-2" d="M1436,36.23c-1-.76,1.46-1.87,2-1.46C1439.05,35.53,1436.57,36.63,1436,36.23Z"/><path class="cls-2" d="M656.36,36.23c2.16.35,1.36,2.89,4,2.91.37,1.24-.77,1.37-2,1.45h-4C655.42,39.42,656.44,38.23,656.36,36.23Z"/><path class="cls-2" d="M778.31,37.68c1-2.23,2.09-.08,2,1.46C779.25,41.38,778.22,39.24,778.31,37.68Z"/><path class="cls-2" d="M1086.17,37.68a1,1,0,0,1,2,0"/><path class="cls-2" d="M648.37,40.59c-1-.75,1.43-1.85,2-1.45C651.4,39.89,648.92,41,648.37,40.59Z"/><path class="cls-2" d="M1577.94,40.59c-1-.75,1.46-1.85,2-1.45C1581,39.89,1578.53,41,1577.94,40.59Z"/><path class="cls-2" d="M642.36,42.05c1.06-2.24,2.08-.09,2,1.45C643.3,45.76,642.28,43.6,642.36,42.05Z"/><path class="cls-2" d="M794.3,42.05c-1-.76,1.45-1.86,2-1.46C797.34,41.35,794.84,42.46,794.3,42.05Z"/><path class="cls-2" d="M1114.17,42.05c-1-.76,1.45-1.86,2-1.46C1117.19,41.35,1114.72,42.46,1114.17,42.05Z"/><path class="cls-2" d="M1370.05,42.05c1.06-2.24,2.08-.09,2,1.45C1371,45.76,1370,43.6,1370.05,42.05Z"/><path class="cls-2" d="M660.35,43.5a1,1,0,0,1,2,0A1,1,0,0,1,660.35,43.5Z"/><path class="cls-2" d="M1276.08,43.5a1,1,0,0,1,2,0A1,1,0,0,1,1276.08,43.5Z"/><path class="cls-2" d="M136.59,45c3.51.34,4.55,2.5,4,5.82-1.94,0-1.57-1.78-2-2.91"/><path class="cls-2" d="M661.54,148.42c-1-.75,1.45-1.86,2-1.45C664.58,147.71,662.09,148.82,661.54,148.42Z"/><path class="cls-2" d="M414.46,46.42c-1-.75,1.45-1.86,2-1.45C417.51,45.71,415,46.82,414.46,46.42Z"/><path class="cls-2" d="M1406,46.42c-1-.75,1.45-1.86,2-1.45C1409.08,45.71,1406.57,46.82,1406,46.42Z"/><path class="cls-2" d="M1148.14,49.34a1,1,0,0,1,2,0A1,1,0,0,1,1148.14,49.34Z"/><path class="cls-2" d="M2.64,52.25a1,1,0,0,1,2,0A1,1,0,0,1,2.64,52.25Z"/><path class="cls-2" d="M534.41,52.25c-1-.76,1.45-1.86,2-1.46C537.45,51.55,535,52.64,534.41,52.25Z"/><path class="cls-2" d="M1200.13,52.25c-1.06-.76,1.45-1.86,2-1.46C1203.15,51.55,1200.68,52.64,1200.13,52.25Z"/><path class="cls-2" d="M1224.12,52.25c-1.06-.76,1.46-1.86,2-1.46C1227.15,51.55,1224.67,52.64,1224.12,52.25Z"/><path class="cls-2" d="M1601.93,50.79c6,1-1.88,3.11,0,5.82C1597,56.4,1601.35,51.69,1601.93,50.79Z"/><path class="cls-2" d="M426.46,53.7c1.06-2.24,2.08-.09,2,1.46C427.4,57.41,426.38,55.25,426.46,53.7Z"/><path class="cls-2" d="M1114.17,53.7c-1-.76,1.45-1.85,2-1.45C1117.19,53,1114.72,54.1,1114.17,53.7Z"/><path class="cls-2" d="M1544,53.7c-1-.76,1.46-1.85,2-1.45C1547,53,1544.52,54.1,1544,53.7Z"/><path class="cls-2" d="M24.63,55.16c1.06-2.25,2.08-.09,2,1.45C25.57,58.86,24.55,56.71,24.63,55.16Z"/><path class="cls-2" d="M28.63,55.16c1.07-2.25,2.09-.09,2,1.45C29.58,58.86,28.54,56.71,28.63,55.16Z"/><path class="cls-2" d="M1206.14,55.16a1,1,0,0,1,2,0A1,1,0,0,1,1206.14,55.16Z"/><path class="cls-2" d="M1402.05,55.16a1,1,0,0,1,2,0A1,1,0,0,1,1402.05,55.16Z"/><path class="cls-2" d="M1522,55.16c1-2.25,2.07-.09,2,1.45C1522.93,58.86,1521.9,56.71,1522,55.16Z"/><ellipse class="cls-3" cx="1595.97" cy="55.16" rx="2.83" ry="2.06"/><path class="cls-2" d="M540.42,58.08c-1-.76,1.43-1.87,2-1.47C543.44,57.37,541,58.48,540.42,58.08Z"/><path class="cls-2" d="M1182.14,58.08c-1.06-.76,1.42-1.87,2-1.47C1185.17,57.37,1182.69,58.48,1182.14,58.08Z"/><path class="cls-2" d="M1270.11,58.08c-1.06-.76,1.41-1.87,2-1.47C1273.13,57.37,1270.66,58.48,1270.11,58.08Z"/><path class="cls-2" d="M146.58,63.9c-1-.76,1.46-1.86,2-1.46C149.6,63.2,147.13,64.3,146.58,63.9Z"/><path class="cls-2" d="M538.42,63.9c-1-.76,1.43-1.86,2-1.46C541.44,63.2,539,64.3,538.42,63.9Z"/><path class="cls-2" d="M70.62,65.35c-1.05-.75,1.45-1.85,2-1.45C73.64,64.65,71.17,65.75,70.62,65.35Z"/><path class="cls-2" d="M154.57,66.81c-1-.75,1.46-1.86,2-1.46C157.62,66.11,155.13,67.22,154.57,66.81Z"/><path class="cls-2" d="M672.35,66.81c-1-.75,1.45-1.86,2-1.46C675.39,66.11,672.91,67.22,672.35,66.81Z"/><path class="cls-2" d="M1304.08,66.81c-1-.75,1.45-1.86,2-1.46C1307.1,66.11,1304.63,67.22,1304.08,66.81Z"/><path class="cls-2" d="M32.62,68.26a1,1,0,0,1,2,0A1,1,0,0,1,32.62,68.26Z"/><path class="cls-2" d="M158.58,68.26c1.06-2.24,2.08-.08,2,1.47C159.52,72,158.48,69.82,158.58,68.26Z"/><path class="cls-2" d="M1592,68.26a1,1,0,0,1,2,0A1,1,0,0,1,1592,68.26Z"/><path class="cls-2" d="M88.6,71.19a1,1,0,0,1,2,0A1,1,0,0,1,88.6,71.19Z"/><path class="cls-2" d="M418.47,71.19c-1.05-.76,1.43-1.87,2-1.46C421.49,70.47,419,71.59,418.47,71.19Z"/><path class="cls-2" d="M1562,71.19c-1-.76,1.45-1.87,2-1.46C1565,70.47,1562.51,71.59,1562,71.19Z"/><path class="cls-2" d="M148.59,72.64c-1-.76,1.43-1.87,2-1.45C151.61,71.94,149.13,73,148.59,72.64Z"/><path class="cls-2" d="M1232.1,72.64c-1-.76,1.45-1.87,2-1.45C1235.16,71.94,1232.65,73,1232.1,72.64Z"/><path class="cls-2" d="M1300.07,72.64c-1-.76,1.45-1.87,2-1.45C1303.09,71.94,1300.62,73,1300.07,72.64Z"/><path class="cls-2" d="M1058.17,78.46c-1-.76,1.45-1.86,2-1.46C1061.23,77.76,1058.76,78.87,1058.17,78.46Z"/><path class="cls-2" d="M1278.08,78.46c-1-.76,1.45-1.86,2-1.46C1281.1,77.76,1278.63,78.87,1278.08,78.46Z"/><path class="cls-2" d="M98.59,79.91c2.32-4.7,2.28,3.93,2,5.84-1.06,2.24-2.09.08-2-1.46Z"/><path class="cls-2" d="M440.53,488.91a1,1,0,0,1,2,0A1,1,0,0,1,440.53,488.91Z"/><path class="cls-2" d="M470.44,79.91a1,1,0,0,1,2,0A1,1,0,0,1,470.44,79.91Z"/><path class="cls-2" d="M526.42,79.91a1,1,0,0,1,2,0A1,1,0,0,1,526.42,79.91Z"/><path class="cls-2" d="M1206.14,79.91a1,1,0,0,1,2,0A1,1,0,0,1,1206.14,79.91Z"/><path class="cls-2" d="M1398.05,79.91a1,1,0,0,1,2,0A1,1,0,0,1,1398.05,79.91Z"/><path class="cls-2" d="M418.47,82.84c-1.05-.76,1.43-1.87,2-1.46C421.49,82.12,419,83.24,418.47,82.84Z"/><path class="cls-2" d="M476.43,84.29c-1-.75,1.45-1.87,2-1.45C479.47,83.59,477,84.69,476.43,84.29Z"/><path class="cls-2" d="M1274.07,84.29c-1-.75,1.46-1.87,2-1.45C1277.14,83.59,1274.62,84.69,1274.07,84.29Z"/><path class="cls-2" d="M1288.09,84.29c-1.06-.75,1.46-1.87,2-1.45C1291.12,83.59,1288.64,84.69,1288.09,84.29Z"/><path class="cls-2" d="M1498,84.29c-1-.75,1.45-1.87,2-1.45C1501,83.59,1498.54,84.69,1498,84.29Z"/><path class="cls-2" d="M1568,84.29c-1-.75,1.45-1.87,2-1.45C1571,83.59,1568.52,84.69,1568,84.29Z"/><path class="cls-2" d="M610.38,85.75a1,1,0,0,1,2,0A1,1,0,0,1,610.38,85.75Z"/><path class="cls-2" d="M1252.08,85.75c1.06-2.24,2.12-.1,2,1.45C1253,89.44,1252,87.3,1252.08,85.75Z"/><path class="cls-2" d="M1338,88.66c-1-.76,1.46-1.86,2-1.46C1341.11,88,1338.63,89.06,1338,88.66Z"/><path class="cls-2" d="M1212.11,90.11c-1-.75,1.45-1.85,2-1.45C1215.17,89.41,1212.66,90.51,1212.11,90.11Z"/><path class="cls-2" d="M695.53,193.57a1,1,0,0,1,2,0A1,1,0,0,1,695.53,193.57Z"/><path class="cls-2" d="M1282.08,91.57c1.06-2.24,2.09-.09,2,1.46C1283,95.27,1282,93.12,1282.08,91.57Z"/><path class="cls-2" d="M410.48,96c-1.05-.76,1.43-1.87,2-1.46C413.5,95.23,411,96.34,410.48,96Z"/><path class="cls-2" d="M1194.12,96a1,1,0,0,1,2,0A1,1,0,0,1,1194.12,96Z"/><path class="cls-2" d="M484.44,101.76c-1-.75,1.43-1.85,2-1.45C487.46,101.07,485,102.16,484.44,101.76Z"/><path class="cls-2" d="M1128.15,101.76c-1-.75,1.45-1.85,2-1.45C1131.17,101.07,1128.7,102.16,1128.15,101.76Z"/><path class="cls-2" d="M1184.15,101.76c-1.07-.75,1.41-1.85,2-1.45C1187.17,101.07,1184.7,102.16,1184.15,101.76Z"/><path class="cls-2" d="M1262.1,101.76c-1-.75,1.45-1.85,2-1.45C1265.12,101.07,1262.64,102.16,1262.1,101.76Z"/><path class="cls-2" d="M1288.09,101.76c-1.06-.75,1.46-1.85,2-1.45C1291.12,101.07,1288.64,102.16,1288.09,101.76Z"/><path class="cls-2" d="M1540,101.76a1,1,0,0,1,2,0A1,1,0,0,1,1540,101.76Z"/><path class="cls-2" d="M476.43,104.67a1,1,0,0,1,2,0A1,1,0,0,1,476.43,104.67Z"/><path class="cls-2" d="M1264.1,107.6a1,1,0,0,1,2,0A1,1,0,0,1,1264.1,107.6Z"/><path class="cls-2" d="M1300.07,107.6c-1-.76,1.45-1.87,2-1.46C1303.09,106.88,1300.62,108,1300.07,107.6Z"/><path class="cls-2" d="M1036.18,109.05c-1-.75,1.45-1.87,2-1.45C1039.24,108.34,1036.77,109.45,1036.18,109.05Z"/><path class="cls-2" d="M1520,110.51a1,1,0,0,1,2,0A1,1,0,0,1,1520,110.51Z"/><path class="cls-2" d="M1526,113.42c-1.06-.76,1.45-1.86,2-1.46C1529,112.72,1526.54,113.82,1526,113.42Z"/><path class="cls-2" d="M1246.11,114.87c-1.06-.76,1.46-1.85,2-1.45C1249.14,114.17,1246.66,115.27,1246.11,114.87Z"/><path class="cls-2" d="M1274.07,114.87c3-5.13,3.82,2.68,2,2.91C1274.9,117.94,1273.56,115.74,1274.07,114.87Z"/><path class="cls-2" d="M1358.07,114.87c-1.06-.76,1.41-1.85,2-1.45C1361.1,114.17,1358.62,115.27,1358.07,114.87Z"/><path class="cls-2" d="M1590,114.87c-1-.76,1.45-1.85,2-1.45C1593,114.17,1590.51,115.27,1590,114.87Z"/><path class="cls-2" d="M1234.1,116.32a1,1,0,0,1,2,0A1,1,0,0,1,1234.1,116.32Z"/><path class="cls-2" d="M1354.07,116.32c1.06-2.23,2.08-.08,2,1.46C1355,120,1354,117.88,1354.07,116.32Z"/><path class="cls-2" d="M120.59,119.25c-1-.76,1.45-1.87,2-1.47C123.63,118.54,121.15,119.65,120.59,119.25Z"/><path class="cls-2" d="M723.51,221.25c1.55-2.67,2.16.87,2,2.91C724,226.81,723.37,223.29,723.51,221.25Z"/><path class="cls-2" d="M1348.06,120.7c-1-.75,1.45-1.86,2-1.45C1351.08,120,1348.61,121.1,1348.06,120.7Z"/><path class="cls-2" d="M1430,120.7c-1-.75,1.45-1.86,2-1.45C1433,120,1430.56,121.1,1430,120.7Z"/><path class="cls-2" d="M12.63,125.07c-1-.76,1.45-1.85,2-1.46C15.68,124.37,13.18,125.47,12.63,125.07Z"/><path class="cls-2" d="M888.25,125.07c-1-.76,1.45-1.85,2-1.46C891.29,124.37,888.82,125.47,888.25,125.07Z"/><path class="cls-2" d="M1306.08,125.07c-1-.76,1.45-1.85,2-1.46C1309.1,124.37,1306.63,125.47,1306.08,125.07Z"/><path class="cls-2" d="M1590,125.07c-1-.76,1.45-1.85,2-1.46C1593,124.37,1590.51,125.47,1590,125.07Z"/><path class="cls-2" d="M1210.1,126.52c-1-.75,1.46-1.85,2-1.45C1213.17,125.82,1210.65,126.94,1210.1,126.52Z"/><path class="cls-2" d="M888.25,129.43a1,1,0,0,1,2,0A1,1,0,0,1,888.25,129.43Z"/><path class="cls-2" d="M1278.08,129.43a1,1,0,0,1,2,0A1,1,0,0,1,1278.08,129.43Z"/><path class="cls-2" d="M1356.07,129.43c1.06-2.24,2.08-.08,2,1.47C1357,133.14,1356,131,1356.07,129.43Z"/><path class="cls-2" d="M1368.05,129.43a1,1,0,0,1,2,0A1,1,0,0,1,1368.05,129.43Z"/><path class="cls-2" d="M1272.11,132.35c-1.06-.75,1.42-1.86,2-1.45C1275.13,131.64,1272.66,132.75,1272.11,132.35Z"/><path class="cls-2" d="M594.39,133.81c-1-.75,1.44-1.87,2-1.46C597.42,133.11,595,134.21,594.39,133.81Z"/><path class="cls-2" d="M1192.12,132.35c1.06.76-1.46,1.86-2,1.46"/><path class="cls-2" d="M1392,133.81c1.06-2.24,2.08-.1,2,1.46C1393,137.5,1392,135.35,1392,133.81Z"/><path class="cls-2" d="M590.39,135.27a1,1,0,0,1,2,0A1,1,0,0,1,590.39,135.27Z"/><path class="cls-2" d="M1374.06,135.27c1.52-2.66,2.16.86,2,2.91C1374.49,140.83,1373.9,137.31,1374.06,135.27Z"/><path class="cls-2" d="M28.63,138.18c-1-.76,1.46-1.86,2-1.46C31.66,137.48,29.18,138.57,28.63,138.18Z"/><path class="cls-2" d="M12.63,139.63c-1-.76,1.45-1.85,2-1.45C15.68,138.93,13.18,140,12.63,139.63Z"/><path class="cls-2" d="M1370.05,139.63c-1-.76,1.45-1.85,2-1.45C1373.07,138.93,1370.6,140,1370.05,139.63Z"/><path class="cls-2" d="M1504,139.63c-1.06-.76,1.45-1.85,2-1.45C1507,138.93,1504.55,140,1504,139.63Z"/><path class="cls-2" d="M737.51,243.09a1,1,0,0,1,2,0"/><path class="cls-2" d="M1244.11,141.09a1,1,0,0,1,2,0A1,1,0,0,1,1244.11,141.09Z"/><path class="cls-2" d="M854.28,145.46h4v2.91h-4Z"/><path class="cls-2" d="M1244.11,146.92a1,1,0,0,1,2,0A1,1,0,0,1,1244.11,146.92Z"/><path class="cls-2" d="M532.41,149.83c-1-.76,1.45-1.86,2-1.46C535.45,149.13,533,150.23,532.41,149.83Z"/><path class="cls-2" d="M862.27,149.83c-1-.76,1.45-1.86,2-1.46C865.3,149.13,862.82,150.23,862.27,149.83Z"/><path class="cls-2" d="M936.24,149.83c-1-.76,1.45-1.86,2-1.46C939.26,149.13,936.79,150.23,936.24,149.83Z"/><path class="cls-2" d="M1250.12,149.83a1,1,0,0,1,2,0A1,1,0,0,1,1250.12,149.83Z"/><path class="cls-2" d="M1304.08,149.83c-1-.76,1.45-1.86,2-1.46C1307.1,149.13,1304.63,150.23,1304.08,149.83Z"/><path class="cls-2" d="M1356.07,149.83c-1.06-.76,1.41-1.86,2-1.46C1359.09,149.13,1356.62,150.23,1356.07,149.83Z"/><path class="cls-2" d="M48.62,151.28c-1-.75,1.45-1.85,2-1.45C51.65,150.58,49.17,151.68,48.62,151.28Z"/><path class="cls-2" d="M82.61,151.28c-1-.75,1.46-1.85,2-1.45C85.63,150.58,83.16,151.68,82.61,151.28Z"/><path class="cls-2" d="M755.49,253.28c2.48.64,4.13,1.87,4,4.38C755.24,258.33,755.69,255.58,755.49,253.28Z"/><path class="cls-2" d="M938.24,152.74c-1-.75,1.45-1.86,2-1.46C941.26,152,938.79,153.15,938.24,152.74Z"/><path class="cls-2" d="M1302.07,152.74c1.06-2.24,2.09-.09,2,1.47C1303,156.44,1302,154.29,1302.07,152.74Z"/><path class="cls-2" d="M819.48,256.21a1,1,0,0,1,2,0A1,1,0,0,1,819.48,256.21Z"/><path class="cls-2" d="M942.25,154.21a1,1,0,0,1,2,0A1,1,0,0,1,942.25,154.21Z"/><path class="cls-2" d="M1220.12,154.21a1,1,0,0,1,2,0A1,1,0,0,1,1220.12,154.21Z"/><path class="cls-2" d="M1586,154.21a1,1,0,0,1,2,0A1,1,0,0,1,1586,154.21Z"/><path class="cls-2" d="M1212.11,157.12c-1-.76,1.45-1.87,2-1.46C1215.17,156.4,1212.66,157.52,1212.11,157.12Z"/><path class="cls-2" d="M50.63,158.57c-1.05-.76,1.43-1.85,2-1.45C53.65,157.87,51.18,159,50.63,158.57Z"/><path class="cls-2" d="M803.48,260.57c-1-.76,1.46-1.85,2-1.45C806.52,259.87,804,261,803.48,260.57Z"/><path class="cls-2" d="M922.26,160a1,1,0,0,1,2,0A1,1,0,0,1,922.26,160Z"/><path class="cls-2" d="M1090.17,160a1,1,0,0,1,2,0A1,1,0,0,1,1090.17,160Z"/><path class="cls-2" d="M1594,160a1,1,0,0,1,2,0A1,1,0,0,1,1594,160Z"/><path class="cls-2" d="M1328.07,162.93c-1-.75,1.45-1.85,2-1.45C1331.09,162.24,1328.62,163.33,1328.07,162.93Z"/><path class="cls-2" d="M2.64,165.84a1,1,0,0,1,2,0A1,1,0,0,1,2.64,165.84Z"/><path class="cls-2" d="M394.47,165.84a1,1,0,0,1,2,0A1,1,0,0,1,394.47,165.84Z"/><path class="cls-2" d="M926.26,165.84a1,1,0,0,1,2,0A1,1,0,0,1,926.26,165.84Z"/><path class="cls-2" d="M450.45,168.77c-1-.76,1.43-1.87,2-1.46C453.48,168.05,451,169.17,450.45,168.77Z"/><path class="cls-2" d="M456.44,168.77a1,1,0,0,1,2,0A1,1,0,0,1,456.44,168.77Z"/><path class="cls-2" d="M880.26,168.77c-1-.76,1.45-1.87,2-1.46C883.28,168.05,880.81,169.17,880.26,168.77Z"/><path class="cls-2" d="M1076.19,168.77c-1-.76,1.42-1.87,2-1.46C1079.22,168.05,1076.74,169.17,1076.19,168.77Z"/><path class="cls-2" d="M962.23,170.22c-1-.76,1.46-1.85,2-1.45C965.26,169.51,962.78,170.62,962.23,170.22Z"/><path class="cls-2" d="M1534,170.22c-1-.76,1.45-1.85,2-1.45C1537,169.51,1534.55,170.62,1534,170.22Z"/><path class="cls-2" d="M1244.11,174.59c-1.06-.76,1.45-1.86,2-1.46C1247.13,173.89,1244.66,175,1244.11,174.59Z"/><path class="cls-2" d="M1292.1,174.59c-1.06-.76,1.41-1.86,2-1.46C1295.12,173.89,1292.65,175,1292.1,174.59Z"/><path class="cls-2" d="M114.6,176c-1-.75,1.45-1.85,2-1.45C117.62,175.34,115.15,176.44,114.6,176Z"/><path class="cls-2" d="M494.43,176c-1-.75,1.44-1.85,2-1.45C497.46,175.34,495,176.44,494.43,176Z"/><path class="cls-2" d="M1224.12,176c-1.06-.75,1.46-1.85,2-1.45C1227.15,175.34,1224.67,176.44,1224.12,176Z"/><path class="cls-2" d="M-1.35,177.5a1,1,0,0,1,2,0A1,1,0,0,1-1.35,177.5Z"/><path class="cls-2" d="M458.44,177.5a1,1,0,0,1,2,0A1,1,0,0,1,458.44,177.5Z"/><path class="cls-2" d="M1250.12,180.41c-1.06-.75,1.41-1.86,2-1.46C1253.14,179.72,1250.67,180.82,1250.12,180.41Z"/><path class="cls-2" d="M1262.1,180.41c-1-.75,1.45-1.86,2-1.46C1265.12,179.72,1262.64,180.82,1262.1,180.41Z"/><path class="cls-2" d="M1266.1,180.41a1,1,0,0,1,2,0A1,1,0,0,1,1266.1,180.41Z"/><path class="cls-2" d="M1086.17,181.88c-1-.76,1.45-1.87,2-1.47C1089.19,181.16,1086.72,182.27,1086.17,181.88Z"/><path class="cls-2" d="M804.29,183.33c1.06-2.24,2.08-.1,2,1.45C805.23,187,804.21,184.88,804.29,183.33Z"/><path class="cls-2" d="M922.26,183.33c-1.06-.76,1.45-1.87,2-1.45C925.28,182.63,922.81,183.73,922.26,183.33Z"/><path class="cls-2" d="M1599.93,183.33c1.57-2.67,2.17.87,2,2.91C1600.41,188.89,1599.82,185.37,1599.93,183.33Z"/><path class="cls-2" d="M812.28,184.78c1.06-2.24,2.1-.1,2,1.46C813.23,188.48,812.2,186.34,812.28,184.78Z"/><path class="cls-2" d="M878.26,187.69c-1-.75,1.45-1.85,2-1.45C881.3,187,878.8,188.11,878.26,187.69Z"/><path class="cls-2" d="M1086.17,187.69c-1-.75,1.45-1.85,2-1.45C1089.19,187,1086.72,188.11,1086.17,187.69Z"/><path class="cls-2" d="M492.43,189.16c-1-.77,1.45-1.87,2-1.47C495.45,188.45,493,189.56,492.43,189.16Z"/><path class="cls-2" d="M614.38,189.16c1.06-2.25,2.08-.1,2,1.44C615.33,192.86,614.28,190.7,614.38,189.16Z"/><path class="cls-2" d="M1220.12,189.16c-1-.77,1.45-1.87,2-1.47C1223.14,188.45,1220.67,189.56,1220.12,189.16Z"/><path class="cls-2" d="M1234.1,189.16c-1-.77,1.45-1.87,2-1.47C1237.16,188.45,1234.65,189.56,1234.1,189.16Z"/><path class="cls-2" d="M620.37,190.6a1,1,0,0,1,2,0A1,1,0,0,1,620.37,190.6Z"/><path class="cls-2" d="M1398.05,190.6a1,1,0,0,1,2,0A1,1,0,0,1,1398.05,190.6Z"/><path class="cls-2" d="M6.65,193.51c-1.05-.74,1.45-1.85,2-1.45C9.67,192.83,7.19,193.94,6.65,193.51Z"/><path class="cls-2" d="M820.29,193.51c-1-.74,1.44-1.85,2-1.45C823.32,192.83,820.84,193.94,820.29,193.51Z"/><path class="cls-2" d="M810.3,195c-1-.74,1.43-1.86,2-1.46C813.32,194.28,810.85,195.39,810.3,195Z"/><path class="cls-2" d="M1364,195c1.06-2.23,2.08-.09,2,1.48C1365,198.67,1364,196.54,1364,195Z"/><path class="cls-2" d="M120.59,196.45a1,1,0,0,1,2,0A1,1,0,0,1,120.59,196.45Z"/><path class="cls-2" d="M208.55,196.45a1,1,0,0,1,2,0A1,1,0,0,1,208.55,196.45Z"/><path class="cls-2" d="M1584,196.45a1,1,0,0,1,2,0A1,1,0,0,1,1584,196.45Z"/><path class="cls-2" d="M128.6,199.36c-1-.77,1.43-1.85,2-1.45C131.62,198.65,129.15,199.76,128.6,199.36Z"/><path class="cls-2" d="M928.22,200.81c-1-.77,1.46-1.85,2-1.45C931.29,200.1,928.78,201.22,928.22,200.81Z"/><path class="cls-2" d="M950.22,200.81c-1-.77,1.45-1.85,2-1.45C953.28,200.1,950.77,201.22,950.22,200.81Z"/><path class="cls-2" d="M916.25,202.27a1,1,0,0,1,2,0A1,1,0,0,1,916.25,202.27Z"/><path class="cls-2" d="M1348.06,200.81h4v2.91h-4Z"/><path class="cls-2" d="M1378.06,202.27a1,1,0,0,1,2,0A1,1,0,0,1,1378.06,202.27Z"/><path class="cls-2" d="M116.6,205.18c-1-.77,1.43-1.86,2-1.46C119.62,204.47,117.15,205.58,116.6,205.18Z"/><path class="cls-2" d="M422.45,205.18c-1-.77,1.45-1.86,2-1.46C425.5,204.47,423,205.58,422.45,205.18Z"/><path class="cls-2" d="M816.29,205.18c-1-.77,1.45-1.86,2-1.46C819.33,204.47,816.84,205.58,816.29,205.18Z"/><path class="cls-2" d="M954.22,205.18a1,1,0,0,1,2,0A1,1,0,0,1,954.22,205.18Z"/><path class="cls-2" d="M932.23,208.09a1,1,0,0,1,2,0A1,1,0,0,1,932.23,208.09Z"/><path class="cls-2" d="M1338,212.45c-1-.74,1.46-1.85,2-1.45C1341.11,211.77,1338.63,212.85,1338,212.45Z"/><path class="cls-2" d="M942.25,213.91c-1.07-.75,1.45-1.86,2-1.46C945.27,213.22,942.79,214.31,942.25,213.91Z"/><path class="cls-2" d="M1414,213.91c-1-.75,1.45-1.86,2-1.46C1417.06,213.22,1414.58,214.31,1414,213.91Z"/><path class="cls-2" d="M28.63,218.27c-1-.74,1.46-1.85,2-1.45C31.66,217.59,29.18,218.7,28.63,218.27Z"/><path class="cls-2" d="M1348.06,219.73c-1-.74,1.45-1.86,2-1.46C1351.08,219,1348.61,220.15,1348.06,219.73Z"/><path class="cls-2" d="M1416,221.21a1,1,0,0,1,2,0A1,1,0,0,1,1416,221.21Z"/><path class="cls-2" d="M220.55,227a1,1,0,0,1,2,0A1,1,0,0,1,220.55,227Z"/><path class="cls-2" d="M942.25,227a1,1,0,0,1,2,0A1,1,0,0,1,942.25,227Z"/><path class="cls-2" d="M512.42,229.94c-1-.77,1.45-1.86,2-1.46C515.46,229.22,513,230.34,512.42,229.94Z"/><path class="cls-2" d="M886.27,229.94c-1-.77,1.43-1.86,2-1.46C889.29,229.22,886.82,230.34,886.27,229.94Z"/><path class="cls-2" d="M1388,229.94c-1-.77,1.46-1.86,2-1.46C1391.06,229.22,1388.59,230.34,1388,229.94Z"/><path class="cls-2" d="M1328.07,231.39c-1-.74,1.45-1.85,2-1.45C1331.09,230.68,1328.62,231.79,1328.07,231.39Z"/><path class="cls-2" d="M1392,231.39c-1-.74,1.46-1.85,2-1.45C1395.06,230.68,1392.59,231.79,1392,231.39Z"/><path class="cls-2" d="M1408,232.85a1,1,0,0,1,2,0A1,1,0,0,1,1408,232.85Z"/><path class="cls-2" d="M1338,235.76c-1-.74,1.46-1.86,2-1.46C1341.11,235.07,1338.63,236.16,1338,235.76Z"/><path class="cls-2" d="M980.22,237.21c-1-.74,1.45-1.85,2-1.45C983.24,236.53,980.77,237.61,980.22,237.21Z"/><path class="cls-2" d="M10.63,238.67a1,1,0,0,1,2,0A1,1,0,0,1,10.63,238.67Z"/><path class="cls-2" d="M152.57,238.67a1,1,0,0,1,2,0A1,1,0,0,1,152.57,238.67Z"/><path class="cls-2" d="M1324.06,238.67a1,1,0,0,1,2,0A1,1,0,0,1,1324.06,238.67Z"/><path class="cls-2" d="M1328.07,238.67a1,1,0,0,1,2,0A1,1,0,0,1,1328.07,238.67Z"/><path class="cls-2" d="M1580,238.67a1,1,0,0,1,2,0A1,1,0,0,1,1580,238.67Z"/><path class="cls-2" d="M954.22,241.58c-1-.75,1.46-1.86,2-1.46C957.25,240.89,954.77,242,954.22,241.58Z"/><path class="cls-2" d="M1214.11,241.58a1,1,0,0,1-2,0"/><path class="cls-2" d="M1348.06,243c-1-.74,1.45-1.85,2-1.45C1351.08,242.35,1348.61,243.46,1348.06,243Z"/><path class="cls-2" d="M532.41,244.51c-1-.77,1.45-1.88,2-1.48C535.45,243.8,533,244.91,532.41,244.51Z"/><path class="cls-2" d="M1310.08,244.51c-1-.77,1.46-1.88,2-1.48C1313.11,243.8,1310.63,244.91,1310.08,244.51Z"/><path class="cls-2" d="M28.63,248.88c-1-.77,1.46-1.89,2-1.46C31.66,248.17,29.18,249.28,28.63,248.88Z"/><path class="cls-2" d="M1378.06,248.88c-1.06-.77,1.41-1.86,2-1.46C1381.09,248.17,1378.61,249.28,1378.06,248.88Z"/><path class="cls-2" d="M1584,248.88c-1-.77,1.45-1.86,2-1.46C1587,248.17,1584.5,249.28,1584,248.88Z"/><path class="cls-2" d="M-1.35,250.33c-1-.77,1.44-1.85,2-1.45C1.68,249.62-.8,250.73-1.35,250.33Z"/><path class="cls-2" d="M918.25,250.33c-1-.77,1.45-1.85,2-1.45C921.28,249.62,918.8,250.73,918.25,250.33Z"/><path class="cls-2" d="M1338,250.33c-1-.77,1.46-1.85,2-1.45C1341.11,249.62,1338.63,250.73,1338,250.33Z"/><path class="cls-2" d="M890.25,251.79a1,1,0,0,1,2,0A1,1,0,0,1,890.25,251.79Z"/><path class="cls-2" d="M1370.05,251.79a1,1,0,0,1,2,0A1,1,0,0,1,1370.05,251.79Z"/><path class="cls-2" d="M22.63,254.7c-1-.75,1.45-1.86,2-1.46C25.67,254,23.2,255.1,22.63,254.7Z"/><path class="cls-2" d="M988.23,256.15c-1.06-.74,1.45-1.85,2-1.45C991.25,255.44,988.78,256.55,988.23,256.15Z"/><path class="cls-2" d="M800.31,257.61a1,1,0,0,1,2,0A1,1,0,0,1,800.31,257.61Z"/><path class="cls-2" d="M1212.11,257.61a1,1,0,0,1,2,0A1,1,0,0,1,1212.11,257.61Z"/><path class="cls-2" d="M914.25,260.52c-1-.75,1.45-1.86,2-1.46C917.27,259.83,914.8,260.92,914.25,260.52Z"/><path class="cls-2" d="M1202.13,260.52c-1.06-.75,1.46-1.86,2-1.46C1205.16,259.83,1202.68,260.92,1202.13,260.52Z"/><path class="cls-2" d="M1310.08,262c-1-.74,1.46-1.85,2-1.45C1313.11,261.29,1310.63,262.37,1310.08,262Z"/><path class="cls-2" d="M1328.07,262c-1-.74,1.45-1.85,2-1.45C1331.09,261.29,1328.62,262.37,1328.07,262Z"/><path class="cls-2" d="M1404,262c-1-.74,1.45-1.85,2-1.45C1407.08,261.29,1404.61,262.37,1404,262Z"/><path class="cls-2" d="M1314.09,263.42c1-2.22,2.08-.08,2,1.46C1315,267.13,1314,265,1314.09,263.42Z"/><path class="cls-2" d="M950.22,266.34c-1-.75,1.45-1.86,2-1.46C953.28,265.65,950.77,266.76,950.22,266.34Z"/><path class="cls-2" d="M266.53,267.79c-1-.74,1.45-1.85,2-1.45C269.56,267.1,267.08,268.22,266.53,267.79Z"/><path class="cls-2" d="M878.26,266.34h4v2.93h-4Z"/><path class="cls-2" d="M1168.13,267.79a1,1,0,0,1,2,0A1,1,0,0,1,1168.13,267.79Z"/><path class="cls-2" d="M1202.13,267.79c-1.06-.74,1.46-1.85,2-1.45C1205.16,267.1,1202.68,268.22,1202.13,267.79Z"/><path class="cls-2" d="M1308.08,267.79c-1-.74,1.46-1.85,2-1.45C1311.11,267.1,1308.63,268.22,1308.08,267.79Z"/><path class="cls-2" d="M526.42,269.27c-1-.77,1.45-1.88,2-1.48C529.44,268.56,527,269.67,526.42,269.27Z"/><path class="cls-2" d="M1342.05,269.27c1.06-2.25,2.08-.11,2,1.46C1343,273,1342,270.81,1342.05,269.27Z"/><path class="cls-2" d="M214.56,269.27h4v2.91h-4Z"/><path class="cls-2" d="M236.55,270.73a1,1,0,0,1,2,0A1,1,0,0,1,236.55,270.73Z"/><path class="cls-2" d="M900.23,273.64a1,1,0,0,1,2,0A1,1,0,0,1,900.23,273.64Z"/><path class="cls-2" d="M1312.09,273.64c-1.06-.77,1.45-1.86,2-1.46C1315.11,272.92,1312.64,274,1312.09,273.64Z"/><path class="cls-2" d="M1360,273.64a1,1,0,0,1,2,0A1,1,0,0,1,1360,273.64Z"/><path class="cls-2" d="M1446,273.64c-1.07-.77,1.41-1.86,2-1.46C1449.06,272.92,1446.59,274,1446,273.64Z"/><path class="cls-2" d="M1506,273.64c7-1.32,3.42,4.73,2,5.82C1505.29,279,1506.31,275.81,1506,273.64Z"/><path class="cls-2" d="M924.26,279.46c-1.06-.74,1.41-1.86,2-1.46C927.28,278.74,924.81,279.85,924.26,279.46Z"/><path class="cls-2" d="M1338,279.46c-1-.74,1.46-1.86,2-1.46C1341.11,278.74,1338.63,279.85,1338,279.46Z"/><path class="cls-2" d="M224.55,280.91c-1-.74,1.44-1.85,2-1.45C227.58,280.2,225.1,281.31,224.55,280.91Z"/><path class="cls-2" d="M1214.11,285.28c-1-.75,1.45-1.86,2-1.46C1217.13,284.59,1214.66,285.68,1214.11,285.28Z"/><path class="cls-2" d="M1234.1,285.28c-1-.75,1.45-1.86,2-1.46C1237.16,284.59,1234.65,285.68,1234.1,285.28Z"/><path class="cls-2" d="M1326.07,291.09c-1-.74,1.45-1.85,2-1.45C1329.09,290.41,1326.62,291.52,1326.07,291.09Z"/><path class="cls-2" d="M1244.11,298.4c-1.06-.77,1.45-1.86,2-1.46C1247.13,297.68,1244.66,298.8,1244.11,298.4Z"/><path class="cls-2" d="M1312.09,304.21c-1.06-.74,1.45-1.85,2-1.45C1315.11,303.5,1312.64,304.62,1312.09,304.21Z"/><path class="cls-2" d="M1356.07,304.21c-1.06-.74,1.41-1.85,2-1.45C1359.09,303.5,1356.62,304.62,1356.07,304.21Z"/><path class="cls-2" d="M1360,304.21c-1-.74,1.46-1.85,2-1.45C1363.1,303.5,1360.63,304.62,1360,304.21Z"/><path class="cls-2" d="M1226.12,305.67c-1-.74,1.42-1.85,2-1.46C1229.15,305,1226.67,306.07,1226.12,305.67Z"/><path class="cls-2" d="M1164.12,307.12a1,1,0,0,1,2,0A1,1,0,0,1,1164.12,307.12Z"/><path class="cls-2" d="M1352.06,307.12a1,1,0,0,1,2,0A1,1,0,0,1,1352.06,307.12Z"/><path class="cls-2" d="M800.31,311.49c-1-.74,1.43-1.85,2-1.46C803.33,310.8,800.86,311.89,800.31,311.49Z"/><path class="cls-2" d="M354.5,315.85c-1-.74,1.43-1.85,2-1.45C357.52,315.17,355,316.28,354.5,315.85Z"/><path class="cls-2" d="M1332.08,317.31c-1.07-.74,1.45-1.86,2-1.46C1335.1,316.62,1332.63,317.74,1332.08,317.31Z"/><path class="cls-2" d="M362.49,323.16c-1-.77,1.45-1.86,2-1.46C365.53,322.44,363,323.55,362.49,323.16Z"/><path class="cls-2" d="M1048.19,324.61a1,1,0,0,1,2,0A1,1,0,0,1,1048.19,324.61Z"/><path class="cls-2" d="M1000.21,327.52c-1-.77,1.45-1.85,2-1.45C1003.23,326.81,1000.76,327.92,1000.21,327.52Z"/><path class="cls-2" d="M610.38,329c3.88-.57,2.92,6.64-2,4.36v-2.91C610.08,330.69,610.26,329.86,610.38,329Z"/><path class="cls-2" d="M1516,331.88a1,1,0,0,1,2,0A1,1,0,0,1,1516,331.88Z"/><path class="cls-2" d="M1414,334.79c-1-.74,1.45-1.85,2-1.45C1417.06,334.11,1414.58,335.19,1414,334.79Z"/><path class="cls-2" d="M290.52,336.25c-1-.74,1.44-1.86,2-1.46C293.55,335.56,291.07,336.65,290.52,336.25Z"/><path class="cls-2" d="M370.48,336.25h4v2.91h-4Z"/><path class="cls-2" d="M960.23,337.7a1,1,0,0,1,2,0A1,1,0,0,1,960.23,337.7Z"/><path class="cls-2" d="M984.22,340.61c-1-.74,1.46-1.85,2-1.45C987.25,339.93,984.77,341,984.22,340.61Z"/><path class="cls-2" d="M1296.07,340.61c-1-.74,1.45-1.85,2-1.45C1299.13,339.93,1296.62,341,1296.07,340.61Z"/><path class="cls-2" d="M92.61,343.55a1,1,0,0,1,2,0A1,1,0,0,1,92.61,343.55Z"/><path class="cls-2" d="M280.53,346.46a1,1,0,0,1,2,0A1,1,0,0,1,280.53,346.46Z"/><path class="cls-2" d="M1272.11,346.46c-1.06-.77,1.42-1.85,2-1.45C1275.13,345.75,1272.66,346.86,1272.11,346.46Z"/><path class="cls-2" d="M1288.09,346.46c-1.06-.77,1.46-1.85,2-1.45C1291.12,345.75,1288.64,346.86,1288.09,346.46Z"/><path class="cls-2" d="M1424,346.46c-1-.77,1.42-1.85,2-1.45C1427.07,345.75,1424.6,346.86,1424,346.46Z"/><path class="cls-2" d="M360.48,349.37c1.07-2.25,2.08-.09,2,1.45C361.43,353.05,360.4,350.91,360.48,349.37Z"/><path class="cls-2" d="M718.33,349.37a1,1,0,0,1,2,0A1,1,0,0,1,718.33,349.37Z"/><path class="cls-2" d="M1212.11,349.37a1,1,0,0,1,2,0A1,1,0,0,1,1212.11,349.37Z"/><path class="cls-2" d="M1300.07,349.37a1,1,0,0,1,2,0A1,1,0,0,1,1300.07,349.37Z"/><path class="cls-2" d="M1420,349.37a1,1,0,0,1,2,0A1,1,0,0,1,1420,349.37Z"/><path class="cls-2" d="M120.59,352.28c-1-.77,1.45-1.85,2-1.46C123.63,351.57,121.15,352.68,120.59,352.28Z"/><path class="cls-2" d="M702.35,358.1c-1-.74,1.43-1.86,2-1.45C705.37,357.41,702.9,358.5,702.35,358.1Z"/><path class="cls-2" d="M1438,358.1a1,1,0,0,1,2,0A1,1,0,0,1,1438,358.1Z"/><path class="cls-2" d="M136.59,359.55c-1-.74,1.43-1.85,2-1.45C139.61,358.87,137.14,360,136.59,359.55Z"/><path class="cls-2" d="M916.25,359.55c-1-.74,1.45-1.85,2-1.45C919.27,358.87,916.8,360,916.25,359.55Z"/><path class="cls-2" d="M1410,359.55c1.57-2.65,2.16.89,2,2.91C1410.5,365.14,1409.87,361.61,1410,359.55Z"/><path class="cls-2" d="M100.6,361c-1-.74,1.45-1.86,2-1.46"/><path class="cls-2" d="M1168.13,361c-1-.74,1.45-1.86,2-1.46C1171.19,360.32,1168.67,361.41,1168.13,361Z"/><path class="cls-2" d="M146.58,366.86c.06-1.43,2.46-1.15,4-1.49C150.53,366.8,148.13,366.51,146.58,366.86Z"/><path class="cls-2" d="M1168.13,366.86c-1-.77,1.45-1.89,2-1.49C1171.19,366.14,1168.67,367.25,1168.13,366.86Z"/><path class="cls-2" d="M1270.11,366.86c-1.06-.77,1.41-1.89,2-1.49C1273.13,366.14,1270.66,367.25,1270.11,366.86Z"/><path class="cls-2" d="M252.53,368.31a1,1,0,0,1,2,0A1,1,0,0,1,252.53,368.31Z"/><path class="cls-2" d="M1080.16,368.31a1,1,0,0,1,2,0A1,1,0,0,1,1080.16,368.31Z"/><path class="cls-2" d="M324.49,371.22c1.57-2.65,2.16.86,2,2.91C325,376.78,324.35,373.24,324.49,371.22Z"/><path class="cls-2" d="M700.34,371.22c-1-.77,1.44-1.88,2-1.45C703.37,370.51,700.89,371.62,700.34,371.22Z"/><path class="cls-2" d="M930.23,371.22a1,1,0,0,1,2,0A1,1,0,0,1,930.23,371.22Z"/><path class="cls-2" d="M150.59,372.67c-1-.77,1.43-1.85,2-1.45C153.61,372,151.14,373.08,150.59,372.67Z"/><path class="cls-2" d="M934.24,372.67c-1-.77,1.45-1.85,2-1.45C937.26,372,934.78,373.08,934.24,372.67Z"/><path class="cls-2" d="M1596,374.13c-1.06,2.23-2.12.08-2-1.46"/><path class="cls-2" d="M700.34,372.67c5.84-2.14,5.84,6.51,0,4.37Z"/><path class="cls-2" d="M924.26,374.13a1,1,0,0,1,2,0A1,1,0,0,1,924.26,374.13Z"/><path class="cls-2" d="M1298.07,374.13a1,1,0,0,1,2,0A1,1,0,0,1,1298.07,374.13Z"/><path class="cls-2" d="M652.36,377c-1-.74,1.45-1.86,2-1.46C655.4,376.33,652.91,377.44,652.36,377Z"/><path class="cls-2" d="M1282.08,377c-1-.74,1.46-1.86,2-1.46C1285.11,376.33,1282.63,377.44,1282.08,377Z"/><path class="cls-2" d="M1517.07,650.37a1,1,0,0,1,2,0A1,1,0,0,1,1517.07,650.37Z"/><path class="cls-2" d="M1487.11,667.86c-1.06-.77,1.41-1.89,2-1.49C1490.13,667.14,1487.66,668.25,1487.11,667.86Z"/><path class="cls-2" d="M1499.08,678c-1-.74,1.46-1.86,2-1.46C1502.11,677.33,1499.63,678.44,1499.08,678Z"/><path class="cls-2" d="M888.25,378.49c-1-.74,1.45-1.85,2-1.45C891.29,377.78,888.82,378.89,888.25,378.49Z"/><path class="cls-2" d="M1086.17,378.49c1.06-2.25,2.08-.08,2,1.46C1087.11,382.2,1086.09,380,1086.17,378.49Z"/><path class="cls-2" d="M272.52,380a1,1,0,0,1,2,0A1,1,0,0,1,272.52,380Z"/><path class="cls-2" d="M1082.16,380a1,1,0,0,1,2,0A1,1,0,0,1,1082.16,380Z"/><path class="cls-2" d="M1272.11,380a1,1,0,0,1,2,0A1,1,0,0,1,1272.11,380Z"/><path class="cls-2" d="M1390,382.86c-1-.74,1.45-1.86,2-1.46C1393.06,382.17,1390.59,383.26,1390,382.86Z"/><path class="cls-2" d="M88.6,385.77a1,1,0,0,1,2,0A1,1,0,0,1,88.6,385.77Z"/><path class="cls-2" d="M1402.05,388.68c-1.06-.75,1.42-1.86,2-1.46C1405.08,388,1402.6,389.08,1402.05,388.68Z"/><path class="cls-2" d="M890.25,390.13c-1-.74,1.45-1.85,2-1.45C893.3,389.45,890.8,390.56,890.25,390.13Z"/><path class="cls-2" d="M1174.13,393.07a1,1,0,0,1,2,0A1,1,0,0,1,1174.13,393.07Z"/><path class="cls-2" d="M1224.12,393.07a1,1,0,0,1,2,0A1,1,0,0,1,1224.12,393.07Z"/><path class="cls-2" d="M1426,398.89c1.06-2.25,2.12-.09,2,1.45C1427,402.6,1425.93,400.43,1426,398.89Z"/><path class="cls-2" d="M1086.17,403.25c-1-.74,1.45-1.85,2-1.45C1089.19,402.54,1086.72,403.65,1086.17,403.25Z"/><path class="cls-2" d="M982.22,404.71a1,1,0,0,1,2,0A1,1,0,0,1,982.22,404.71Z"/><path class="cls-2" d="M1212.11,407.62c-1-.74,1.45-1.86,2-1.46C1215.17,406.93,1212.66,408,1212.11,407.62Z"/><path class="cls-2" d="M828.28,409.07c-1-.74,1.46-1.85,2-1.45C831.31,408.39,828.84,409.47,828.28,409.07Z"/><path class="cls-2" d="M834.27,409.07c-1-.74,1.45-1.85,2-1.45C837.32,408.39,834.84,409.47,834.27,409.07Z"/><path class="cls-2" d="M304.51,410.53a1,1,0,0,1,2,0A1,1,0,0,1,304.51,410.53Z"/><path class="cls-2" d="M1192.12,410.53c1.06-2.23,2.08-.09,2,1.45C1193.06,414.23,1192,412.1,1192.12,410.53Z"/><path class="cls-2" d="M900.23,413.44c-1-.75,1.49-1.86,2-1.46C903.29,412.75,900.78,413.86,900.23,413.44Z"/><path class="cls-2" d="M1212.11,413.44c3-5.14,3.8,2.68,2,2.91C1212.93,416.52,1211.6,414.32,1212.11,413.44Z"/><path class="cls-2" d="M1186.11,414.92a1,1,0,0,1,2,0A1,1,0,0,1,1186.11,414.92Z"/><path class="cls-2" d="M1558,414.92c-1-.77,1.46-1.88,2-1.48C1561,414.21,1558.51,415.32,1558,414.92Z"/><path class="cls-2" d="M1188.11,420.74c-1-.77,1.46-1.86,2-1.46C1191.18,420,1188.66,421.14,1188.11,420.74Z"/><path class="cls-2" d="M88.6,422.19c-1-.77,1.45-1.85,2-1.45C91.64,421.48,89.15,422.59,88.6,422.19Z"/><path class="cls-2" d="M1048.19,422.19c-1-.77,1.46-1.85,2-1.45C1051.22,421.48,1048.74,422.59,1048.19,422.19Z"/><path class="cls-2" d="M1212.11,422.19c-1-.77,1.45-1.85,2-1.45C1215.17,421.48,1212.66,422.59,1212.11,422.19Z"/><path class="cls-2" d="M1300.07,422.19c-1-.77,1.45-1.85,2-1.45C1303.09,421.48,1300.62,422.59,1300.07,422.19Z"/><path class="cls-2" d="M1244.11,426.56c-1.06-.77,1.45-1.86,2-1.46C1247.13,425.84,1244.66,427,1244.11,426.56Z"/><path class="cls-2" d="M40.63,428c-1-.74,1.43-1.85,2-1.45C43.66,427.3,41.18,428.41,40.63,428Z"/><path class="cls-2" d="M1174.13,428c-1-.74,1.46-1.85,2-1.45C1177.16,427.3,1174.68,428.41,1174.13,428Z"/><path class="cls-2" d="M1240.11,429.47a1,1,0,0,1,2,0A1,1,0,0,1,1240.11,429.47Z"/><path class="cls-2" d="M1244.11,429.47a1,1,0,0,1,2,0A1,1,0,0,1,1244.11,429.47Z"/><path class="cls-2" d="M78.61,432.38c-1-.75,1.45-1.86,2-1.46C81.65,431.69,79.16,432.78,78.61,432.38Z"/><path class="cls-2" d="M1412,432.38c-1-.75,1.45-1.86,2-1.46C1415.05,431.69,1412.58,432.78,1412,432.38Z"/><path class="cls-2" d="M1106.15,433.83c-1-.74,1.46-1.85,2-1.45C1109.18,433.15,1106.71,434.23,1106.15,433.83Z"/><path class="cls-2" d="M1190.11,433.83c-1-.74,1.46-1.85,2-1.45C1193.18,433.15,1190.66,434.23,1190.11,433.83Z"/><path class="cls-2" d="M1212.11,433.83c1.06-2.22,2.08-.08,2,1.45C1213.05,437.54,1212,435.4,1212.11,433.83Z"/><path class="cls-2" d="M1300.07,435.28a1,1,0,0,1,2,0A1,1,0,0,1,1300.07,435.28Z"/><path class="cls-2" d="M1384,435.28c1.06-2.22,2.08-.08,2,1.46C1385,439,1384,436.85,1384,435.28Z"/><path class="cls-2" d="M686.34,438.19a1,1,0,0,1,2,0A1,1,0,0,1,686.34,438.19Z"/><path class="cls-2" d="M960.23,438.19c-1-.74,1.45-1.85,2-1.45C963.25,437.51,960.78,438.62,960.23,438.19Z"/><path class="cls-2" d="M126.59,439.68c-1-.77,1.44-1.88,2-1.49C129.62,439,127.15,440.08,126.59,439.68Z"/><path class="cls-2" d="M706.33,441.13a1,1,0,0,1,2,0A1,1,0,0,1,706.33,441.13Z"/><path class="cls-2" d="M1080.16,441.13c1.06-2.25,2.08-.11,2,1.46C1081.1,444.81,1080.08,442.67,1080.16,441.13Z"/><path class="cls-2" d="M22.63,444c-1-.77,1.45-1.85,2-1.45C25.67,443.33,23.2,444.44,22.63,444Z"/><path class="cls-2" d="M122.59,444c-1-.77,1.45-1.85,2-1.45C125.63,443.33,123.14,444.44,122.59,444Z"/><path class="cls-2" d="M516.42,444c-1-.77,1.44-1.85,2-1.45C519.45,443.33,517,444.44,516.42,444Z"/><path class="cls-2" d="M956.22,444c-1-.77,1.46-1.85,2-1.45C959.25,443.33,956.77,444.44,956.22,444Z"/><path class="cls-2" d="M1008.22,444c-1.06-.77,1.45-1.85,2-1.45C1011.24,443.33,1008.77,444.44,1008.22,444Z"/><path class="cls-2" d="M1398.05,444c-1.06-.77,1.45-1.85,2-1.45C1401.07,443.33,1398.6,444.44,1398.05,444Z"/><path class="cls-2" d="M680.36,445.5c-1.05-.77,1.43-1.86,2-1.46C683.38,444.78,680.9,445.9,680.36,445.5Z"/><path class="cls-2" d="M1190.11,445.5c-1-.77,1.46-1.86,2-1.46C1193.18,444.78,1190.66,445.9,1190.11,445.5Z"/><path class="cls-2" d="M1194.12,445.5c-1-.77,1.46-1.86,2-1.46C1197.14,444.78,1194.67,445.9,1194.12,445.5Z"/><path class="cls-2" d="M1200.13,445.5c-1.06-.77,1.45-1.86,2-1.46C1203.15,444.78,1200.68,445.9,1200.13,445.5Z"/><path class="cls-2" d="M1232.1,445.5c-1-.77,1.45-1.86,2-1.46C1235.16,444.78,1232.65,445.9,1232.1,445.5Z"/><path class="cls-2" d="M50.63,447c-1.05-.77,1.43-1.85,2-1.45C53.65,446.24,51.18,447.35,50.63,447Z"/><path class="cls-2" d="M1212.11,448.41a1,1,0,0,1,2,0A1,1,0,0,1,1212.11,448.41Z"/><path class="cls-2" d="M1202.13,451.32c-1.06-.74,1.46-1.86,2-1.46C1205.16,450.6,1202.68,451.71,1202.13,451.32Z"/><path class="cls-2" d="M116.6,452.77c-1-.74,1.43-1.85,2-1.45C119.62,452.06,117.15,453.17,116.6,452.77Z"/><path class="cls-2" d="M1058.17,452.77c1.06-2.25,2.08-.09,2,1.46C1059.11,456.48,1058.09,454.31,1058.17,452.77Z"/><path class="cls-2" d="M1102.15,468.8c-7.23-5.56,1.57-10.35-2-16"/><path class="cls-2" d="M1208.1,452.77c-1-.74,1.45-1.85,2-1.45C1211.17,452.06,1208.69,453.17,1208.1,452.77Z"/><path class="cls-2" d="M654.36,454.23a1,1,0,0,1,2,0A1,1,0,0,1,654.36,454.23Z"/><path class="cls-2" d="M1206.14,458.59c-1.06-.74,1.41-1.85,2-1.45C1209.16,457.9,1206.69,459,1206.14,458.59Z"/><path class="cls-2" d="M1318.06,457.14c1,.76-1.42,1.85-2,1.45"/><path class="cls-2" d="M1534,458.59c1.06-2.23,2.08-.08,2,1.46C1534.91,462.3,1533.88,460.16,1534,458.59Z"/><path class="cls-2" d="M1242.11,460.05a1,1,0,0,1,2,0A1,1,0,0,1,1242.11,460.05Z"/><path class="cls-2" d="M1248.12,460.05a1,1,0,0,1,2,0A1,1,0,0,1,1248.12,460.05Z"/><path class="cls-2" d="M284.52,463c-1-.74,1.45-1.85,2-1.45C287.56,462.27,285.07,463.38,284.52,463Z"/><path class="cls-2" d="M1194.12,463a1,1,0,0,1,2,0A1,1,0,0,1,1194.12,463Z"/><path class="cls-2" d="M666.35,464.41c-1-.74,1.46-1.86,2-1.46C669.38,463.73,666.91,464.84,666.35,464.41Z"/><path class="cls-2" d="M124.59,465.89a1,1,0,0,1,2,0A1,1,0,0,1,124.59,465.89Z"/><path class="cls-2" d="M1432,468.8c-1-.77,1.45-1.85,2-1.45C1435,468.09,1432.57,469.2,1432,468.8Z"/><path class="cls-2" d="M668.36,470.26c-1-.77,1.43-1.86,2-1.46C671.38,469.54,668.91,470.66,668.36,470.26Z"/><path class="cls-2" d="M1244.11,473.17v-2.91h4"/><path class="cls-2" d="M1316.05,471.71a1,1,0,0,1,2,0A1,1,0,0,1,1316.05,471.71Z"/><path class="cls-2" d="M1446,471.71a1,1,0,0,1,2,0A1,1,0,0,1,1446,471.71Z"/><path class="cls-2" d="M302.52,474.62c-1-.77,1.43-1.85,2-1.45C305.55,473.91,303.07,475,302.52,474.62Z"/><path class="cls-2" d="M1542,474.62c-1-.77,1.46-1.85,2-1.45C1545,473.91,1542.52,475,1542,474.62Z"/><path class="cls-2" d="M24.63,476.07c-1-.74,1.45-1.85,2-1.45C27.67,475.36,25.18,476.48,24.63,476.07Z"/><path class="cls-2" d="M34.63,479c1-2.22,2.09-.08,2,1.46C35.57,482.69,34.54,480.53,34.63,479Z"/><path class="cls-2" d="M670.34,479c1.57-2.65,2.16.89,2,2.91C670.79,484.55,670.2,481,670.34,479Z"/><path class="cls-2" d="M602.38,481.89c-1-.74,1.44-1.85,2-1.45C605.41,481.21,602.94,482.29,602.38,481.89Z"/><path class="cls-2" d="M1300.07,481.89c-1-.74,1.45-1.85,2-1.45C1303.09,481.21,1300.62,482.29,1300.07,481.89Z"/><path class="cls-2" d="M568.4,483.35c-1-.74,1.45-1.85,2-1.46C571.42,482.66,569,483.75,568.4,483.35Z"/><path class="cls-2" d="M32.62,484.8a1,1,0,0,1,2,0A1,1,0,0,1,32.62,484.8Z"/><path class="cls-2" d="M38.63,484.8a1,1,0,0,1,2,0A1,1,0,0,1,38.63,484.8Z"/><path class="cls-2" d="M1300.07,487.71c-1-.74,1.45-1.85,2-1.45C1303.09,487,1300.62,488.14,1300.07,487.71Z"/><path class="cls-2" d="M1256.09,489.2c1.57-2.69,2.16.85,2,2.9C1256.56,494.76,1255.93,491.22,1256.09,489.2Z"/><path class="cls-2" d="M1440,490.65a1,1,0,0,1,2,0A1,1,0,0,1,1440,490.65Z"/><path class="cls-2" d="M28.63,493.56c-1-.77,1.46-1.88,2-1.46C31.66,492.85,29.18,494,28.63,493.56Z"/><path class="cls-2" d="M1000.21,493.56c-1-.77,1.45-1.88,2-1.46C1003.23,492.85,1000.76,494,1000.21,493.56Z"/><path class="cls-2" d="M1232.1,495c1.05-2.26,2.07-.09,2,1.45C1233,498.69,1232,496.56,1232.1,495Z"/><path class="cls-2" d="M1577.94,495c-1-.77,1.46-1.86,2-1.46C1581,494.3,1578.53,495.41,1577.94,495Z"/><path class="cls-2" d="M668.36,499.38c-1-.74,1.43-1.85,2-1.45C671.38,498.67,668.91,499.78,668.36,499.38Z"/><path class="cls-2" d="M1228.13,499.38c-1.06-.74,1.41-1.85,2-1.45C1231.15,498.67,1228.68,499.78,1228.13,499.38Z"/><path class="cls-2" d="M702.35,500.84c-1-.75,1.43-1.86,2-1.46C705.37,500.12,702.9,501.23,702.35,500.84Z"/><path class="cls-2" d="M1220.12,500.84c-1-.75,1.45-1.86,2-1.46C1223.14,500.12,1220.67,501.23,1220.12,500.84Z"/><path class="cls-2" d="M1234.1,499.38c3.53.34,4.55,2.51,4,5.82C1234.61,504.86,1233.55,502.69,1234.1,499.38Z"/><path class="cls-2" d="M134.58,502.29a1,1,0,0,1,2,0A1,1,0,0,1,134.58,502.29Z"/><path class="cls-2" d="M198.55,502.29a1,1,0,0,1,2,0A1,1,0,0,1,198.55,502.29Z"/><path class="cls-2" d="M1250.12,505.2c-1.06-.74,1.41-1.86,2-1.46C1253.14,504.52,1250.67,505.6,1250.12,505.2Z"/><path class="cls-2" d="M34.63,506.65c-1-.74,1.45-1.85,2-1.45C37.67,506,35.17,507.05,34.63,506.65Z"/><path class="cls-2" d="M700.34,506.65c-1-.74,1.44-1.85,2-1.45C703.37,506,700.89,507.05,700.34,506.65Z"/><path class="cls-2" d="M188.56,509.56a1,1,0,0,1,2,0A1,1,0,0,1,188.56,509.56Z"/><path class="cls-2" d="M576.39,509.56a1,1,0,0,1,2,0A1,1,0,0,1,576.39,509.56Z"/><path class="cls-2" d="M594.39,509.56a1,1,0,0,1,2,0A1,1,0,0,1,594.39,509.56Z"/><path class="cls-2" d="M1574,514c-1.06-.77,1.41-1.89,2-1.49C1577,513.24,1574.53,514.36,1574,514Z"/><path class="cls-2" d="M32.62,515.41c1.06-2.25,2.1-.11,2,1.46C33.56,519.09,32.54,517,32.62,515.41Z"/><path class="cls-2" d="M602.38,515.41a1,1,0,0,1,2,0A1,1,0,0,1,602.38,515.41Z"/><path class="cls-2" d="M836.28,515.41a1,1,0,0,1,2,0A1,1,0,0,1,836.28,515.41Z"/><path class="cls-2" d="M1226.12,515.41a1,1,0,0,1,2,0A1,1,0,0,1,1226.12,515.41Z"/><path class="cls-2" d="M1528,515.41a1,1,0,0,1,2,0A1,1,0,0,1,1528,515.41Z"/><path class="cls-2" d="M1088.17,518.32c-1-.77,1.45-1.85,2-1.45C1091.2,517.61,1088.72,518.72,1088.17,518.32Z"/><path class="cls-2" d="M1554,518.32c-1.06-.77,1.41-1.85,2-1.45C1557,517.61,1554.54,518.72,1554,518.32Z"/><path class="cls-2" d="M64.63,519.77c-1-.77,1.43-1.85,2-1.45C67.65,519.06,65.17,520.17,64.63,519.77Z"/><path class="cls-2" d="M812.28,519.77c-1-.77,1.46-1.85,2-1.45C815.32,519.06,812.85,520.17,812.28,519.77Z"/><path class="cls-2" d="M32.62,521.23a1,1,0,0,1,2,0A1,1,0,0,1,32.62,521.23Z"/><path class="cls-2" d="M1080.16,521.23a1,1,0,0,1,2,0A1,1,0,0,1,1080.16,521.23Z"/><path class="cls-2" d="M992.2,524.14c-1-.74,1.45-1.85,2-1.46C995.26,523.43,992.79,524.54,992.2,524.14Z"/><path class="cls-2" d="M1270.11,524.14c-1.06-.74,1.41-1.85,2-1.46C1273.13,523.43,1270.66,524.54,1270.11,524.14Z"/><path class="cls-2" d="M1420,525.59c-1.06-.74,1.45-1.85,2-1.45C1423.06,524.88,1420.59,526,1420,525.59Z"/><path class="cls-2" d="M1094.18,525.59c1.53,2.29,6.32,2.17,6,5.82C1094.89,531.87,1093.59,529.42,1094.18,525.59Z"/><path class="cls-2" d="M1254.09,527.05a1,1,0,0,1,2,0A1,1,0,0,1,1254.09,527.05Z"/><path class="cls-2" d="M1282.08,527.05a1,1,0,0,1,2,0A1,1,0,0,1,1282.08,527.05Z"/><path class="cls-2" d="M824.28,530c-1-.74,1.45-1.86,2-1.46C827.32,529.27,824.83,530.36,824.28,530Z"/><path class="cls-2" d="M1568,530c-1-.74,1.45-1.86,2-1.46C1571,529.27,1568.52,530.36,1568,530Z"/><path class="cls-2" d="M196.55,534.32a1,1,0,0,1,2,0A1,1,0,0,1,196.55,534.32Z"/><path class="cls-2" d="M224.55,537.26c-1-.77,1.44-1.88,2-1.48C227.58,536.55,225.1,537.66,224.55,537.26Z"/><path class="cls-2" d="M1244.11,537.26c-1.06-.77,1.45-1.88,2-1.48C1247.13,536.55,1244.66,537.66,1244.11,537.26Z"/><path class="cls-2" d="M52.63,544.54c-1-.78,1.43-1.86,2-1.46C55.65,543.82,53.18,544.93,52.63,544.54Z"/><path class="cls-2" d="M466.44,544.54c-1-.78,1.45-1.86,2-1.46C469.48,543.82,467,544.93,466.44,544.54Z"/><path class="cls-2" d="M150.59,546a1,1,0,0,1,2,0A1,1,0,0,1,150.59,546Z"/><path class="cls-2" d="M1446,544.54c2.16.34,1.33,2.88,4,2.9C1449.14,551.47,1443.72,547.53,1446,544.54Z"/><path class="cls-2" d="M22.63,551.81a1,1,0,0,1,2,0A1,1,0,0,1,22.63,551.81Z"/><path class="cls-2" d="M414.46,551.81a1,1,0,0,1,2,0A1,1,0,0,1,414.46,551.81Z"/><path class="cls-2" d="M920.25,551.81a1,1,0,0,1,2,0A1,1,0,0,1,920.25,551.81Z"/><path class="cls-2" d="M186.56,554.72c-1-.74,1.45-1.86,2-1.46C189.6,554,187.11,555.12,186.56,554.72Z"/><path class="cls-2" d="M212.56,554.72c-1.05-.74,1.43-1.86,2-1.46C215.58,554,213.1,555.12,212.56,554.72Z"/><path class="cls-2" d="M1248.12,554.72c-1.06-.74,1.41-1.86,2-1.46C1251.14,554,1248.67,555.12,1248.12,554.72Z"/><path class="cls-2" d="M908.24,556.17c-1-.74,1.45-1.85,2-1.45C911.3,555.49,908.79,556.57,908.24,556.17Z"/><path class="cls-2" d="M84.61,559.08c-1.7-.26-1.88.57-2,1.46"/><path class="cls-2" d="M1194.12,557.63c1.06-2.23,2.08-.09,2,1.45C1195.06,561.34,1194,559.2,1194.12,557.63Z"/><path class="cls-2" d="M172.56,560.54c-1-.75,1.45-1.86,2-1.46C175.6,559.85,173.13,561,172.56,560.54Z"/><path class="cls-2" d="M1530,562a1,1,0,0,1,2,0A1,1,0,0,1,1530,562Z"/><path class="cls-2" d="M614.38,564.93a1,1,0,0,1,2,0A1,1,0,0,1,614.38,564.93Z"/><path class="cls-2" d="M1032.21,567.84c-1.06-.77,1.41-1.86,2-1.46C1035.24,567.13,1032.76,568.24,1032.21,567.84Z"/><path class="cls-2" d="M1244.11,567.84c-1.06-.77,1.45-1.86,2-1.46C1247.13,567.13,1244.66,568.24,1244.11,567.84Z"/><path class="cls-2" d="M1262.1,569.29c-1-.77,1.45-1.85,2-1.45C1265.12,568.58,1262.64,569.69,1262.1,569.29Z"/><path class="cls-2" d="M1098.18,573.66c-1.06-.75,1.42-1.86,2-1.46C1101.21,572.94,1098.74,574.06,1098.18,573.66Z"/><path class="cls-2" d="M610.38,575.11c-1-.74,1.45-1.85,2-1.45C613.42,574.4,610.93,575.51,610.38,575.11Z"/><path class="cls-2" d="M1076.19,575.11c-1-.74,1.42-1.85,2-1.45C1079.22,574.4,1076.74,575.51,1076.19,575.11Z"/><path class="cls-2" d="M388.48,576.57a1,1,0,0,1,2,0A1,1,0,0,1,388.48,576.57Z"/><path class="cls-2" d="M492.43,576.57a1,1,0,0,1,2,0A1,1,0,0,1,492.43,576.57Z"/><path class="cls-2" d="M1132.15,576.57a1,1,0,0,1,2,0A1,1,0,0,1,1132.15,576.57Z"/><path class="cls-2" d="M1212.11,576.57a1,1,0,0,1,2,0A1,1,0,0,1,1212.11,576.57Z"/><path class="cls-2" d="M1532,576.57c1-2.23,2.08-.09,2,1.45C1532.9,580.28,1531.88,578.11,1532,576.57Z"/><path class="cls-2" d="M1264.1,579.48c-1-.74,1.45-1.86,2-1.46C1267.12,578.79,1264.65,579.88,1264.1,579.48Z"/><path class="cls-2" d="M1356.07,580.93c-1.06-.74,1.41-1.85,2-1.45C1359.09,580.25,1356.62,581.33,1356.07,580.93Z"/><path class="cls-2" d="M1448,580.93c1.06-2.22,2.12-.09,2,1.46C1448.94,584.64,1447.92,582.5,1448,580.93Z"/><path class="cls-2" d="M1552,580.93c1-2.22,2.08-.09,2,1.46C1552.93,584.64,1551.87,582.5,1552,580.93Z"/><path class="cls-2" d="M450.45,585.3c-1-.75,1.43-1.86,2-1.46C453.48,584.61,451,585.72,450.45,585.3Z"/><path class="cls-2" d="M592.39,586.75c-1-.74,1.43-1.85,2-1.45C595.42,586.06,592.94,587.18,592.39,586.75Z"/><path class="cls-2" d="M418.47,591.14c-1.05-.77,1.43-1.85,2-1.45C421.49,590.43,419,591.54,418.47,591.14Z"/><path class="cls-2" d="M614.38,591.14c-1-.77,1.44-1.85,2-1.45C617.4,590.43,614.93,591.54,614.38,591.14Z"/><path class="cls-2" d="M456.44,592.6c-1-.77,1.45-1.86,2-1.46C459.48,591.89,457,593,456.44,592.6Z"/><path class="cls-2" d="M460.44,592.6c-1-.77,1.46-1.86,2-1.46C463.47,591.89,461,593,460.44,592.6Z"/><path class="cls-2" d="M418.47,594.05c-1.05-.77,1.43-1.85,2-1.45C421.49,593.34,419,594.45,418.47,594.05Z"/><path class="cls-2" d="M56.61,595.51a1,1,0,0,1,2,0A1,1,0,0,1,56.61,595.51Z"/><path class="cls-2" d="M670.34,598.42c-1-.74,1.46-1.86,2-1.46C673.38,597.7,670.91,598.82,670.34,598.42Z"/><path class="cls-2" d="M1530,598.42a1,1,0,0,1,2,0A1,1,0,0,1,1530,598.42Z"/><path class="cls-2" d="M912.24,599.87c-1-.74,1.46-1.85,2-1.45C915.27,599.16,912.79,600.27,912.24,599.87Z"/><path class="cls-2" d="M1294.06,601.33a1,1,0,0,1,2,0A1,1,0,0,1,1294.06,601.33Z"/><path class="cls-2" d="M432.44,604.24c-1-.75,1.46-1.86,2-1.46C435.49,603.55,433,604.64,432.44,604.24Z"/><path class="cls-2" d="M668.36,604.24c-1-.75,1.43-1.86,2-1.46C671.38,603.55,668.91,604.64,668.36,604.24Z"/><path class="cls-2" d="M770.3,604.24c-1-.75,1.45-1.86,2-1.46C773.35,603.55,770.85,604.64,770.3,604.24Z"/><path class="cls-2" d="M1408,604.24c-1-.75,1.46-1.86,2-1.46C1411.09,603.55,1408.57,604.64,1408,604.24Z"/><path class="cls-2" d="M1174.13,605.69c-1-.74,1.46-1.85,2-1.45C1177.16,605,1174.68,606.09,1174.13,605.69Z"/><path class="cls-2" d="M450.45,607.14a1,1,0,0,1,2,0A1,1,0,0,1,450.45,607.14Z"/><path class="cls-2" d="M1288.09,607.14a1,1,0,0,1,2,0A1,1,0,0,1,1288.09,607.14Z"/><path class="cls-2" d="M1338,607.14a1,1,0,0,1,2,0A1,1,0,0,1,1338,607.14Z"/><path class="cls-2" d="M1436,607.14a1,1,0,0,1,2,0A1,1,0,0,1,1436,607.14Z"/><path class="cls-2" d="M476.43,610.08c-1-.77,1.45-1.88,2-1.48C479.47,609.37,477,610.48,476.43,610.08Z"/><path class="cls-2" d="M532.41,610.08c-1-.77,1.45-1.88,2-1.48C535.45,609.37,533,610.48,532.41,610.08Z"/><path class="cls-2" d="M850.28,617.36c-1-.77,1.45-1.86,2-1.46C853.3,616.64,850.82,617.76,850.28,617.36Z"/><path class="cls-2" d="M1348.06,618.81a1,1,0,0,1,2,0A1,1,0,0,1,1348.06,618.81Z"/><path class="cls-2" d="M1534,618.81a1,1,0,0,1,2,0A1,1,0,0,1,1534,618.81Z"/><path class="cls-2" d="M1038.18,621.72c-1-.74,1.45-1.85,2-1.45C1041.24,621,1038.73,622.12,1038.18,621.72Z"/><path class="cls-2" d="M1048.19,621.72c-1-.74,1.46-1.85,2-1.45"/><path class="cls-2" d="M1452,624.63c1.07-2.25,2.09-.09,2,1.46C1453,628.34,1451.93,626.17,1452,624.63Z"/><path class="cls-2" d="M16.64,626.09a1,1,0,0,1,2,0A1,1,0,0,1,16.64,626.09Z"/><path class="cls-2" d="M1398.05,626.09a1,1,0,0,1,2,0A1,1,0,0,1,1398.05,626.09Z"/><path class="cls-2" d="M956.22,629c-1-.75,1.46-1.86,2-1.46C959.25,628.31,956.77,629.39,956.22,629Z"/><path class="cls-2" d="M1188.11,634.81c-1-.74,1.46-1.85,2-1.45C1191.18,634.13,1188.66,635.24,1188.11,634.81Z"/><path class="cls-2" d="M1450,634.81c-1-.74,1.46-1.85,2-1.45C1453.07,634.13,1450.55,635.24,1450,634.81Z"/><path class="cls-2" d="M720.33,636.3c-1-.77,1.46-1.89,2-1.49C723.36,635.59,720.88,636.7,720.33,636.3Z"/><path class="cls-2" d="M110.59,640.66c1.55-2.65,2.16.86,2,2.91C111,646.22,110.45,642.69,110.59,640.66Z"/><path class="cls-2" d="M1599.93,640.66c-1-.77,1.46-1.85,2-1.45C1603,640,1600.48,641.06,1599.93,640.66Z"/><path class="cls-2" d="M1270.11,642.12c-1.06-.77,1.41-1.86,2-1.46C1273.13,641.4,1270.66,642.52,1270.11,642.12Z"/><path class="cls-2" d="M704.33,643.57a1,1,0,0,1,2,0A1,1,0,0,1,704.33,643.57Z"/><path class="cls-2" d="M936.24,646.48c-1-.74,1.45-1.85,2-1.45C939.26,645.77,936.79,646.88,936.24,646.48Z"/><path class="cls-2" d="M1064.18,646.48c-1-.74,1.45-1.85,2-1.45C1067.2,645.77,1064.73,646.88,1064.18,646.48Z"/><path class="cls-2" d="M988.23,647.94c-1.06-.75,1.45-1.86,2-1.46C991.25,647.22,988.78,648.34,988.23,647.94Z"/><path class="cls-2" d="M1564,649.39a1,1,0,0,1,2,0A1,1,0,0,1,1564,649.39Z"/><path class="cls-2" d="M72.62,652.3c-1-.74,1.43-1.86,2-1.46C75.64,651.62,73.17,652.7,72.62,652.3Z"/><path class="cls-2" d="M1272.11,652.3c-1.06-.74,1.42-1.86,2-1.46C1275.13,651.62,1272.66,652.7,1272.11,652.3Z"/><path class="cls-2" d="M1338,653.75c-1-.74,1.46-1.85,2-1.45C1341.11,653.07,1338.63,654.15,1338,653.75Z"/><path class="cls-2" d="M1442,653.75a1,1,0,0,1,2,0A1,1,0,0,1,1442,653.75Z"/><path class="cls-2" d="M1566,653.75c1.57-2.65,2.15.89,2,2.91C1566.4,659.32,1565.81,655.81,1566,653.75Z"/><path class="cls-2" d="M108.59,655.21c-1-.74,1.45-1.85,2-1.46C111.63,654.52,109.16,655.61,108.59,655.21Z"/><path class="cls-2" d="M1230.09,655.21c-1-.74,1.45-1.85,2-1.46C1233.15,654.52,1230.64,655.61,1230.09,655.21Z"/><path class="cls-2" d="M1338,659.57c-1-.74,1.46-1.85,2-1.45C1341.11,658.89,1338.63,660,1338,659.57Z"/><path class="cls-2" d="M1226.12,662.51a1,1,0,0,1,2,0A1,1,0,0,1,1226.12,662.51Z"/><path class="cls-2" d="M1424,662.51a1,1,0,0,1,2,0A1,1,0,0,1,1424,662.51Z"/><path class="cls-2" d="M636.37,665.42c-1-.77,1.44-1.85,2-1.46C639.4,664.71,636.92,665.82,636.37,665.42Z"/><path class="cls-2" d="M1420,666.87c-1.06-.76,1.45-1.85,2-1.45C1423.06,666.16,1420.59,667.27,1420,666.87Z"/><path class="cls-2" d="M264.53,668.33c.12-.12-.14-1.46,0-1.46,7.11-.91.19,6.48-2,4.37C262.62,671.33,264.33,668.5,264.53,668.33Z"/><path class="cls-2" d="M714.32,668.33a1,1,0,0,1,2,0A1,1,0,0,1,714.32,668.33Z"/><path class="cls-2" d="M942.25,668.33c1-2.25,2.08-.09,2,1.46C943.19,672,942.17,669.87,942.25,668.33Z"/><path class="cls-2" d="M914.25,671.24c-1-.74,1.45-1.85,2-1.45C917.27,670.53,914.8,671.64,914.25,671.24Z"/><path class="cls-2" d="M1436,671.24c-1-.74,1.46-1.85,2-1.45C1439.05,670.53,1436.57,671.64,1436,671.24Z"/><path class="cls-2" d="M54.61,672.7c-1-.75,1.46-1.86,2-1.46C57.65,672,55.18,673.09,54.61,672.7Z"/><path class="cls-2" d="M96.61,672.7c-1-.75,1.43-1.86,2-1.46C99.64,672,97.16,673.09,96.61,672.7Z"/><path class="cls-2" d="M352.49,672.7c-1-.75,1.46-1.86,2-1.46C355.52,672,353,673.09,352.49,672.7Z"/><path class="cls-2" d="M1426,672.7c-1-.75,1.45-1.86,2-1.46C1429.07,672,1426.56,673.09,1426,672.7Z"/><path class="cls-2" d="M688.35,677.06c-1.05-.74,1.43-1.86,2-1.46C691.37,676.37,688.9,677.46,688.35,677.06Z"/><path class="cls-2" d="M920.25,677.06a1,1,0,0,1,2,0A1,1,0,0,1,920.25,677.06Z"/><path class="cls-2" d="M1356.07,675.6c1,.77-1.45,1.86-2,1.46"/><path class="cls-2" d="M12.63,678.51c-1-.74,1.45-1.85,2-1.45C15.68,677.83,13.18,678.91,12.63,678.51Z"/><path class="cls-2" d="M242.54,680c-1-.74,1.45-1.86,2-1.46C245.58,679.29,243.09,680.37,242.54,680Z"/><path class="cls-2" d="M1212.11,680c-1-.74,1.45-1.86,2-1.46C1215.17,679.29,1212.66,680.37,1212.11,680Z"/><path class="cls-2" d="M80.61,681.42a1,1,0,0,1,2,0A1,1,0,0,1,80.61,681.42Z"/><path class="cls-2" d="M84.61,681.42a1,1,0,0,1,2,0A1,1,0,0,1,84.61,681.42Z"/><path class="cls-2" d="M40.63,684.36c-1-.77,1.43-1.88,2-1.48C43.66,683.65,41.18,684.76,40.63,684.36Z"/><path class="cls-2" d="M734.33,687.27a1,1,0,0,1,2,0A1,1,0,0,1,734.33,687.27Z"/><path class="cls-2" d="M170.57,690.18c-1-.77,1.44-1.85,2-1.45C173.6,689.47,171.13,690.58,170.57,690.18Z"/><path class="cls-2" d="M1344.05,690.18c-1-.77,1.46-1.85,2-1.45C1347.08,689.47,1344.6,690.58,1344.05,690.18Z"/><path class="cls-2" d="M872.26,691.63c-1-.77,1.44-1.85,2-1.45C875.29,690.92,872.82,692,872.26,691.63Z"/><path class="cls-2" d="M1006.22,691.63c-1.07-.77,1.45-1.85,2-1.45C1009.24,690.92,1006.77,692,1006.22,691.63Z"/><path class="cls-2" d="M1194.12,691.63c-1-.77,1.46-1.85,2-1.45C1197.14,690.92,1194.67,692,1194.12,691.63Z"/><path class="cls-2" d="M1136.16,696c-1.61-.28-2-1.46-4-1.46v-2.91"/><path class="cls-2" d="M1540,697.45c-1-.74,1.45-1.85,2-1.45C1543,696.74,1540.52,697.85,1540,697.45Z"/><path class="cls-2" d="M1562,697.45c-1-.74,1.45-1.85,2-1.45C1565,696.74,1562.51,697.85,1562,697.45Z"/><path class="cls-2" d="M40.63,698.91a1,1,0,0,1,2,0A1,1,0,0,1,40.63,698.91Z"/><path class="cls-2" d="M186.56,698.91a1,1,0,0,1,2,0A1,1,0,0,1,186.56,698.91Z"/><path class="cls-2" d="M280.53,698.91a1,1,0,0,1,2,0A1,1,0,0,1,280.53,698.91Z"/><path class="cls-2" d="M1344.05,698.91a1,1,0,0,1,2,0A1,1,0,0,1,1344.05,698.91Z"/><path class="cls-2" d="M1584,698.91a1,1,0,0,1,2,0A1,1,0,0,1,1584,698.91Z"/><path class="cls-2" d="M1036.18,701.82c-1-.74,1.45-1.85,2-1.46C1039.24,701.13,1036.77,702.22,1036.18,701.82Z"/><path class="cls-2" d="M182.57,703.27c-1-.74,1.44-1.85,2-1.45C185.6,702.59,183.12,703.67,182.57,703.27Z"/><path class="cls-2" d="M264.53,703.27c-1-.74,1.45-1.85,2-1.45C267.57,702.59,265.08,703.67,264.53,703.27Z"/><path class="cls-2" d="M176.57,704.73a1,1,0,0,1,2,0A1,1,0,0,1,176.57,704.73Z"/><path class="cls-2" d="M1372.05,704.73c1.06-2.23,2.08-.09,2,1.45C1373,708.44,1372,706.3,1372.05,704.73Z"/><path class="cls-2" d="M262.53,707.64c-1-.74,1.45-1.86,2-1.46C265.57,707,263.07,708.06,262.53,707.64Z"/><path class="cls-2" d="M1348.06,707.64c1,.77-1.46,1.88-2,1.48"/><path class="cls-2" d="M284.52,712a1,1,0,0,1,2,0A1,1,0,0,1,284.52,712Z"/><path class="cls-2" d="M242.54,714.94c-1-.77,1.45-1.85,2-1.46C245.58,714.22,243.09,715.34,242.54,714.94Z"/><path class="cls-2" d="M592.39,714.94a1,1,0,0,1,2,0A1,1,0,0,1,592.39,714.94Z"/><path class="cls-2" d="M416.46,720.76c4.83,4.88-6.71-3.51,0,0Z"/><path class="cls-2" d="M730.33,720.76c-1-.74,1.45-1.86,2-1.46C733.35,720.05,730.87,721.16,730.33,720.76Z"/><path class="cls-2" d="M758.31,720.76c.05-1.43,2.45-1.14,4-1.46C762.25,720.73,759.86,720.44,758.31,720.76Z"/><path class="cls-2" d="M1336.08,720.76c-1.06-.74,1.42-1.86,2-1.46C1339.1,720.05,1336.63,721.16,1336.08,720.76Z"/><path class="cls-2" d="M846.27,722.21c1.06-2.25,2.08-.08,2,1.46C847.21,725.92,846.19,723.75,846.27,722.21Z"/><path class="cls-2" d="M10.63,723.67a1,1,0,0,1,2,0A1,1,0,0,1,10.63,723.67Z"/><path class="cls-2" d="M406.47,726.58c-1-.74,1.45-1.86,2-1.46C409.49,725.89,407,727,406.47,726.58Z"/><path class="cls-2" d="M998.21,726.58c-1-.74,1.45-1.86,2-1.46C1001.23,725.89,998.75,727,998.21,726.58Z"/><path class="cls-2" d="M1176.14,726.58c-1-.74,1.45-1.86,2-1.46C1179.16,725.89,1176.69,727,1176.14,726.58Z"/><path class="cls-2" d="M1302.07,726.58c-1-.74,1.45-1.86,2-1.46C1305.1,725.89,1302.62,727,1302.07,726.58Z"/><path class="cls-2" d="M1252.08,728c-1-.74,1.46-1.85,2-1.45C1255.15,727.35,1252.63,728.43,1252.08,728Z"/><path class="cls-2" d="M1300.07,729.49a1,1,0,0,1,2,0A1,1,0,0,1,1300.07,729.49Z"/><path class="cls-2" d="M1062.17,733.88c-1-.77,1.46-1.88,2-1.45C1065.24,733.17,1062.73,734.28,1062.17,733.88Z"/><path class="cls-2" d="M1354.07,733.88c-1.06-.77,1.45-1.88,2-1.45C1357.09,733.17,1354.62,734.28,1354.07,733.88Z"/><path class="cls-2" d="M1580,735.33a1,1,0,0,1,2,0A1,1,0,0,1,1580,735.33Z"/><path class="cls-2" d="M1062.17,738.24c-1-.77,1.46-1.85,2-1.45C1065.24,737.53,1062.73,738.64,1062.17,738.24Z"/><path class="cls-2" d="M2.64,741.15c-1-.77,1.45-1.85,2-1.45C5.68,740.44,3.19,741.55,2.64,741.15Z"/><path class="cls-2" d="M120.59,741.15c-1-.77,1.45-1.85,2-1.45C123.63,740.44,121.15,741.55,120.59,741.15Z"/><path class="cls-2" d="M534.41,742.61c1.06-2.25,2.08-.09,2,1.45C535.35,746.32,534.33,744.15,534.41,742.61Z"/><path class="cls-2" d="M190.56,745.52c-1-.75,1.46-1.86,2-1.46C193.59,744.8,191.12,745.92,190.56,745.52Z"/><path class="cls-2" d="M1272.11,745.52c-1.06-.75,1.42-1.86,2-1.46C1275.13,744.8,1272.66,745.92,1272.11,745.52Z"/><path class="cls-2" d="M122.59,747c-1-.74,1.45-1.85,2-1.45C125.63,746.26,123.14,747.37,122.59,747Z"/><path class="cls-2" d="M596.38,747c-1-.74,1.45-1.85,2-1.45C599.42,746.26,597,747.37,596.38,747Z"/><path class="cls-2" d="M1030.21,748.43a1,1,0,0,1,2,0A1,1,0,0,1,1030.21,748.43Z"/><path class="cls-2" d="M566.4,760.09a1,1,0,0,1,2,0A1,1,0,0,1,566.4,760.09Z"/><path class="cls-2" d="M614.38,763c-1-.77,1.44-1.88,2-1.45C617.4,762.29,614.93,763.4,614.38,763Z"/><path class="cls-2" d="M1220.12,763c-1-.77,1.45-1.88,2-1.45C1223.14,762.29,1220.67,763.4,1220.12,763Z"/><path class="cls-2" d="M98.59,768.82c-1-.74,1.46-1.85,2-1.45C101.64,768.11,99.17,769.22,98.59,768.82Z"/><path class="cls-2" d="M598.38,770.28c-1-.74,1.45-1.86,2-1.46"/><path class="cls-2" d="M900.23,773.19c1.1-2.23,2.12-.09,2,1.45C901.17,776.89,900.15,774.73,900.23,773.19Z"/><path class="cls-2" d="M1014.19,773.19a1,1,0,0,1,2,0A1,1,0,0,1,1014.19,773.19Z"/><path class="cls-2" d="M1540,776.1c-1-.75,1.45-1.86,2-1.46C1543,775.41,1540.52,776.5,1540,776.1Z"/><path class="cls-2" d="M368.47,777.55c1.07-2.23,2.11-.08,2,1.45C369.42,781.26,368.4,779.12,368.47,777.55Z"/><path class="cls-2" d="M1411.09,735.43a1.54,1.54,0,0,1,3.06,0C1413.61,738,1411.09,736.69,1411.09,735.43Z"/><path class="cls-2" d="M202.56,783.4c-1-.77,1.43-1.88,2-1.49C205.58,782.69,203.11,783.8,202.56,783.4Z"/><path class="cls-2" d="M904.23,783.4c-1-.77,1.5-1.88,2-1.49C907.29,782.69,904.78,783.8,904.23,783.4Z"/><path class="cls-2" d="M108.59,784.85a1,1,0,0,1,2,0A1,1,0,0,1,108.59,784.85Z"/><path class="cls-2" d="M1030.21,784.85a1,1,0,0,1,2,0A1,1,0,0,1,1030.21,784.85Z"/><path class="cls-2" d="M1246.11,787.76c-1.06-.77,1.46-1.85,2-1.45C1249.14,787.05,1246.66,788.16,1246.11,787.76Z"/><path class="cls-2" d="M78.61,789.22c-1-.77,1.45-1.86,2-1.46C81.65,788.5,79.16,789.62,78.61,789.22Z"/><path class="cls-2" d="M1086.17,789.22c-1-.77,1.45-1.86,2-1.46C1089.19,788.5,1086.72,789.62,1086.17,789.22Z"/><path class="cls-2" d="M1232.1,790.67a1,1,0,0,1,2,0A1,1,0,0,1,1232.1,790.67Z"/><path class="cls-2" d="M1348.06,790.67a1,1,0,0,1,2,0A1,1,0,0,1,1348.06,790.67Z"/><path class="cls-2" d="M1550,790.67a1,1,0,0,1,2,0A1,1,0,0,1,1550,790.67Z"/><path class="cls-2" d="M1030.21,793.58a1,1,0,0,1,2,0A1,1,0,0,1,1030.21,793.58Z"/><path class="cls-2" d="M1036.18,793.58c-1-.74,1.45-1.85,2-1.45C1039.24,792.87,1036.77,794,1036.18,793.58Z"/><path class="cls-2" d="M1046.19,793.58c-1-.74,1.46-1.85,2-1.45C1049.21,792.87,1046.74,794,1046.19,793.58Z"/><path class="cls-2" d="M1411.09,753.27c-1.56-1.14,2.22-2.83,3.06-2.23C1415.78,752.18,1412,753.88,1411.09,753.27Z"/><path class="cls-2" d="M310.51,795c-1-.73,1.44-1.85,2-1.45C313.54,794.32,311.06,795.43,310.51,795Z"/><path class="cls-2" d="M1429.47,755.49c-1.56-1.13,2.22-2.83,3.06-2.22C1434.09,754.4,1430.31,756.11,1429.47,755.49Z"/><path class="cls-2" d="M112.59,796.49a1,1,0,0,1,2,0A1,1,0,0,1,112.59,796.49Z"/><path class="cls-2" d="M378.49,796.49c.12-.11-.14-1.43,0-1.46,7.09-.91.18,6.48-2,4.37C376.59,799.52,378.27,796.66,378.49,796.49Z"/><path class="cls-2" d="M1106.15,796.49c1.07-2.25,2.09-.09,2,1.46C1107.1,800.2,1106.08,798,1106.15,796.49Z"/><path class="cls-2" d="M404.46,799.4a1,1,0,0,1,2,0A1,1,0,0,1,404.46,799.4Z"/><path class="cls-2" d="M1156.15,799.4c-1-.74,1.45-1.85,2-1.45C1159.17,798.71,1156.7,799.8,1156.15,799.4Z"/><path class="cls-2" d="M751.51,125.12c3,1.23,2.88,4.69,4,7.27C753.94,135.73,751.31,127.86,751.51,125.12Z"/><path class="cls-2" d="M1274.07,120.7c.59-5.43,5,4.28,0,2.91C1270.78,127,1274.27,123.09,1274.07,120.7Z"/><path class="cls-2" d="M1284.09,132.35c10.09-3.65,8.13,4,0,0Z"/><path class="cls-2" d="M1190.11,145.46c3.85.59,1.62,5.65,8,4.37"/><path class="cls-2" d="M824.28,197.91c-1.42-1.8-2.08-3.2,0-1.46S825.87,199.87,824.28,197.91Z"/><path class="cls-2" d="M296.52,209.54c-1.44-1.79-2.09-3.19,0-1.45S298.1,211.54,296.52,209.54Z"/><path class="cls-2" d="M2.64,238.67c5.69-2.09-4.85,5.07-4,8.75C-7.92,244.37,2,241.26,2.64,238.67Z"/><path class="cls-2" d="M988.23,238.67c5.54-4.34-3.5,4.79,2,4.36C985.29,247,983,240.52,988.23,238.67Z"/><path class="cls-2" d="M1262.1,243c6.08-4-5.46,4.45,0,0Z"/><path class="cls-2" d="M962.23,266.34c6.09-4-5.46,4.45,0,0Z"/><path class="cls-2" d="M1512,280.91c-1.49-2.22,1.26-1.08,2,0,1.38,2-1.33,3.25-2,1.46C1511.85,282,1512.25,281.28,1512,280.91Z"/><path class="cls-2" d="M1376.06,298.4c6.08-4-5.46,4.42,0,0Z"/><path class="cls-2" d="M1516,324.61c.58-5.42,5,4.28,0,2.91C1512.64,330.94,1516.17,327,1516,324.61Z"/><path class="cls-2" d="M116.6,349.37c3.75-3.68.21,2.42,0,4.36C113,352.68,116.3,351.08,116.6,349.37Z"/><path class="cls-2" d="M1170.13,356.65c-1.42-1.8-2.08-3.2,0-1.46S1171.7,358.64,1170.13,356.65Z"/><path class="cls-2" d="M1170.13,371.22c6.08-4-5.46,4.42,0,0Z"/><path class="cls-2" d="M988.23,407.62c6.09-4-5.46,4.45,0,0Z"/><path class="cls-2" d="M1058.17,407.62c5.26-2.14-8.92,12.52,0,0Z"/><path class="cls-2" d="M1196.12,420.74c-5.46-4.45,6.09,4,0,0Z"/><path class="cls-2" d="M1440,580.93c1.53,2.31,6.32,2.2,6,5.82C1443.09,585.49,1439.67,584.58,1440,580.93Z"/><path class="cls-2" d="M1296.07,605.69c4.47-5.59-.87,3.94-2,2.91C1292.41,607.09,1295.87,606,1296.07,605.69Z"/><path class="cls-2" d="M1344.05,693.09c2,1.68,1.57,3.45,0,1.45"/><path class="cls-2" d="M150.59,726.58c6.06-4-5.46,4.45,0,0Z"/><path class="cls-2" d="M1366,729.49c-.15-.4.28-1.09,0-1.46"/><path class="cls-2" d="M536.41,733.88c-1.53-2.23,1.26-1.11,2,0,1.33,1.94-1.34,3.25-2,1.45C536.26,734.9,536.67,734.25,536.41,733.88Z"/><path class="cls-2" d="M116.6,738.24c-5.46-4.45,6.07,4,0,0Z"/><path class="cls-2" d="M124.59,751.34c-.37-1.23.79-1.37,2-1.46h4"/><path class="cls-2" d="M1538,761.55c1.84-.86,1.53,8.7-4,7.27C1532.27,764.17,1537.14,764.32,1538,761.55Z"/><path class="cls-2" d="M1572,774.64c.16-.23.67-4.11,2-2.91C1575.55,773.19,1569.11,778.81,1572,774.64Z"/><path class="cls-2" d="M1438.66,760c2.1-9.12,4.92-6.07,0,0Z"/></g><rect class="cls-4" x="-8" y="-10" width="1625" height="839"/></svg>