<svg xmlns="http://www.w3.org/2000/svg" viewBox="0 0 212.26 363.72" width="213px" height="365px"><defs><style>.cls-1,.cls-2{fill:#04e762;}.cls-2{stroke:#04e762;}.cls-2,.cls-4{stroke-miterlimit:10;}.cls-3,.cls-6,.cls-7{fill:#fff;}.cls-3{opacity:0.79;}.cls-4{fill:none;stroke:#fff;stroke-linecap:round;stroke-width:2px;}.cls-4,.cls-5,.cls-7{opacity:0.4;}</style></defs><title>Asset 3</title><g id="Layer_2" data-name="Layer 2"><g id="green"><path class="cls-1" d="M89.58,61.32a27.72,27.72,0,0,1,7.65,1.08c2.48.63,5,1.21,7.43,1.89s4.93,1.32,7.38,2.07,4.9,1.42,7.33,2.22c4.88,1.52,9.72,3.17,14.52,4.9s9.58,3.57,14.29,5.56c9.41,4,18.55,8.59,27.76,13l13.83,6.54c2.32,1.08,4.6,2.2,6.93,3.26a17.88,17.88,0,0,1,3.46,2,6.64,6.64,0,0,1,2.44,3.66l.29,1.32-1.39-.07a125.9,125.9,0,0,1-15.74-1.64,139.76,139.76,0,0,1-15.43-3.58,217.24,217.24,0,0,1-29.59-11.06c-9.54-4.41-18.84-9.22-28.06-14.14L98.85,71c-2.31-1.21-4.62-2.4-6.94-3.68a24.43,24.43,0,0,1-6.37-4.74l.28-.28c4,3.32,9.13,4.69,13.91,6.84s9.61,4.18,14.36,6.37c9.51,4.34,18.9,8.9,28.41,13.07A274.82,274.82,0,0,0,171.41,100q7.4,2.36,15,4.08a131.65,131.65,0,0,0,15.29,2.63l-1.1,1.25a4.67,4.67,0,0,0-1.6-2.65,16.3,16.3,0,0,0-3-2c-2.23-1.21-4.5-2.36-6.76-3.53s-4.56-2.26-6.86-3.35-4.62-2.14-7-3.16c-9.32-4.1-18.93-7.5-28.45-11-2.39-.88-4.77-1.76-7.14-2.67l-3.57-1.33-3.56-1.37c-2.38-.89-4.75-1.79-7.14-2.65s-4.76-1.78-7.15-2.64L104,66.31l-7.19-2.57a31.35,31.35,0,0,0-7.27-2Z"/><path class="cls-1" d="M115.26,69.14c4.58.06,7.76,5.73,12.33,5.46.33-2.21-1.67-4.07-3.66-5.06a16.86,16.86,0,0,0-6.75-1.73c-.88,0-2.08.31-2,1.19a1.58,1.58,0,0,0,.69,1,15.49,15.49,0,0,0,9.09,3.55"/><path class="cls-1" d="M158.57,83.15a10.77,10.77,0,0,1,10.7,2,4.76,4.76,0,0,1,1.59,2.39,2.29,2.29,0,0,1-1,2.52,2.91,2.91,0,0,1-1.2.26c-3.7.17-7-2.2-9.93-4.46a4.5,4.5,0,0,1-1.32-1.36,1.5,1.5,0,0,1,.2-1.77.91.91,0,0,1,1.48.45"/><path class="cls-1" d="M179.1,92.73l2.86,3c1.86,2,4,4.11,6.72,4.26.85,0,1.91-.31,2-1.16a1.92,1.92,0,0,0-.48-1.23,20.86,20.86,0,0,0-8.79-7c-.5-.2-1.13-.37-1.51,0a1.21,1.21,0,0,0-.31.78,5,5,0,0,0,.32,2.44"/><path class="cls-1" d="M91.51,59.64A21.11,21.11,0,0,1,106,63.38c.63.45,1.28,1.38.7,1.91a1.38,1.38,0,0,1-.8.25,24.17,24.17,0,0,1-9.25-1.07c-2-.66-4.2-1.83-4.77-3.9"/><path class="cls-1" d="M131.9,49.88a87.85,87.85,0,0,1,13-28.08c1-1.38,2.21-2.87,3.89-2.93,1.46,3.92-.24,8.23-1.92,12.06a228.84,228.84,0,0,1-10.39,21.65c-.47.82-1.22,1.77-2.13,1.54a1.74,1.74,0,0,1-.85-.57,4.6,4.6,0,0,1-1.09-4.06"/><path class="cls-1" d="M197.74,28.36a32.58,32.58,0,0,1,7,10.41A67.83,67.83,0,0,1,210.43,75a136.58,136.58,0,0,1-4.53-15.45c-2.12-9.21-3.34-18.8-7.64-27.22-.65-1.27-1.06-3.31.31-3.68"/><path class="cls-2" d="M124.14,145.78a26,26,0,0,1,3.4-2.61c.11-.07.24-.15.36-.1a.42.42,0,0,1,.21.27l.86,2.21c.06.15.11.36,0,.46s-.41-.06-.62-.13c-.54-.21-1,.48-1.35.91a2.09,2.09,0,0,1-2.82.19"/><path class="cls-2" d="M124.44,152.85c1.39.24,2.93.55,3.8,1.67a7.65,7.65,0,0,1,.87,1.74,11.05,11.05,0,0,0,1.33,2.28,4.13,4.13,0,0,1,1.05,2c0,.76-.71,1.59-1.39,1.25a1.47,1.47,0,0,1-.5-.46,12.39,12.39,0,0,1-2-4.1,5.32,5.32,0,0,0-1.07-2.46c-.45-.43-1.13-.74-1.23-1.36"/><path class="cls-2" d="M123.41,161.73l1.57,3.13a.48.48,0,0,1,0,.46.4.4,0,0,1-.3.13,2.06,2.06,0,0,1-1.94-1.32,6,6,0,0,1-.38-2.46c0-.37-.5-.5-.87-.45s-.81.12-1.05-.17c-.06-.08-.19,0-.28,0s-.21.12-.28,0,.11-.19.1-.09"/><g id="meduse"><path class="cls-3" d="M202.09,109.22c5.56-3.18,16-40,6-65s-19-37.12-50-43c-58-11-75.94,56-73,60C93.09,72.22,195.09,113.22,202.09,109.22Z"/><path class="cls-4" d="M94.09,60.22s-9,37-29,72,0,44-6,68-12,15-14,47-1,68-14,81"/><path class="cls-4" d="M196.59,103.72s-13,55-23,70c-22.93,34.4-23,40-39,66-13,21.07-25,26-27,58s-26,48-26,65"/><path class="cls-4" d="M165.59,94.72s-35,58-44,87c-8.25,26.6,3,33-4,50-4.45,10.82-8,13-24,27-15.44,13.51,5,39-45,79"/><path class="cls-4" d="M100.59,66.72a239.14,239.14,0,0,0-13,36c-3.8,14.44-5.1,35.46-9,48-8.25,26.6-19.66,21.64-27,51-5,20,5,50-11,64-15.44,13.51-21,25-10,72"/><g class="cls-5"><path class="cls-6" d="M149.59,89.17c1.69.07,3.28-.78,5-1.06s3.81.38,4.08,2c.57,3.38-5.87,3-7.44,6.07l7.83,6.28c-1.84.7-3.77,1.47-5,3s-1.5,4.07,0,5.34c1.25,1.06,3.56,1.31,3.66,3a2.81,2.81,0,0,1-1,1.94,23.41,23.41,0,0,1-5.17,4.18c.15,1.06,1.16,1.74,1.93,2.48,3.44,3.33,2.45,9,1.21,13.62,3.48,0,8,.73,8.57,4.16.33,2-.93,3.79-1.5,5.69s.21,4.65,2.2,4.61a14.35,14.35,0,0,1-6.35,4.33c2,1.36,3.82,3.21,4.3,5.57s-1,5.19-3.36,5.49c1.78,1.62,3.61,3.31,4.51,5.54s.58,5.15-1.38,6.53c2.88.88,6.39,2.65,6.07,5.65s-4.7,5.21-3.57,8c.81,2,4.09,2.59,4.2,4.78.07,1.51-1.55,2.58-1.93,4a6.33,6.33,0,0,0,.35,3.06,14.89,14.89,0,0,1-2.46,12.23,5.37,5.37,0,0,1,2.15,8c-.89,1.08-2.34,2.14-2,3.5.18.67.76,1.13,1.11,1.73,1.6,2.7-2.06,5.41-5,6.44a4.33,4.33,0,0,1-2.54.33c-2.1-.6-2-3.53-1.87-5.71s-1.39-5.18-3.35-4.21a4.7,4.7,0,0,0,.17-7.59c-.81-.52-1.85-.86-2.21-1.74-1-2.44,4.07-3.35,4.34-6s-3.78-3.11-4.76-5.42c-1.43-3.36,4.52-7,2.54-10-1-1.51-3.36-1.63-4.22-3.21-1.4-2.57,2.68-5.16,2.43-8.08s-4.79-4.23-5-7.23,4.6-5.21,3.84-8.26a11.28,11.28,0,0,0-1.58-2.63,4.88,4.88,0,0,1,2.26-6.65c-1.22-3.05-6.63-3.57-6.5-6.85a6.76,6.76,0,0,1,1.3-2.93c2.64-4.51,1.51-10.19.3-15.28l-3.91-16.45a6,6,0,0,1-.21-2.78c.6-2.44,4-3.45,4.4-5.93.28-1.74-1.08-3.25-1.86-4.83a8.09,8.09,0,0,1,5.07-10.91,4.21,4.21,0,1,1,5.69-6.2"/></g><path class="cls-7" d="M98.26,219.22c2.47-.84,3.56,2.32,5.87,1.11A5,5,0,0,0,106,213.6a11.78,11.78,0,0,0,10.73-11.36,6.36,6.36,0,0,1,.2-2.27c1-2.62,5.27-2,7-4.19.91-1.17.82-2.81.92-4.29.31-5,3-9.41,5.72-13.61l6.26-9.88c1.34-2.12,2.53-5.28.52-6.79A16.27,16.27,0,0,0,147.21,147a12.27,12.27,0,0,1,.45-4.37c.57-1.36,2.19-2.44,3.51-1.79-2.13-4,2.43-8.23,3.55-12.63.61-2.38.18-5,.92-7.31.79-2.51,2.83-4.45,3.85-6.88,2.22-5.29-.77-11.58,1-17,4.2-1.67,4-7.9,1.67-11.79a21.24,21.24,0,0,0-12.24-9.53l-.41,4.49-5,.11A8.44,8.44,0,0,0,145,86.1a4.19,4.19,0,0,0-3.37,7.67c-2.55.7-5.77,2.64-4.75,5.08.46,1.09,1.69,1.72,2.09,2.84,1.18,3.32-5.19,4.07-6.65,7.29a7.36,7.36,0,0,0-.42,2.65A26.63,26.63,0,0,1,126,127l3.68,5.68a10.61,10.61,0,0,0-5.94,7.49,16.88,16.88,0,0,1-.69,3.35c-.62,1.49-2,2.58-2.61,4a5,5,0,0,0,.77,5.18c-3,.69-3.09,6-.07,6.79-1.35-.08-2.11,1.57-2.14,2.92s.21,2.85-.62,3.92c-.48.62-1.31,1-1.43,1.82-.17,1.15,1.27,1.82,1.76,2.87,1,2.1-2,3.75-4.28,4.17l1.55,6.36c-2.22-.11-3.73,2.27-4.23,4.43s-.61,4.6-2.11,6.24c-.83.91-2,1.48-2.67,2.53s-.15,2.89,1.08,2.78a7.94,7.94,0,0,0-3.63,5.21A80.13,80.13,0,0,1,97.77,213l1.59,2c-2.41.16-3.24,7.74-1.29,6.31C98.53,220.92,97.72,219.4,98.26,219.22Z"/><g class="cls-5"><path class="cls-6" d="M161.37,84.62c-3.4-1-8.38-1.06-9,2.42-.51,2.73,2,6.67-.59,7.67-1.23.48-2.92-.39-3.81.59-1.11,1.22.74,2.85,1.34,4.39.67,1.73-.5,3.74-2.13,4.64a11.69,11.69,0,0,1-5.42,1c-1.52,2.64,3.91,4.86,3.44,7.86-.56,3.48-7.67,2.45-7.88,6-.13,2.21,3,3.84,2.4,6-.31,1-1.38,1.55-2.29,2.1-5.81,3.47-7.87,10.93-8.06,17.7-4.35.81-6.89,5.26-8.83,9.23l-3.09,6.34a9.18,9.18,0,0,1-1.88,2.85c-1.21,1.08-3,1.47-4.07,2.64a4.05,4.05,0,0,0-.28,5.07c-5.07-.18-9.32,5.66-7.59,10.42-2.35.47-4.8,1-6.67,2.48s-3,4.27-1.78,6.35c-2.82.53-5.77,1.11-8,2.9s-3.5,5.17-2,7.61c-3.19,1.23-7.23-.15-9.95,1.93-3.32,2.52-3,9-7.11,9.73a7.84,7.84,0,0,0,9.58-2.05,10.9,10.9,0,0,1,1.86-2.29c1.83-1.37,4.39-.47,6.67-.48s4.92-2.59,3.31-4.2a25.13,25.13,0,0,1,9.09-2.6,6.19,6.19,0,0,1,3.84-8.37c1.64-.42,3.5-.15,4.93-1.05,3.16-2,1.58-7.55,4.44-9.93,1.93-1.6,5.32-1.23,6.49-3.44s-.67-5.3,1.15-6.84c1.17-1,2.95-.45,4.42-.83,3.38-.88,3.54-5.53,5.2-8.6s5-4.69,7.63-7,4.34-6.61,2-9.15c5.5-.32,9.9-6.37,8.5-11.7a4.7,4.7,0,0,0,5.28-4.47c0-1.78-.92-4,.49-5,.9-.68,2.25-.4,3.17-1,1.66-1.18.4-3.91,1.2-5.78s3.13-2.26,4.31-3.79a7.06,7.06,0,0,0,1.09-3.27l1.56-9.78c2-1.61,4.74-2.29,6.5-4.19s1.44-5.92-1.14-6.1c2.79-1.24,2.67-5.76.24-7.61s-6-1.44-8.67,0"/></g><g class="cls-5"><path class="cls-6" d="M132.12,69.1a4.61,4.61,0,0,1,1.21,5.2c-.83,1.9-2.84,3-4.07,4.67s-1,4.82,1.1,5c-1.47.69-3.19,1.77-3.06,3.39.11,1.35,1.47,2.2,2.17,3.37,1.64,2.73-2,6.63-4.85,5.16l2.27,6.7a132.94,132.94,0,0,0-7,12.66l-1.18,2.32a13.72,13.72,0,0,0-1.94,5.92c0,2.81,1.55,5.93-.08,8.21s-5.54,2.56-5.74,5.24c-.12,1.59,1.33,2.88,1.56,4.45.46,3.08-3.49,4.68-5.47,7.09a6.64,6.64,0,0,0,.2,8.36c-2.4-.14-4.29,2.09-5.15,4.34s-1.14,4.74-2.47,6.75a3.94,3.94,0,0,0-1,2.08c0,1.09,1.14,1.82,1.53,2.84,1.34,3.52-5.84,4.7-6.38,8.43-.21,1.42.66,2.77.76,4.2a8,8,0,0,1-1.42,4.27q-3.32,5.85-6.62,11.7a4.3,4.3,0,0,0-.82,2.85c.23,1.23,1.47,2,1.85,3.23,1,3.22-4.1,4.46-6.38,6.94-1.65,1.79-1.78,4.46-2.38,6.82s-2.39,4.92-4.81,4.63a12.25,12.25,0,0,1,4.13-9c.89-.78,2-1.57,2.1-2.75a5.81,5.81,0,0,0-.81-2.59,6.61,6.61,0,0,1,1.85-7.4,13.55,13.55,0,0,0,2.26-1.84,6.7,6.7,0,0,0,1.09-2.72l3.29-13.71a15.39,15.39,0,0,1,1.31-3.91c.74-1.34,1.88-2.48,2.22-4,.55-2.41-1.08-5.37.58-7.21.69-.76,1.8-1.09,2.34-2,1-1.68-.77-4,.1-5.76.71-1.45,2.89-1.75,3.5-3.26s-.63-3-.4-4.54c.33-2.15,3.13-2.89,4.32-4.71a8.48,8.48,0,0,0,1-3.42,47.91,47.91,0,0,1,1.73-6.66L111.9,117a48,48,0,0,1,2-5.61c1.3-2.85,3.21-5.64,3.11-8.77,0-1.29-.41-2.66.15-3.82.62-1.31,2.26-2,2.72-3.33.7-2.11-1.83-4.09-1.65-6.3s3.15-3.48,4-5.69c.44-1.22.15-2.59.49-3.83.59-2.14,2.78-3.33,4.32-4.92s2.19-4.72.18-5.66l5.87-1.46"/></g><g class="cls-5"><path class="cls-6" d="M169.81,36.38l-9.71-6.45a11.3,11.3,0,0,0-4.81-2.19c-3.14-.38-6.28,1.74-7.83,4.35s-1.85,5.58-2.12,8.47l-1.62,16.92a4.87,4.87,0,0,1-1,3.07c-1,1.06-2.73,1.22-4.17,1.74A9.17,9.17,0,0,0,133,68.76a22.43,22.43,0,0,0,0,8.25,7.34,7.34,0,0,0,1.27,3.86,8.52,8.52,0,0,0,3.31,2.07l13.92,6c.61.26,1.28.6,1.41,1.2s-.59,1.38-1.24,1.87l-5.94,4.41a26.41,26.41,0,0,0,16.32-.36,4.53,4.53,0,0,0,2.26-1.36c1.69-2.24-1.75-5.57.26-7.59,1.23-1.23,3.35-.74,5.14-.68,4,.13,8-2.88,8.68-6.49s-1.91-7.32-5.73-8.28c3.75-2.63,7.85-5.77,8.33-10a12.62,12.62,0,0,0-.71-4.94,52.26,52.26,0,0,0-7.59-16.62C172.1,39.15,169.81,36.38,169.81,36.38Z"/></g></g><path class="cls-1" d="M97.48,345.92c3.79-11.12,7-23.65,15.92-31.81,7.16-6.58,14.8-11.57,18.08-21.19.31-.92-1.13-1.31-1.44-.4-3.78,11.08-13.9,15.7-21.15,24-6.74,7.73-9.61,19.45-12.85,29-.32.92,1.13,1.31,1.44.4Z"/><path class="cls-1" d="M82.1,361.8c1.78-9.1,6.62-17,11.51-24.73.51-.82-.78-1.57-1.3-.76-5,7.85-9.85,15.86-11.66,25.09-.18.94,1.26,1.34,1.45.4Z"/><path class="cls-1" d="M48.29,339.25c14.91-13.38,29.39-26.8,35.74-46.5.3-.92-1.15-1.31-1.44-.4C76.32,311.78,61.92,325,47.23,338.19c-.72.64.34,1.7,1.06,1.06Z"/><path class="cls-1" d="M48.67,326.88c.57-14.66,6.19-28.13,12.24-41.28.4-.87-.9-1.64-1.3-.76-6.16,13.39-11.86,27.12-12.44,42a.75.75,0,0,0,1.5,0Z"/><path class="cls-1" d="M1.14,349.37a165.82,165.82,0,0,0,25.39-16.3c7-5.32,14.14-11,19.76-17.82.61-.74-.45-1.81-1.06-1.06-5.84,7.11-13.31,13-20.64,18.47A162,162,0,0,1,.38,348.07c-.86.43-.1,1.73.76,1.3Z"/><path class="cls-1" d="M31.29,329.25c4.23-3.44,6.24-10,8.06-15,3.21-8.82,3.28-18.32,4.16-27.56.09-1-1.41-1-1.5,0-.83,8.69-.85,17.71-3.71,26-1.7,4.95-3.88,12-8.07,15.43-.75.61.32,1.66,1.06,1.06Z"/><path class="cls-1" d="M31.48,338.52a233.53,233.53,0,0,1-6-34.8c-.1-1-1.6-1-1.5,0a236.3,236.3,0,0,0,6,35.2.75.75,0,0,0,1.44-.4Z"/><path class="cls-1" d="M157.62,159c.41-2.41,3.11.77,3.59,2.21a3.4,3.4,0,0,1-1.54,3.92c-.51.27-1.11.45-1.4.94a1.79,1.79,0,0,0,.51,2,7.08,7.08,0,0,1,1.48,1.67,4.12,4.12,0,0,1-2.55.79c-1.46-.18-2.4-1.74-2.53-3.2a21,21,0,0,1,.5-4.38,4.8,4.8,0,0,0-1.05-4.12C155.7,158.8,157.26,161.22,157.62,159Z"/><path class="cls-1" d="M149.42,172.42c-.89,1-.17,2.79.88,3.63.67.54,1.54.78,2.2,1.33s1,1.68.33,2.23c-.19.17-.48.33-.43.57a.46.46,0,0,0,.25.28c1.23.69,2.81-.44,3.25-1.79a5.14,5.14,0,0,0-1-4.64C153.94,172.73,152.26,169.22,149.42,172.42Z"/><path class="cls-1" d="M162.26,180.22c5,0,4,4.24,3.43,5.38-.38.74-1.25,1.22-1.41,2a4.93,4.93,0,0,1-.14,1.09c-.35.78-1.55.57-2.22,0C160,187.21,161,180.22,162.26,180.22Z"/><path class="cls-1" d="M156.06,188.35c2-1.23,3.83,2.94,3.95,5.26s-1.11,5,.26,6.95c.61.86,1.64,1.37,2.2,2.27a5.53,5.53,0,0,1,.6,2c.44,2.6.87,5.28.25,7.84a17.19,17.19,0,0,0-.7,3c-.1,1.71.78,3.33.89,5s-1.22,3.79-2.86,3.31a59.84,59.84,0,0,1-.19-13.31,16,16,0,0,0,.12-3.79c-.29-2.13-1.51-4-2.35-6a35.55,35.55,0,0,1-2-7.55C156,191.78,155.72,188.57,156.06,188.35Z"/><path class="cls-1" d="M153.26,201.22c-2,3,2,2,2,3,0,2.67-2.2,2.28-.55,4.38a2.28,2.28,0,0,0,2.17,1.08c1.21-.33,1.28-2,1-3.23a22.62,22.62,0,0,0-1.93-5.14c-.57-1.08-2.19-3.26-2.69-2.15C153.07,199.55,153.5,200.86,153.26,201.22Z"/><path class="cls-1" d="M157.55,226.13c2,.82,2.67-.48,3.49,1.55a5.93,5.93,0,0,0,.55,1.32c.45.63,1.32.92,1.6,1.64a1.83,1.83,0,0,1-1,2.06,22.45,22.45,0,0,1-2.34.86,4.72,4.72,0,0,1-2,.74c-1.39-.05-2-1.79-2-3.18s.45-2.91-.26-4.1a6.37,6.37,0,0,1-.76-1.2c-.16-.45,2.12-1.42,2.5-1.14S157.21,226,157.55,226.13Z"/><path class="cls-1" d="M132.26,172a17.17,17.17,0,0,0-3.1,8.08c-.28,2.6-.11,5.58-2,7.4-.56.53-1.26.91-1.77,1.49-2,2.15-.61,5.89-2.32,8.23C121,200,116,199,114.09,202c-.72,1.14-.74,2.59-1.35,3.79s-2.42,2-3.24,1a5,5,0,0,1,2.19-7.26c1.21-.43,2.83-.59,3.19-1.82.18-.64-.08-1.35.16-2,.5-1.25,2.43-1,3.45-1.84,1.87-1.6-.73-5.12.86-7,.87-1,2.57-.94,3.52-1.9,1.64-1.65-.18-4.82,1.24-6.66,1-1.31,3.15-1.24,4.21-2.5.73-.88.74-2.15,1.33-3.12s2.45-1.24,2.62-.12"/><path class="cls-1" d="M120.71,171.16a3.05,3.05,0,0,1,4,.7,2.54,2.54,0,0,1-1,3.7c-1.89.69-3.63-1.24-4.71-2.93a1.71,1.71,0,0,1-.38-1c.09-.86,1.43-1,2.06-.4"/><path class="cls-1" d="M116.56,181a3,3,0,0,1,2.68.33,1.82,1.82,0,0,1,.72,2.38,2.48,2.48,0,0,1-1.31.87,4,4,0,0,1-3,.15c-.93-.44-1.78-2.54-.75-2.53C117.26,182.22,116.09,181.2,116.56,181Z"/><path class="cls-1" d="M112.26,186.22c1.07-1.72,2.91,4.33,2.47,6.3s-3.24,4-4.74,2.65c-.71-.65-2,0-1.73-.95s2.75-2.35,3.56-2.87C112.37,191,111.92,186.77,112.26,186.22Z"/><path class="cls-1" d="M108,200.35a3.08,3.08,0,0,1-.69,2.49l-2.6,4.17a2.12,2.12,0,0,1-.8.85,1.34,1.34,0,0,1-1.59-.52c-.35-.49,2.91-2.52,2.94-3.12.11-2.31-1-1,.58-3.83C106.1,199.94,107.73,199.5,108,200.35Z"/><path class="cls-1" d="M100.78,211.73a2.49,2.49,0,0,1,2.53-.47,3.66,3.66,0,0,1,1.88,2.14c.76,1.94.18,4.73-1.86,5.15a3.32,3.32,0,0,1-3.49-2.36,9.83,9.83,0,0,1-.11-4.55l2.2-.09"/><path class="cls-1" d="M144.71,135.79c2.27,3.18-.45,8-4.83,8.5"/><path class="cls-1" d="M134.54,136c-.11-.83,2.14-.71,2.9-.14a1.39,1.39,0,0,1,.16,2.11,7.46,7.46,0,0,1-2.35,1.62c-1.24-.83-.21-1.72-.19-3.16C135.06,136.23,134.56,136.13,134.54,136Z"/><path class="cls-1" d="M131.55,151.24a.6.6,0,0,0-.79-.6,2.43,2.43,0,0,0,3.08,3.46,1.86,1.86,0,0,0-1.9-2.43"/><path class="cls-1" d="M114.41,166a19.57,19.57,0,0,1,4.49-3.92,2.06,2.06,0,0,1,1.13-.42c.93,0,1.42,1.27,1,2.09a2.94,2.94,0,0,1-2.27,1.39c-.92.15-1.86.1-2.75.32-2.35.58-3.86,2.9-4.57,5.21a5.69,5.69,0,0,1-1.09,2.42,1.58,1.58,0,0,1-2.34.06,1.53,1.53,0,0,1-.22-.78c0-1.5,1.36-2.6,2.64-3.37s2.75-1.69,3-3.17"/><path class="cls-1" d="M107.27,178.54c.79-1.25,2.63,1.69,2.4,3.15-.35,2.27-3.33,3.41-3.7,5.69-.17,1,.27,2.13,0,3.16-.26,1.19-.58,1-1.75.68-4-1-3.27,1.79-4.4,1.77a1.06,1.06,0,0,1-.67-.2c-.49-.42,0-1.2.4-1.67a19.51,19.51,0,0,0,4.72-9.39,2,2,0,0,1,.35-1,1.43,1.43,0,0,1,.65-.43c1.32-.5,2.59,1.92,3.76,1.14C109.79,181,106.81,179.27,107.27,178.54Z"/><path class="cls-1" d="M92.69,192.09c1.66-.32,2.9,1.93,3.27,3.58a5,5,0,0,1-1.43,4.63c-1,1-3,1.31-3.74.06-.49-.87-.08-2-.21-3a9.33,9.33,0,0,0-.85-2.21,2.4,2.4,0,0,1,0-2.27c.44-.66,1.14-.17,1.9.05C92,193.07,92.34,192.15,92.69,192.09Z"/><path class="cls-1" d="M85.8,195.63A6.7,6.7,0,0,1,87.89,200c0,.65-.15,1.5-.81,1.59s-1-.45-1.19-1a5,5,0,0,1,.38-4.65"/><path class="cls-1" d="M83.91,206.5a2,2,0,0,1,.51,3.44,4,4,0,0,1,.24-3.16"/><path class="cls-1" d="M107.26,139.22c4,3-3,9,1,6s1.87-.32,2-5.85C110.29,138.17,105,137.52,107.26,139.22Z"/><path class="cls-1" d="M103.26,154.22c-1,1,0,1,2,2,1,.5-6,.5-5,0,2-1,.88-3,2-3A1,1,0,0,1,103.26,154.22Z"/><path class="cls-1" d="M95.34,163.93c-.69.36-.59,1.5-.46,2.26a1.49,1.49,0,0,0,1.62,1.31c.41-1.17.35-2.84-.72-3.46C95.68,164,95.44,163.88,95.34,163.93Z"/><path class="cls-1" d="M96.26,176.22a23.58,23.58,0,0,0-3.35,6.36c-.35,1.34-.65-.12-.65-2.36C92.26,177.22,96.85,175.34,96.26,176.22Z"/><path class="cls-1" d="M158.26,146.22c-1.37.34,2.05,3.57.82,5.23a1.68,1.68,0,0,1-2.48,0,2.19,2.19,0,0,1-.09-2.63c.53-.78.83-4.4,1.75-4.64C158.94,144,162.26,145.22,158.26,146.22Z"/><path class="cls-1" d="M192.94,105.55c-.32-4.43,2.78-8.45,6.45-11a4.84,4.84,0,0,1,2.3-1,3.65,3.65,0,0,1,3.43,2.67,9.66,9.66,0,0,1,0,4.63c-.4,2.42-1.15,5.12-3.34,6.22-1.36.69-3,.57-4.46.93a6.62,6.62,0,0,1-2.83.44c-.94-.21-1.67-1.49-1-2.15"/><path class="cls-1" d="M174.17,99.89a16.24,16.24,0,0,1,2.11-8.35c.93-1.64,2.67-3.28,4.45-2.67,1.28.45,1.91,1.86,2.34,3.14a14.41,14.41,0,0,1,1,7.11c-.43,2.37-2.19,4.67-4.58,5a4.65,4.65,0,0,1-5-5.16"/><path class="cls-1" d="M132.44,85.57a15.46,15.46,0,0,1,3.23-7.81,9,9,0,0,1,7.54-3.3,3.46,3.46,0,0,1,1.77.62,3.29,3.29,0,0,1,1,1.7,11.19,11.19,0,0,1-.13,5.48,11.23,11.23,0,0,1-2.19,5.18,6.26,6.26,0,0,1-10.83-2.86"/><path class="cls-1" d="M86.8,59.87l.06-6.93c0-3.57.09-7.28,1.71-10.46.4-.79,1.23-1.64,2-1.24a1.75,1.75,0,0,1,.58.57A19,19,0,0,1,92.86,60.9c-.81,1.68-2.37,3.45-4.19,3a3,3,0,0,1-2.08-2.25,5.57,5.57,0,0,1,.3-3.17"/><path class="cls-1" d="M101.24,65.91c0,.16-.25.22-.35.08a.54.54,0,0,1,0-.48c1.14-2.8,3.52-4.89,5.92-6.72a9.84,9.84,0,0,1,3-1.74,3.64,3.64,0,0,1,3.3.45,4,4,0,0,1,1.24,3.26c-.09,3.5-2.62,6.44-5.35,8.63a9.86,9.86,0,0,1-3.73,2.09,4.14,4.14,0,0,1-4-1,3.22,3.22,0,0,1-.22-3.9"/><path class="cls-1" d="M103.12,45.79c7.72-10.72,17.31-19.92,26.84-29.07,1.56-1.5,4.1-3,5.66-1.53a3.38,3.38,0,0,1,.86,2c.53,3.23-.92,6.52-3.08,9a34.14,34.14,0,0,1-7.74,6c-6.46,4.06-12.94,8.28-18.13,13.87-1,1.11-2.42,2.39-3.84,1.86-.36-.56-1-.34-.43-.58"/><path class="cls-1" d="M190.37,30.14c4.9,8.9,6.45,19.28,6.59,29.43a29.64,29.64,0,0,1-.88,8.82,11.92,11.92,0,0,1-5.09,7,3.41,3.41,0,0,1-2.42.57c-1.83-.43-2.16-2.87-2.08-4.75q.78-21,1.58-42a1.41,1.41,0,0,1,1.81,1.28"/><path class="cls-1" d="M177.06,28.82c1.65,12.31-3.4,24.44-8.69,35.67a4.06,4.06,0,0,1-1.29,1.79,1.4,1.4,0,0,1-2-.32,2,2,0,0,1-.14-1,158.38,158.38,0,0,1,5.69-34.59c.45-1.57,1.07-3.32,2.56-4a3,3,0,0,1,4.06,2.89"/><path class="cls-1" d="M141.26,46.22c10-7.41,25.23-33.92,22-35-3-1-20,19.4-25.89,29.54-.81,1.42-1.64,3.08-1.08,4.63a3,3,0,0,0,4.9.89"/><path class="cls-1" d="M123,9.58c-1.88,1.91-1.77,5.55-4.21,6.67a7.76,7.76,0,0,1-2.55.44A13.26,13.26,0,0,0,107.61,21c-1.31,1.46-2.38,3.28-4.2,4a53,53,0,0,1,8.4-11.73c3-3,7-5.79,11.16-4.95"/><g id="tentacules-front"><path class="cls-4" d="M136.09,83.22s-3.18,33.51-17.5,67.5c-8,19-29,44-34,71-2,10.59,3,24-17,52C49,299.81,62.41,315.44,1.26,349.22"/><path class="cls-4" d="M124.59,81.72s-20.68,103-35,137c-8,19-21,16-29,33-4.58,9.74,1,31-3,40-12.33,27.75-9.33,36.5-9.33,36.5"/><path class="cls-4" d="M177.59,99.72s-2,29-11,58c-8.25,26.6-21.66,66.64-29,96-5,20,0,39-16,53-15.44,13.51-17.33,16.5-24.33,39.5"/></g></g></g></svg>