<svg xmlns="http://www.w3.org/2000/svg" viewBox="0 0 202.59 389.6" width="203px" height="391px"><defs><style>.cls-1{fill:#1be7ff;}.cls-2,.cls-4,.cls-6{fill:#fff;}.cls-2{opacity:0.8;}.cls-3,.cls-8{fill:none;stroke-linecap:round;stroke-miterlimit:10;}.cls-3{stroke:#fff;stroke-width:2px;}.cls-3,.cls-4,.cls-5{opacity:0.4;}.cls-7{opacity:0.3;}.cls-8{stroke:#1be7ff;stroke-width:1.6px;}</style></defs><title>Asset 2</title><g id="Layer_2" data-name="Layer 2"><g id="blue"><path class="cls-1" d="M90.15,184.9c3.3-.52,6.88-1,9.8.61.65.36,1.32,1,1.22,1.7s-.69,1-1.28,1.3a7.38,7.38,0,0,1-4,.54,3.84,3.84,0,0,0,3,2.56,8.78,8.78,0,0,1,2.73.35c1.86.94,1.18,3.84-.23,5.36.58,1.25,2.18,1.54,3.53,1.82s3,1.06,2.93,2.44-1.78,2.21-2.4,3.52a13.16,13.16,0,0,0,3.12,2.05,4.68,4.68,0,0,1,2.43,2.69c.3,1.21-.59,2.73-1.83,2.62A14.53,14.53,0,0,0,112.7,215c1.21.81,2.34,2.08,2.18,3.52s-2.34,2.4-3.12,1.17a4.16,4.16,0,0,1-.33-1.84,4.34,4.34,0,0,0-3.88-3.75,31.38,31.38,0,0,0-.15-6.85,2.06,2.06,0,0,0-.43-1.16,2.9,2.9,0,0,0-1.56-.51,3.84,3.84,0,0,1-2.58-5.22,2.89,2.89,0,0,0,.44-1.17c0-1.68-3.07-1.17-3.92-2.61-.75-1.28.84-3,.08-4.31-.88-1.45-3.41-.26-4.71-1.34-1-.82-.68-2.39-.23-3.59-.8-1-2.22-1.21-3.43-1.68s-2.4-1.73-1.85-2.9a4.07,4.07,0,0,1,2.58.21"/><path class="cls-1" d="M86.42,100.54c.66-.73,1.84-.44,2.75-.1.74.28,1.57.66,1.79,1.41.41,1.4-1.58,2.66-1.2,4.06.19.72,1,1.21,1,2s-.62,1.3-1.11,1.87-.76,1.58-.11,2a4.33,4.33,0,0,1-5-2.21,3.32,3.32,0,0,0-.83-1.39c-.44-.32-1.08-.33-1.44-.73-.74-.82.37-2.17,0-3.19-.25-.65-1.09-1.1-1-1.79.16-.86,1.41-.68,2.29-.75a2.47,2.47,0,0,0,2.19-2"/><path class="cls-1" d="M98,109.29c.23.22.64-.13.56-.44s-.4-.49-.7-.6a5.09,5.09,0,0,0-5.19,8.52,3,3,0,0,1,.79.9c.36.86-.47,1.78-1.33,2.15a6.94,6.94,0,0,0-2.49,1.24c-1.28,1.44,0,3.69,1.5,4.93s3.31,2.69,3,4.6c-.21,1.44-1.64,2.53-1.66,4,0,2.71,4.29,3.23,5.31,5.75-.84,1.42-2.8,1.88-3.61,3.33-1.06,1.88.43,4.2,2.12,5.56s3.77,2.55,4.38,4.63c.49,1.67-.13,3.43-.43,5.14s-.1,3.81,1.4,4.68a7.54,7.54,0,0,1,1.4.76c1.24,1.15,0,3.48,1,4.81.52.68,1.58,1,1.66,1.87s-1.16,1.42-1.86,2.11c-1.15,1.13-.75,3.16.32,4.36a17.14,17.14,0,0,0,4,2.72c1.36.86,2.67,2.14,2.73,3.75.1,2.42-2.61,4.43-2.13,6.8s3.49,3,5.13,4.67a1.92,1.92,0,0,1,.59,1.12,2.58,2.58,0,0,1-.54,1.43c-.92,1.49-1.6,3.4-.8,5a13.69,13.69,0,0,0,2.2,2.44c.73.83,1.19,2.15.48,3-.32.39-.84.62-1,1.09-.23.62.26,1.27.73,1.75q1.16,1.17,2.43,2.25c1.43,1.2,3.09,2.34,5,2.37s3.85-1.54,3.58-3.39c-.36-2.43-4-3.36-4.25-5.8-.17-1.41.89-2.8.56-4.18-.42-1.79-2.82-2.36-3.68-4-1.48-2.84,2.62-5.93,2-9.08-.47-2.41-3.47-3.59-4.16-5.94-.61-2.08.79-4.21.84-6.37.06-3-2.56-5.49-5.32-6.77a2.68,2.68,0,0,1-1.16-.81c-.73-1.09.53-2.35,1.32-3.4,2.39-3.17.44-7.75-2.07-10.82s-5.72-6.13-5.86-10.09c-.1-2.5,1-5.33-.55-7.28-.86-1.09-2.5-1.92-2.25-3.28.19-1,1.34-1.46,2.14-2.1,2.43-2,1.59-5.88.09-8.63s-3.53-5.68-2.76-8.71a10.49,10.49,0,0,0,.66-2.59c0-2.53-3.23-3.53-5.74-3.81"/><path class="cls-1" d="M94.48,62.72c-8.21-.35-16.44-.52-24.65-.07-2,.09-4.1.27-6.14.41s-4.09.39-6.12.68c-4.07.48-8.1,1.21-12.1,2.05s-7.93,2-11.81,3.15c-1.93.67-3.87,1.28-5.74,2s-3.77,1.51-5.62,2.36c-3.69,1.71-7.34,3.54-11,5.45-1.78,1-3.73,1.9-5.25,2.89a8.56,8.56,0,0,0-1.9,1.68,2.71,2.71,0,0,0-.66,1.76l-.88-1.52a19,19,0,0,0,5.7,1.82c2.11.38,4.25.69,6.39.93,4.29.48,8.62.7,13,.76A239.88,239.88,0,0,0,53.8,85.93c8.68-.83,17.34-2,26-3.45s17.19-3.16,25.73-5,17-3.84,25.42-6.11c4.19-1.14,8.39-2.3,12.39-3.72,1-.34,2-.7,2.92-1.09.46-.2.91-.4,1.33-.6a8.67,8.67,0,0,0,1-.57c.08,0,.11-.15-.12.28a1.5,1.5,0,0,0-.07.2,2.06,2.06,0,0,0-.07.32,2.84,2.84,0,0,0,0,.42c0,.06,0,.17,0,.18h0a.34.34,0,0,1,0-.1,1.06,1.06,0,0,0-.24-.48A5.09,5.09,0,0,0,146.2,65a25,25,0,0,0-5.83-1.52c-2.08-.34-4.23-.55-6.39-.71-4.33-.29-8.71-.39-13.1-.36s-8.78.15-13.18.26S98.9,63,94.48,62.72Zm0-.6c4.37,0,8.76-.24,13.14-.61l13.14-1.2c4.4-.38,8.8-.77,13.26-.9,2.24-.06,4.48-.07,6.77.07a28.19,28.19,0,0,1,7,1.21,9.55,9.55,0,0,1,3.74,2.16A6,6,0,0,1,153,65.16q.11.34.18.69l0,.09s0,.2,0,.29a4.18,4.18,0,0,1,0,.62c0,.18-.07.35-.11.52a3,3,0,0,1-.16.4,4.45,4.45,0,0,1-1.17,1.51,11.62,11.62,0,0,1-1.77,1.24c-.55.32-1.08.6-1.62.87-1.06.53-2.11,1-3.16,1.44-4.22,1.7-8.45,3.09-12.71,4.37Q119.78,81,106.75,83.5c-8.67,1.76-17.41,3.18-26.17,4.37S63,90,54.19,90.65a245.52,245.52,0,0,1-26.59.59c-4.45-.17-8.9-.5-13.33-1.1-2.22-.3-4.42-.67-6.63-1.13A22.16,22.16,0,0,1,.9,86.65L0,86.12l0-1A6.52,6.52,0,0,1,.45,83a7.42,7.42,0,0,1,1.06-1.75,11.44,11.44,0,0,1,2.74-2.35,30.36,30.36,0,0,1,2.86-1.56l2.76-1.38c3.7-1.83,7.43-3.65,11.29-5.23,1.92-.79,3.88-1.52,5.85-2.19s4-1.26,6-1.87A115.56,115.56,0,0,1,45.13,64a181.12,181.12,0,0,1,24.68-2.07C78,61.74,86.28,61.88,94.5,62.12Z"/><path class="cls-1" d="M95.78,6.28c1.93-1.2,4.16,1.68,6.07,2.92A81.72,81.72,0,0,0,111.5,14c3.25,1.54,6.45,3.4,8.72,6.2s3.44,6.69,2.23,10.08c-1.26.29-2.48-.54-3.51-1.33L102.68,16.43c-2.74-2.11-5.53-4.27-7.49-7.11A3.09,3.09,0,0,1,95.78,6.28Z"/><path class="cls-1" d="M75.27,17.79a41.81,41.81,0,0,0-2.11,20.29,12.16,12.16,0,0,0,1.63,5.08,5.2,5.2,0,0,0,4.45,2.54A5.41,5.41,0,0,0,83.63,42a15.8,15.8,0,0,0,.66-6Q84.07,25.52,83.57,15c-.08-1.77.7-6.12-.61-5.72C80.22,10.11,76.39,14.74,75.27,17.79Z"/><path class="cls-1" d="M48,14.37A41.73,41.73,0,0,0,37,31.53a12.42,12.42,0,0,0-.83,5.27A5.23,5.23,0,0,0,39,41.08c1.86.8,21.31-29.21,19.72-30.86C56.68,8.16,50.35,12.14,48,14.37Z"/><path class="cls-1" d="M112.14,53.85a37.18,37.18,0,0,1,7.48,2c.91.35,2,1,1.93,1.94a2.22,2.22,0,0,1-1.2,1.58,12.07,12.07,0,0,1-4.94,1.76,6.82,6.82,0,0,1-4.28-.56,3.38,3.38,0,0,1-1.77-3.66c.41-1.41,2.38-2.21,3.47-1.23"/><path class="cls-1" d="M82.75,59.88a17.24,17.24,0,0,0-7.41-.76,3,3,0,0,0-1.52.49A1.17,1.17,0,0,0,73.41,61a1.72,1.72,0,0,0,1.19.68,36.38,36.38,0,0,0,9.65,1,5.67,5.67,0,0,0-4.15-2.27"/><path class="cls-1" d="M15.34,70.05A7.64,7.64,0,0,1,19,65.64a1.7,1.7,0,0,1,.68-.26,1.46,1.46,0,0,1,1.25.49c1.27,1.49.91,3.17,0,4.71a6.62,6.62,0,0,1-4.85,3.23,2.88,2.88,0,0,1-.93,0,.75.75,0,0,1-.72-.66A6.32,6.32,0,0,1,15,69.65"/><g id="meduse"><path class="cls-2" d="M150.53,66.88c4.76-5.26-13.85-42.82-41.81-60.54C88.11-6.72,47.53,3.54,39.36,9.28,14,27.1-6,77.43,2,83.72,20.7,98.25,137.68,81.06,150.53,66.88Z"/><path class="cls-3" d="M18.5,71.37C10,114.25,24.3,169.55,29.68,190c10.24,38.87,29.4,61.6,32.87,88.06,3.22,24.53,3.15,26.66,1.35,37.92-5.43,34.05,4.88,30.21,11.26,67.32"/><path class="cls-3" d="M115.9,59.74c26.38,47.79,24.94,58,31.36,81.15,12.34,44.49-2.42,31.42,4.24,65.67,2.32,11.94,9.68,23.07,6.36,54.2-1.68,15.72-18.08,34.5,5,87.78"/><path class="cls-3" d="M80.53,60.69c-11.07,44.7-10.16,61.43-7,86.95,5.6,45.84-2.54,62.76-3,74.79-.85,20.6,20.53,40.14,9.38,68-11,27.61,1.49,24-4.31,65.66"/><path class="cls-4" d="M90.09,81.15c5.79-.9,10.82,6.72,7.72,11.69,5,.18,9.07,5.77,7.66,10.6-.42,1.44-1.24,3-.69,4.36.89,2.26,4.55,2.28,5.48,4.53,1,2.56-2.48,5.21-1.73,7.88.7,2.5,4.73,3.37,4.56,6-.11,1.6-1.94,3-1.36,4.47s3.35,1.7,3.36,3.34c0,.92-.93,1.52-1.41,2.3-1.11,1.78,1,4.46,3,3.79-1.51,2.62-1.12,5.9-.39,8.84.58,2.3,2.32,5.11,4.57,4.34a35.69,35.69,0,0,0-.33,10.82c2.34.9,3.59,3.59,3.58,6.1a18.79,18.79,0,0,1-2,7.18l4.47,2.94-3.16,7a6.08,6.08,0,0,1,4.64,7.1c-.3,1.23-.94,2.68-.11,3.64.65.75,2,.78,2.4,1.67.54,1.08-.69,2.28-.58,3.48s1.35,1.83,1.8,2.89c1.12,2.65-3.11,4.93-2.83,7.79s4.27,3.66,4.85,6.32c.39,1.79-.94,3.45-1.45,5.2-.84,2.92.64,6,.76,9s-2.71,6.68-5.35,5.19c1-1.73-.8-3.8-2.6-4.71s-4-1.81-4.41-3.8c-.16-.85.07-1.82-.45-2.52-.64-.85-1.93-.69-3-1-2.81-.76-3.25-4.43-4-7.25-1.24-4.93-4.8-8.89-7.41-13.25-2.18-3.64-3.76-7.91-3-12.09a5.67,5.67,0,0,0,.1-3.05c-.75-1.85-3.57-2.12-4.33-4-.68-1.65.72-3.64,0-5.28-.83-1.89-4-2.24-4.19-4.29-.11-1.3,1.18-2.48.84-3.74-.2-.73-.88-1.2-1.34-1.81-1.17-1.55-.72-3.72-.82-5.66s-1.6-4.26-3.44-3.64l1.68-4.46-2.3-2,1-3.36-7-2.2,2.61-5.35-2.69-1.57,2.28-3.64-5.28-2.64c4.25-2.79-1.14-10.7,2.51-14.25L76.12,122a14.63,14.63,0,0,1,1-5.59l-4.5-1,2.51-4.63-3.46-2.29,1.72-3.81-5.17-.9A6.81,6.81,0,0,1,70,99.89L66.12,98a11.29,11.29,0,0,0,2.24-4.68L62,93.09a36.21,36.21,0,0,1,30-12.77"/><g class="cls-5"><path class="cls-6" d="M50.09,87c-2.47-.48-4.6,2.45-4.08,4.92s2.84,4.18,5.23,5c1,.32,2.24.83,2.19,1.86,0,.67-.62,1.15-.9,1.76-.72,1.64,1.08,3.29,2.78,3.87s3.74,1,4.58,2.53l-2.68,2.66c-.52,3.15,6.43,4.32,5,7.2-.41.85-1.45,1.21-2,2-1.31,1.77.6,4.13,2.44,5.35s4.07,3,3.39,5.1c-.26.79-.91,1.42-1.07,2.24-.66,3.4,6.57,3.13,7.07,6.56.26,1.73-1.51,3.14-1.72,4.88-.28,2.26,2,3.88,3.36,5.72a15.76,15.76,0,0,1,1.91,4.14l1,2.88L82,171.07a10.24,10.24,0,0,1,.8,3.91c0,.87-.31,1.83.19,2.55s1.79.83,2.66,1.35c2.18,1.29,1.11,4.68,2,7.05.67,1.76,2.4,2.83,3.7,4.19s2.13,3.67.83,5a5.06,5.06,0,0,1,5.54,5.4c-.18,1.41-.94,3,0,4.12.73.92,2.13.87,3.17,1.41,2.26,1.18,2,4.39,2.41,6.91s3.8,5,5.1,2.84c.24,2.12.53,4.37,1.86,6s4.07,2.41,5.6.92c.54,2.25,3,5.06,4.47,3.3,1.22-3.61-5-6.34-4.27-10.08.41-2.06,2.86-4.11,1.55-5.75-1.12-1.41-3.75-.33-5-1.65-1.35-1.47.49-3.63.91-5.57,1.05-4.89-7-7.12-7.84-12.06-.4-2.57,1.09-5.93-1.07-7.39-1.3-.88-3.14-.31-4.55-1-4.39-2.19,2.21-10.34-1.51-13.55-.93-.8-2.3-1-3.08-2-2-2.47,1.84-7.06-.64-9.07-1.64-1.33-4.57.13-6-1.42-1.85-2,1.58-4.8,1.66-7.51s-3.88-4-5.5-2c-1.63-.84-1.29-3.28-.47-4.92s1.9-3.56,1-5.16c-1.32-2.36-6.11-2.36-5.73-5,.12-.82.79-1.45,1.1-2.22.73-1.75-.62-3.79-2.37-4.52a10.92,10.92,0,0,0-5.6-.27c1.31-2,2.66-4.22,2.56-6.62s-2.4-4.84-4.69-4.11c-3.13-1.86,3.83-7.57.87-9.71-1.83-1.32-5.5,1.07-6.21-1.08-.49-1.5,1.72-2.52,2.12-4,.65-2.47-3.18-3.33-5.7-2.9-.82-2.67,4.45-4.37,3.59-7-.56-1.74-3.1-1.61-4.75-.83s-3.61,1.84-5.16.87-1.48-3.07-1.28-4.82L49.85,86"/></g><g class="cls-7"><path class="cls-6" d="M29.82,74.57c2.44,5.69,6.46,3.54,8.9,9.24,1.1,2.55,6.91,4,9.27,6.18,4.07,3.82,5.73-2.8,10.5-3.71s8.44,1.74,11.7-.85c6.36-5.05,11.16,1.64,17.52-3.41a6.84,6.84,0,0,1,4.52-1.92c2.51.05,5.08,1.77,7.63,2.82,5.14,2.11,5.07-6.14,8.73-8.13s-7.11-10.24-4.89-13.35c1.1-1.55-3.11-3.7-4.33-5.56-4.59-7.08,8.89.95,8.28-7.46-.15-2,9.31-6.56,3-9.65-3.87-1.9-1.39-11.47-10.67-15.41a10.49,10.49,0,0,0-4.56-1.11c-4.61.4-3.06,7.49-7.9,7.31-3-.12-5.48-2.93-8-4.94-5.54-4.51-14.17-5.86-18.74-3s-4.55,9.4-.1,14.54c-7.93-1.49-16.85-2.82-21.68.83-1.95,1.47,7.16,13.86,6.24,16-4,9.13-15.56,4.17-15.9,14.63C29.33,69.3,29.82,74.57,29.82,74.57Z"/></g></g><path class="cls-1" d="M75.1,143.17c-.93,1.06.31,2.74,1.67,3.14s2.91.22,4.09,1a1,1,0,0,1,.57.91,1.13,1.13,0,0,1-.34.62,10.46,10.46,0,0,1-3.21,2.42,6.72,6.72,0,0,0,7.68,4,18.47,18.47,0,0,1-.48-5.34,2,2,0,0,1,.21-.92c.6-1,2.24-.42,3.29-1a5.85,5.85,0,0,0-7.77-2.47c-.47.26-1.19.52-1.42,0s.73-1.28.33-1.78C78.76,143.17,75.72,142.46,75.1,143.17Z"/><path class="cls-1" d="M74.42,132.77c-1.15-.39-2.81.58-2.36,1.72.51,1.31,2.81.81,3.54,2a1.09,1.09,0,0,1-1,1.31A5.88,5.88,0,0,0,77.07,139a2,2,0,0,0,2.26-1.11c.37-1-.48-2.11-1.37-2.77s-2-1.26-2.28-2.32a2.29,2.29,0,0,0,1.85-1,6.5,6.5,0,0,0-5.46-1.39c-.34.07-.59.67-.25.61"/><path class="cls-1" d="M125.06,221.74a9.7,9.7,0,0,1,3.61,1.82c.54.44,1.08,1.09.89,1.77s-.89,1-.75,1.64a2,2,0,0,0,.53.74,2.23,2.23,0,0,1-.92,3.26,3.08,3.08,0,0,1-3.5-1,5.14,5.14,0,0,1-1-3.7c.11-1.24.36-2.84-.75-3.43a3,3,0,0,1-.4-.21,1,1,0,0,1,.2-1.49,2.78,2.78,0,0,1,1.69-.3"/><path class="cls-1" d="M120.15,171.9c-.35,1.51-1.49,2.86-1.37,4.4.15,1.83,2,3,3.69,3.69.84.33,1.89.84,1.83,1.75a1.83,1.83,0,0,1-.57,1c-.91,1-2.18,1.78-2.39,3.09-.07.41-.06.9-.4,1.13a1.12,1.12,0,0,1-.54.15,3.2,3.2,0,0,1-1.54-.12,1.05,1.05,0,0,1-.62-1.27c.19-.42.7-.58,1-.94a1.52,1.52,0,0,0-.41-2,4.53,4.53,0,0,0-2.17-.73,4.2,4.2,0,0,1-2.14-.8,1.46,1.46,0,0,1-.48-.84c-.15-1.2,1.57-1.69,2.15-2.75a.62.62,0,0,0,.1-.38c-.06-.34-.49-.43-.82-.55a2.36,2.36,0,0,1-1.12-3,6.9,6.9,0,0,1,2.23-2.73,5.27,5.27,0,0,1,2.09-1.29,1.8,1.8,0,0,1,2.09.89"/><path class="cls-1" d="M110.57,132.1c.24.08.53.19.6.44s-.16.57-.38.77l-2.53,2.26a.86.86,0,0,0-.3.41.71.71,0,0,0,.06.38c.4.86,1.54,1,2.46,1.16s2,1,1.59,1.88-2.39.87-2.32,1.93c0,.42.42.77.34,1.18s-.7.62-1.19.62c-1.33,0-3-.39-3.23-1.71a3.21,3.21,0,0,1,.12-1.23,14.53,14.53,0,0,0,.3-3.54,2.63,2.63,0,0,0-.72-2c-.32-.26-.75-.38-1.08-.64a1.92,1.92,0,0,1,.1-2.77,3.81,3.81,0,0,1,3-.76c.28,0-.58.91-.58,1.91C106.77,132.5,109.45,131.76,110.57,132.1Z"/><path class="cls-1" d="M86.26,163.45a4.76,4.76,0,0,1,2.53.33,1.07,1.07,0,0,1,.56.41c.24.41-.06.94-.44,1.22a6,6,0,0,0-1.17.8,2,2,0,0,0,.34,2.57,12.33,12.33,0,0,0,2.38,1.55A2.82,2.82,0,0,1,92,172.59a5.83,5.83,0,0,0-.13,1.6c.29,1,1.89,1.14,2.32,2.13a1.59,1.59,0,0,1-1.13,2,3.93,3.93,0,0,1-2.49-.3,3.2,3.2,0,0,1-1.29-.77c-.89-1-.31-2.61-.46-4-.29-2.64-3.49-4.68-2.82-7.25a6.79,6.79,0,0,0,.59-2"/><path class="cls-1" d="M106.33,12.73C114.05,21.46,121,32.83,121.39,46c0,.78,0,1.72-.55,2.12s-1.47-.19-2-.88c-2.17-2.77-3.95-6-6-8.88-2.92-4.05-6.42-7.37-9.35-11.41-4.19-5.78-13-15.4-8.45-20.7C97.29,3.56,103.7,9.76,106.33,12.73Z"/><path class="cls-1" d="M82.86,11.12c4,4.32,5.56,11.11,6.6,17.61a169.28,169.28,0,0,1,1.38,42c-.14,1.58-.62,3.56-1.86,3.69a2.15,2.15,0,0,1-1.65-.88c-2.28-2.37-3.46-6-4.49-9.54a136.37,136.37,0,0,1-5.45-25.91c-.8-8.91-.16-18.19,2.81-26.31.36-1,1.56-2,1.88-1"/><path class="cls-1" d="M37.79,10.61c-1.17,3.86-3.78,8.21-6.24,12.13Q26.6,30.62,21.47,38.21A115,115,0,0,1,11.88,51c-1.74,1.9-3.53,3.51-4.82,3.79S5.15,53.67,6,51.1a30.42,30.42,0,0,1,2.73-5.44A153.34,153.34,0,0,1,20.18,28.1c2.3-2.89,4.62-5.3,6.91-7.68l8.35-8.68c.84-.87,1.92-1.78,2-1"/><path class="cls-1" d="M50.63,46.53c-2.11,6.67-4.78,13.72-9.26,18-.46.44-1,.88-1.47.78-.71-.15-.84-1.34-.84-2.35-.09-17.29,6-36.54,16-50.93a3.84,3.84,0,0,1,.87-1c.81-.56,1.63.12,1.85,1.13a9.12,9.12,0,0,1-.21,3.37C56.94,19.08,53,39.08,50.63,46.53Z"/><path class="cls-8" d="M75,383.13c-1.73-9.84-4.71-19.4-7.68-28.93l-4.87-15.64"/><path class="cls-8" d="M75.13,351.91a97.81,97.81,0,0,1,8,16.44,77.66,77.66,0,0,0,10.16,18.52"/><path class="cls-8" d="M89.64,357.91c2.81-8.36,7.19-16.08,10.77-24.14s6.4-16.73,5.82-25.53a20.76,20.76,0,0,0-1-6.37"/><path class="cls-8" d="M75.58,356.43c1.19-11.85,2.39-23.79,1.24-35.63"/><path class="cls-8" d="M150.08,388.14,154,366.2"/><path class="cls-8" d="M162.78,348.87c-2.38-3.27-3.42-7.3-4.36-11.23-2.8-11.68-7-23.3-7.11-35.31"/><path class="cls-8" d="M186.27,306.87c3,6,11,22.21,15.52,27.22"/><g id="filaments"><path class="cls-3" d="M29.85,83.41c1.1,48.7,4.69,58.08,11.12,81.25,12.34,44.49,2.46,53.08,9.12,87.32,2.32,12,9.57,19.91,6.25,51-1.68,15.73,25,61.13,36.51,83.51"/><path class="cls-3" d="M148.21,65.91c26.38,47.8,19.77,72.73,26.19,95.9,12.34,44.49-5.11,27.09,1.55,61.33,2.32,11.94.61,17.05,1.8,50.57.22,6.32-1.44,21.88,23.67,60.54"/><path class="cls-3" d="M117.29,77.46c-5.71,61.9-7.72,64.84-1.3,88,12.34,44.49-9,67.4-13.34,78.63s-8.7,31,2.73,58.76c6,14.62-13.29,44.46-15.77,55"/><path class="cls-3" d="M52.44,86.72c34.32,57.64,30.1,75.61,37.78,92.64,6.19,13.7,39.76,51.72,42.74,71.57,1.8,12-3.84,38.15,11.14,64.16,18.21,31.63,11.89,31.85,6.09,73.51"/></g><path class="cls-1" d="M145,51.4c2.36,1.33,3.93,3.68,5.42,5.93s2.83,4.33,3.11,6.84-1,5.4-3.41,6.08a.9.9,0,0,1-.56,0,1.08,1.08,0,0,1-.5-.55,66.63,66.63,0,0,1-5-12,7.13,7.13,0,0,1-.42-3.09c.16-1-.15-3.27.88-3.47"/><path class="cls-1" d="M114.67,67.55c1.56-.72,3.26.74,4.1,2.24A9.93,9.93,0,0,1,120,76.54a7.26,7.26,0,0,1-4.17,5.29,1.85,1.85,0,0,1-1.57.08,2.08,2.08,0,0,1-.82-1.54,25.1,25.1,0,0,1,.45-11.14c.3-1.1,1.1-2.43,2.2-2.14"/><path class="cls-1" d="M55.72,90.42a10.42,10.42,0,0,0-1-13.54,1.28,1.28,0,0,0-.86-.5,1.46,1.46,0,0,0-1,.44c-3.25,2.84-3.3,6.84-3,10.5.1,1.3.68,3,2.51,3.13,1.61.14,2.87-1,4.47-1.22"/><path class="cls-1" d="M31.77,89.61c2.09-2,2-6.32,2.07-9a5.4,5.4,0,0,0-.44-2.75,2.7,2.7,0,0,0-2.5-1.45c-1.53.14-2.3,1.67-2.67,3a31.27,31.27,0,0,0-1.14,9.89,2.38,2.38,0,0,0,.34,1.33,2.37,2.37,0,0,0,2.6.55,6.39,6.39,0,0,0,2.23-1.6"/><path class="cls-1" d="M81.67,86.67c-1.14,1.55-3,1.19-4.25-1s-1.48-6.07-.46-7.89a3.35,3.35,0,0,1,2.56-1.6L84.78,75a1.79,1.79,0,0,1,2.33,1.36,6.44,6.44,0,0,1,.22,1.92c0,5.66-2.74,9.87-5.76,8.92"/></g></g></svg>