<svg xmlns="http://www.w3.org/2000/svg" viewBox="0 0 439.05 605.26" width="440px" height="606px"><defs><style>.cls-1,.cls-4,.cls-9{fill:#dc0073;}.cls-1,.cls-10,.cls-9{stroke:#dc0073;}.cls-1,.cls-10,.cls-3,.cls-8,.cls-9{stroke-miterlimit:10;}.cls-2,.cls-6,.cls-7{fill:#fff;}.cls-2{opacity:0.8;}.cls-10,.cls-3,.cls-8{fill:none;stroke-linecap:round;}.cls-3,.cls-8{stroke:#fff;stroke-width:2px;}.cls-3,.cls-5,.cls-7{opacity:0.4;}.cls-9{stroke-width:0.67px;}.cls-10{stroke-width:1.75px;}</style></defs><title>Asset 1</title><g id="Layer_2" data-name="Layer 2"><g id="pink"><path class="cls-1" d="M92.28,86.19c-3,7.12-4.48,14.8-5.58,22.46a263.18,263.18,0,0,0-2.44,48.59c2.46.93,5.28-.74,6.6-3s1.54-5,1.86-7.61c4.08-33.74,33.65-98.2,32.94-97.85C114.56,54.27,98.31,72,92.28,86.19Z"/><path class="cls-1" d="M51,68.09q6.21-9.59,13.3-18.56C70,42.4,79.24,29.28,86.26,35c3.66,3-3.34,8.49-6.94,11.56-17.5,15-28.1,36.28-38,57.06-1.08,2.27-2.53,4.82-5,5.2S43.66,79.43,51,68.09Z"/><path class="cls-1" d="M191,372.27c.51-2.57,4.25-2.17,6.77-1.45s6.51-.4,5.61-2.86c-.54-1.48-2.53-1.69-4.11-1.64l-3.37.1c-1.9.06-4.14.3-5.09,2s-1.25,6-.18,4.38"/><path class="cls-1" d="M195.66,363.76c1.77-.63-4-6-.16-5.95.95,0,.18-2-.38-2.76-1.37-1.87-4.65.36-4.36,2.66S193.48,364.54,195.66,363.76Z"/><path class="cls-1" d="M190.87,344.61a3.51,3.51,0,0,0,1.34-.17c1.46-.6,1.25-3,0-3.89s-3-.86-4.57-.75c3.92.14,5.55-5.35,4.14-9s-4.45-6.63-5.3-10.45c-1.65-.22-2.64,1.92-2.35,3.55s1.31,3.09,1.42,4.75-1.46,3.58-2.94,2.84c1.82,2.79.89,6.48-.11,9.67,2.56.05-6.38,3.56-3.82,3.61C178.66,344.76,187,344.56,190.87,344.61Z"/><path class="cls-1" d="M171.26,295.47a5.08,5.08,0,0,1,6.11,1.79c-2,1.28-5.34,2.25-4.71,4.5s5.09,0,4.62,2.17c-.59,2.71-5.31,1.78-8.08,1.62a3.82,3.82,0,0,1-1.88-.49c-1.46-1-1.07-3.41.3-4.51s4.63.4,5-1.32c.42-1.92-5.49-.77-5.24-2.72.29-2.28,4.48-1,6.72-1.51"/><g id="meduse2"><path class="cls-2" d="M167.72,98.75l-1-.55,1,.56.09,0Zm-5.8-93.32q-1-.31-2-.6A112.73,112.73,0,0,0,147.33,2c-1.15-.2-2.31-.38-3.49-.55C140,.85,136,.46,131.93.26c-80-4-111,39-121,64C7.5,72.84,6.69,87,9.65,103.05c.58,3.17,1.31,6.41,2.2,9.69a122.86,122.86,0,0,0,21.59,43.51,109.42,109.42,0,0,0,42.49,33,200.09,200.09,0,0,0,25.1,8.52c3,.83,6.2,1.66,9.53,2.46s6.91,1.6,10.55,2.33a261.11,261.11,0,0,0,28.66,4.16l.94.08c2.33.19,4.66.34,7,.46,6.28.3,12.62.33,18.91,0q3.54-.2,7.05-.54l1.1-.12q5.9-.62,11.65-1.75c21.36-4.24,40.65-14.05,53.1-33-.12-.6-.24-1.22-.37-1.84.38-.63.74-1.27,1.09-1.91a28.66,28.66,0,0,0,1.9-4.2,11.24,11.24,0,0,0,.76-4.32,5.19,5.19,0,0,0-.16-1,5.12,5.12,0,0,0-.43-.93,14.41,14.41,0,0,0-1.27-1.84,36.48,36.48,0,0,0-3.17-3.43c-2.25-2.19-4.65-4.24-7.1-6.24-4.9-4-10.06-7.69-15.28-11.29-3.12-2.16-6.3-4.23-9.5-6.27l1.81,1.28c3.59,2.55,7,5.07,10.17,7.51l1,.73,1.85,1.45.9.72c2.41,1.92,4.65,3.79,6.69,5.58l1.29,1.15c1,.91,2,1.81,2.89,2.68l.63.62.61.6c.4.4.79.8,1.16,1.19l.75.79c.29.32.57.62.84.93l.48.55.88,1,.43.56q.21.26.39.51a17.8,17.8,0,0,1,2.2,3.69c.06.14.11.28.16.41s.07.21.1.31a5.06,5.06,0,0,1,.24,1.14c0,.13,0,.26,0,.39a1.93,1.93,0,0,1,0,.24,9.32,9.32,0,0,1-.22,1.47q-.06.28-.15.57a.5.5,0,0,1,0,.13,5.43,5.43,0,0,1-.17.53c0,.09-.06.18-.1.27a3.37,3.37,0,0,1-.2.49.85.85,0,0,1-.09.22,4.26,4.26,0,0,1-.27.58,1.42,1.42,0,0,1-.08.18l-.26.5c-.26.48-.56,1-.88,1.45-.43.65-.91,1.31-1.45,2-.26.33-.53.65-.81,1s-.57.66-.87,1c-.81.88-1.7,1.76-2.65,2.63l-.72.66c-1.06.95-2.2,1.9-3.38,2.84-.45.35-.91.71-1.38,1.06-2.48,1.88-5.17,3.71-7.94,5.46l-1.11.69c-1.94,1.2-3.92,2.35-5.89,3.45l-2,1.07-2.3,1.21c-1.06.55-2.12,1.08-3.16,1.6A128.11,128.11,0,0,1,203,199.08c-.49.18-1,.34-1.42.49s-.9.3-1.33.43l-.63.19-.6.17-.57.15c-.37.1-.72.18-1,.25-.92.19-1.83.38-2.74.55l-2.45.48-1.8.34-2.09.37-2,.34c-.41.08-.82.14-1.23.2h0c-.21,0-.42.08-.63.1l-1.69.27-1,.14c-1.57.23-3.11.44-4.64.63-1.91.24-3.78.44-5.63.62l-2.68.24-2,.16-1.28.09h0l-.86.06c-1.31.08-2.59.15-3.87.2l-1.42,0c-1.44.05-2.87.08-4.28.09h0c-1.51,0-3,0-4.48,0h-.72l-.71,0-1.86-.06-1.15-.05c-.83,0-1.65-.08-2.47-.13h0c-.9-.05-1.8-.12-2.68-.19l-.91-.07c-.83-.07-1.67-.15-2.49-.24s-1.84-.19-2.75-.3q-3.45-.42-6.76-1c-1.1-.19-2.19-.38-3.28-.59s-2.12-.42-3.17-.64h0l-.19,0c-.7-.15-1.39-.3-2.08-.47s-1.3-.3-1.94-.46l-.43-.11c-.71-.17-1.42-.35-2.12-.54l-.8-.21-1.46-.41-1.32-.37-.31-.09c-.66-.2-1.32-.39-2-.6-.83-.25-1.64-.51-2.45-.78-1.22-.39-2.43-.81-3.62-1.24l-1.82-.65c-.74-.26-1.48-.54-2.21-.82L97.27,195c-1-.39-2-.8-3-1.21L92.34,193l-.1,0-1.73-.75-1.79-.79q-1-.42-1.92-.87c-1-.45-2-.91-3-1.38q-2.09-1-4.14-2t-4.11-2.08q-2.05-1-4.09-2.13c-.91-.48-1.83-1-2.74-1.46l-.21-.11-1.13-.6-1.13-.63-1.13-.66c-.78-.47-1.57-1-2.36-1.49l-1.1-.74c-2-1.38-4-2.93-6.08-4.63l-1-.81c-.4-.33-.79-.67-1.18-1l-1.18-1.05c-.45-.41-.9-.82-1.35-1.25-.64-.6-1.29-1.22-1.93-1.86s-1.48-1.46-2.21-2.23c-.35-.35-.69-.71-1-1.07-.56-.59-1.11-1.18-1.66-1.79-.13-.13-.25-.27-.38-.42-.34-.38-.68-.75-1-1.13-1-1.14-2-2.32-3-3.52-.23-.27-.46-.55-.68-.83-.44-.53-.86-1.06-1.28-1.6l-1-1.24c-.65-.83-1.28-1.67-1.9-2.52h0c-.79-1.07-1.57-2.16-2.33-3.26l-1.14-1.67-1.11-1.68q-1.11-1.69-2.16-3.42h0c-.63-1-1.25-2.07-1.85-3.12q-1.66-2.9-3.18-5.87c-.27-.53-.53-1.07-.79-1.6-.59-1.2-1.16-2.4-1.7-3.62q-.4-.89-.78-1.77c-.8-1.87-1.55-3.75-2.23-5.64-.2-.54-.39-1.08-.58-1.63-.48-1.41-.93-2.83-1.34-4.25-.32-1.07-.61-2.15-.87-3.22-.31-1.23-.58-2.45-.82-3.67-.13-.61-.24-1.22-.34-1.82s-.18-1.08-.26-1.62c-.11-.72-.2-1.44-.28-2.15-.07-.52-.13-1-.17-1.56,0-.07,0-.13,0-.19,0-.39-.07-.79-.09-1.18q-.09-1.17-.12-2.31,0-.89,0-1.77v-.38c0-.62,0-1.23,0-1.83l.06-1c0-.23,0-.46.05-.68s0-.38,0-.57c0-.34.06-.67.1-1,.1-1,.24-2,.41-3,.11-.65.24-1.29.38-1.91A33.16,33.16,0,0,1,15,78.66,25.6,25.6,0,0,1,16.16,76c.15-.3.3-.6.46-.89s.31-.58.48-.86.43-.72.67-1.07a6.49,6.49,0,0,1,.36-.55l.05-.07.08-.1a5.46,5.46,0,0,1,.36-.48c.21-.3.45-.6.69-.89l.59-.69C25.79,63.82,35,61.11,46,60.94h.21c1.92-.08,3.85-.09,5.76-.07a173.43,173.43,0,0,1,37.9,5.41q6,1.49,12,3.26,3.23,1,6.42,2c3.73,1.2,7.42,2.5,11.08,3.86l2.54.95,4.4,1.72.56.23q8.69,3.44,17.18,7.35L147,87q6.63,3.09,13.15,6.43a.15.15,0,0,1,0,.07l.07,0,1,.48c2.36,1.22,4.7,2.47,7,3.73q4,2.13,7.92,4.35,7.68,4.29,15.23,8.82l3.11,1.88,1.4.86q7.44,4.57,14.74,9.36c5.35,3.45,10.6,7,15.83,10.68s10.33,7.44,15.32,11.42c2.49,2,4.93,4.06,7.25,6.29a46.5,46.5,0,0,1,3.34,3.52,16.45,16.45,0,0,1,1.47,2,7,7,0,0,1,.58,1.23,6.45,6.45,0,0,1,.26,1.37,12.82,12.82,0,0,1-.71,4.75C261.16,149.79,248.21,32.05,161.92,5.43Z"/><path class="cls-3" d="M194.93,203.26c4,4,18.32,50.53,25,75,3.93,14.41,29.49,86.11,32,99,8,41,23,41,47,67,31.15,33.74-4.44,66.74,2,87,7,22,13,35-9,73"/></g><path class="cls-4" d="M160.1,93.42a.15.15,0,0,1,0,.07l.07,0Zm7.62,5.33-1-.55,1,.56.09,0Zm81.81,73.16c-.12-.6-.24-1.22-.37-1.84A67.42,67.42,0,0,1,245.1,176q-2.86,3.75-6.07,7.22a73.83,73.83,0,0,1-6.73,6.52,43.33,43.33,0,0,1-7.82,4.92,71.53,71.53,0,0,1-8.61,3.62,113.26,113.26,0,0,1-18.2,4.57l-2,.34c-3.74.61-7.5,1.07-11.28,1.41l-1.46.12q-3,.24-6,.38c-3.82.18-7.64.24-11.46.2h0c-1.78,0-3.55,0-5.33-.11-3-.1-5.94-.27-8.91-.49l-1.13-.09-1.69-.15A214.24,214.24,0,0,1,124.76,201q-7.07-1.43-14-3.32-5-1.33-9.82-2.91-7.16-2.28-14.14-5.07c-5.82-2.34-11.55-4.89-17.13-7.75l-.9-.47-.21-.11c-1-.52-2-1.05-3-1.59-1.3-.77-2.59-1.58-3.86-2.45-2.55-1.72-5-3.63-7.42-5.59A141.47,141.47,0,0,1,34.55,151.8h0q-3-3.64-5.68-7.47c-7.18-10.23-13-21.64-16-33.88a57.09,57.09,0,0,1-1.35-9.31c-.07-1.47-.09-2.95,0-4.42v0c.05-1.67.18-3.33.37-5a48,48,0,0,1,1.92-8.85A33.16,33.16,0,0,1,15,78.66,28,28,0,0,1,16.16,76c.15-.3.3-.6.46-.89s.31-.58.48-.86.43-.72.67-1.07l.49-.72-.08.1-.05.07c-.24.32-.46.65-.68,1a46.49,46.49,0,0,0-6.34,18,56.29,56.29,0,0,0-.64,8.6,60.47,60.47,0,0,0,1,10.56c.13.67.27,1.33.41,2a106.43,106.43,0,0,0,14.09,33.53,125.45,125.45,0,0,0,7.36,10.52,131.48,131.48,0,0,0,17.82,18.73,96.33,96.33,0,0,0,7.72,6c1.34.94,2.72,1.83,4.15,2.69s2.87,1.58,4.29,2.35a186.4,186.4,0,0,0,17.52,8.11q8,3.22,16.31,5.75,3.72,1.16,7.48,2.14,4.95,1.32,10,2.37c1.06.23,2.13.45,3.2.66a221,221,0,0,0,29.11,3.79l.45,0q3.28.21,6.57.31l2.14.05c5.42.09,10.86,0,16.27-.39q3.5-.23,7-.58l3.22-.38q5.39-.68,10.73-1.7l1.16-.23a115.75,115.75,0,0,0,18.55-5.4,77,77,0,0,0,8.81-4.07,48.41,48.41,0,0,0,8.11-5.46,73.57,73.57,0,0,0,6.82-6.86q3.19-3.6,6-7.49,1.58-2.16,3-4.42c.77-1.22,1.5-2.46,2.18-3.74a30.65,30.65,0,0,0,2-4.5l.09-.26A74.29,74.29,0,0,1,249.53,171.91Zm-89.39,33.27c-3-.1-5.94-.27-8.91-.49a12.08,12.08,0,0,0,3.8,1h0c1.41,0,2.84,0,4.28-.09l1.42,0c1.28-.05,2.56-.12,3.87-.2l.86-.06C163.69,205.28,161.92,205.24,160.14,205.18Z"/><path class="cls-4" d="M171.48,207.27c-2.5-1-5.11-2.62-3-7.44,6.11-4.18,11,.17,16.52.52,2.05.13,4.11-.3,6.16-.11s4.23,1.25,4.83,3.21S177.71,209.7,171.48,207.27Z"/><g id="meduse"><path class="cls-3" d="M117.16,279.26c8,19,13.77,37,28.77,69,4.57,9.75,28,26,48,54"/><path class="cls-3" d="M195.93,113.26s0,.11-.08.33"/><path class="cls-3" d="M34.93,150.26s-20.64,81.82-24,112c-7,63,1,89-4,139-2,20.51,7,72,23,86,15.44,13.51,30,23,74,9"/><path class="cls-3" d="M100.93,194.26s1.65,64.31,7,116c6,58,52,108,47,158-2.05,20.51-42,14-28,62,5.75,19.7,21,26,37,22"/><path class="cls-3" d="M101.93,69.26s0,.09,0,.27"/><g class="cls-5"><path class="cls-6" d="M160.1,93.42Q153.57,90.09,147,87l-2.88-1.34q-8.49-3.9-17.18-7.35a5.22,5.22,0,0,1,6.09-2c1.88.73,3.15,2.5,4.89,3.53a8.77,8.77,0,0,0,4.7,1.09,14.93,14.93,0,0,0,2.75-.3c2.5-.5,4.91-1.44,7.42-1.89a2.63,2.63,0,0,1,1.55.06,2.12,2.12,0,0,1,1,1.5c.08.3.14.62.19.92A41.32,41.32,0,0,0,160.1,93.42Z"/></g><g class="cls-5"><path class="cls-6" d="M158.41,93.85l-.06,0,.07,0Z"/></g><g class="cls-5"><path class="cls-6" d="M168.31,123.21c-.27,2.91-2.45,5.22-4.34,7.46a52.3,52.3,0,0,0-9.83,17.92,8.53,8.53,0,0,0-.55,3.76A14.36,14.36,0,0,1,154,155a5.8,5.8,0,0,1-.95,2.52c-2.11,3.71-4.33,7.54-7.76,10.1l-.13.1a17.61,17.61,0,0,0-3.7,2.91c-1.09,1.38-3.33,4.58-5.53,7.82-.91,1.33-1.81,2.66-2.61,3.88-1.52,2.29-2.73,4.17-3.1,4.83-1.14,2.05.19,5.37-1.85,6.53a4.23,4.23,0,0,0-5.19,1.59,7.4,7.4,0,0,1,1.54,5.7,6.63,6.63,0,0,1-.34,1.38,3.74,3.74,0,0,0-2.92,0l-.39.18a7.85,7.85,0,0,0-2.56,2.35,17.06,17.06,0,0,0-2.35,4.59l-2.85,8.36c3.78,3.82-2.58,11.57,1.3,15.29.52.49,1.2.87,1.46,1.53.69,1.69-1.78,3.13-1.82,4.95s2.32,3,2.33,4.79c0,2-2.91,3.55-2.16,5.43.33.83,1.29,1.26,1.7,2,1.11,2.12-2.33,4.31-1.81,6.64s3.91,2.4,4.83,4.46c.59,1.33-.25,2.79-.66,4.19-1.29,4.38-1.06,6.45-.36,12.06a4.33,4.33,0,0,1,0,2.28c-.91,1.36-5.61-9.26-6.78-13.46q-1.33-4.79-2.5-9.6a9,9,0,0,1-.33-4.05,13.33,13.33,0,0,0,.71-2.67c.05-2.39-3-4.15-2.6-6.52.18-1.15,1.18-2.17,1-3.33-.27-1.6-2.56-2.09-3.13-3.62-1-2.67,4-5,2.78-7.58-.46-1-1.68-1.4-2.21-2.34-1.43-2.51,3-5.13,2.3-7.93-.51-2.05-3.52-2.8-3.81-4.9-.38-2.69,4-4.2,3.73-6.9-.08-.72-.51-1.37-.62-2.09-.24-1.48.81-2.77,2-4a18,18,0,0,0,2-2.31,3.22,3.22,0,0,0,.29-.55,2.08,2.08,0,0,0-.09-2h0c-1-1.67-3.8-1.33-4.9-2.94-1.26-1.83.82-4.19,2.87-5.05s4.62-1.53,5.34-3.63c-3.8-.94-5.47-6.45-2.83-9.34.92-1,2.27-1.8,2.51-3.14.56-3.12-5-4.12-5.41-7.25-.51-3.87,7-5.35,6.38-9a1.89,1.89,0,0,0,0-.23,3.57,3.57,0,0,0-.91-1.51,16.39,16.39,0,0,1-1.73-1.91,3.81,3.81,0,0,1-.56-2.73c.4-2.52,3-5,5.51-6.37,1.4-.77,3.09-1.95,2.75-3.52a20.57,20.57,0,0,1,1.14-4.51c.82-2.58,1.78-5.29,1.78-5.29a24,24,0,0,0-.1-11.3,22.46,22.46,0,0,0-1.44-4.13c-1.14-2.48-2.73-4.85-3-7.57-.33-3.51,1.69-6.8,4.42-9.13A16,16,0,0,1,123.94,98a12.66,12.66,0,0,0,3.22-2.58,5.43,5.43,0,0,0,1-2.64,14.3,14.3,0,0,0-.94-5.84,23,23,0,0,1-1.07-4.17q9.45,3.9,18.78,8.14c1.25.56,2.49,1.13,3.73,1.71,1.62.74,3.24,1.5,4.86,2.26,1.94.91,3.87,1.84,5.8,2.77l4,1.94c.26.52.51,1,.76,1.55a6.83,6.83,0,0,1,.89,3.21,3.92,3.92,0,0,1-.22,1.07c-.24.81-.64,1.58-.86,2.4a1.5,1.5,0,0,0-.06.29C162.74,113.26,168.82,117.88,168.31,123.21Z"/></g><g class="cls-5"><path class="cls-6" d="M158.41,93.85l-.06,0,.07,0Z"/></g><g class="cls-5"><path class="cls-6" d="M191.34,110.85q-7.54-4.53-15.23-8.82-3.95-2.22-7.92-4.35c-2.34-1.26-4.68-2.51-7-3.73l-1-.48-.07,0a.15.15,0,0,0,0-.07Q153.57,90.09,147,87l-2.88-1.34a6.45,6.45,0,0,1,.78-1.88l0-.06c1.87-2.93,5.72-4.19,9.17-3.7q.63.09,1.26.24a18.77,18.77,0,0,1,7.9,4.62c1.15,1.06,2.42,2.28,4,2.22a10.3,10.3,0,0,0,2.34-.64c3.68-1.06,7.49,1.56,9.62,4.74a42.64,42.64,0,0,1,3.1,6,30.64,30.64,0,0,0,2.23,4.15c1.85,2.78,4.43,5,6.1,7.91A10.54,10.54,0,0,1,191.34,110.85Z"/></g><g class="cls-5"><path class="cls-6" d="M167.81,98.8l-.09,0-1-.56,1,.55Z"/></g><g class="cls-5"><path class="cls-6" d="M208.35,400.73a11.41,11.41,0,0,1,1.76,8.29c-2,.88-4.12-1.16-4.93-3.2s-1.19-4.44-2.92-5.77c-1.06-.82-2.46-1.08-3.56-1.84-3.31-2.27-2.5-7.67-5.23-10.62-1.53-1.64-4-2.33-5.12-4.27s-.44-4.3-.55-6.5a9.37,9.37,0,0,0-7.26-8.43,8.12,8.12,0,0,0-1.86-9.12c-2.14-2-5.75-3.57-5.16-6.43.23-1.16,1.19-2.06,1.53-3.19.82-2.71-1.91-5-3.35-7.45a9.05,9.05,0,0,1,2.74-11.73,4.21,4.21,0,0,1-2.65-7.86,3.55,3.55,0,0,1,.44-.21c-.62-1.87-2.16-3.16-3.79-4.35-.65-.48-1.33-.95-2-1.43-2.21-1.67-4.24-4.48-3.11-7a26.68,26.68,0,0,0,1.31-2.33c1.48-4.45-8-7.67-5.65-11.72.7-1.2,2.36-1.92,2.37-3.3s-1.81-2.17-2.54-3.44c-1.09-1.9.56-4.13,1.94-5.83s2.46-4.5.71-5.81c-.89-.67-2.22-.62-3-1.45-2-2.18,3-5.29,1.87-8-.95-2.28-5.2-1.58-5.91-3.95-.53-1.77,1.58-3.35,1.52-5.2-.11-3.48-7.13-4-6.38-7.4.24-1.09,1.31-1.82,1.69-2.87,1.11-3-3.9-5.45-3.51-8.67s6-4.72,5.06-7.86c-.71-2.35-4.9-3.17-4.27-5.54.24-.89,1.12-1.43,1.61-2.2,2-3.17-3.54-7.33-1.62-10.52.61-1,1.87-1.58,2.34-2.68l-.09-1.48-.05-.85-.1-1.71-.06-.91a2.29,2.29,0,0,1-.1-.23c-.16-.35-.31-.71-.45-1.07a49.34,49.34,0,0,1-1.53-4.93c-.61-2.23-1.22-4.45-1.82-6.68-.18-.64-.36-1.28-.53-1.92a7.88,7.88,0,0,1-.36-4c.22-.82.71-1.56.9-2.39.64-2.92-2.57-5.26-3.14-8.19-.44-2.28.76-4.5,1.34-6.74a12.78,12.78,0,0,0,.37-2.11c.39-3.71-.56-7.53-1.13-11.28-.67-4.45-.62-9.51,2.44-12.82,1-1.1,2.33-2,3-3.3,1.76-3.56-2-7.28-2.93-11.15-1.48-6.44,5.31-12.69,3.69-19.09-.59-2.34-2.29-4.42-2.23-6.84,0-1.79.28-4.82.09-7.16-.13-1.59-.46-2.86-1.19-3.19a5,5,0,0,1-2.14-1.89c1.25.56,2.49,1.13,3.73,1.71,1.62.74,3.24,1.5,4.86,2.26,1.94.91,3.87,1.84,5.8,2.77l4,1.94,3.29,1.61q3,1.47,6,3,9.8,5,19.41,10.3a6,6,0,0,1-1.54,4.08c-.74.79-1.79,1.48-1.9,2.56a3.43,3.43,0,0,0,.43,1.72l3.06,6.76q1,2.16,2,4.32c2.46,5.45,4.84,12.16,1.39,17.06-2.22,3.14-6.14,4.4-9.44,6.43a15.17,15.17,0,0,0-1.63,1.12,3.23,3.23,0,0,0-1.38,1.92,4.24,4.24,0,0,0,.6,2.24,11.73,11.73,0,0,1,.8,2.52,13.31,13.31,0,0,1-1.26,9c-.25.46-.52.9-.81,1.34a21.94,21.94,0,0,0-2,3.47,9.93,9.93,0,0,0,0,7.12,15.2,15.2,0,0,0,3.82,5.88,10.78,10.78,0,0,1,2.45,2.78c1.3,2.57-.24,5.49-1.5,8.18h0l-.37.82c-.11.24-.21.48-.3.73s-.3.78-.43,1.18-.2.64-.28,1a17.76,17.76,0,0,0-.43,2.05A20.41,20.41,0,0,0,185,221c1.9,3.84,5.13,7.71,4,11.85-.54,2-.15,4.48-1.64,5.94l-.11,4.57a9.27,9.27,0,0,1-.52,1.32,22,22,0,0,1-3.72,5.12c2.9-.63,4.65,3.42,4,6.32a25.52,25.52,0,0,1-1,3c-.7,1.84-1.37,3.68-1,5.59a30.7,30.7,0,0,0,1.07,3.33,8.64,8.64,0,0,1-3.71,9.45,6.82,6.82,0,0,1,5,8.9c-.67,1.62-2,3.11-1.79,4.85s2.08,3,3.51,4.18a12.32,12.32,0,0,1,3,14.38,2.72,2.72,0,0,0-.46,2.07c.24.65,1,1,1.46,1.44,3.19,3-3.65,9.41-.26,12.21.84.69,2,.78,3,1.32a4.31,4.31,0,0,1,2,3.46,8.57,8.57,0,0,1-.19,2.86c-.55,2.29-1.67,4.5-1.52,6.85s2.39,4.79,4.59,3.95c-1.53,3.31-2.95,7.55-.56,10.31a9.45,9.45,0,0,1,1.47,1.7c1.25,2.45-2.17,5.14-1.61,7.83,3.26.32,4.86,4.16,5.17,7.43s.21,6.94,2.5,9.28a6.63,6.63,0,0,1,1.45,1.64c1.16,2.52-3,4.54-3.17,7.32,1.83,1.49,3.75,3.09,4.57,5.3S210.57,399.93,208.35,400.73Z"/></g><g class="cls-5"><path class="cls-6" d="M147,87l-2.88-1.34q-8.49-3.9-17.18-7.35l-.56-.23-4.4-1.72-2.54-.95a3,3,0,0,1,.68-1.3A7.5,7.5,0,0,1,123,72.21c5.72-2,14,2.62,19.59,8.67a33.42,33.42,0,0,1,2.32,2.83A25.7,25.7,0,0,1,147,87Z"/></g><g class="cls-5"><path class="cls-6" d="M311.55,317.49c-1.18,2.18-4.49,1.75-6.6.44s-4.08-3.25-6.56-3.22H298c-1.11.09-2.24.47-3.27.07-1.92-.74-2.11-3.53-3.77-4.75-2.44-1.79-6.4.79-8.76-1.1-1.06-.85-1.36-2.29-1.91-3.52a8.49,8.49,0,0,0-6.83-4.88c-1.37-3.69,2.07-8.92-1.1-11.27-2.11-1.56-5,0-7.15,1.59a7.31,7.31,0,0,0-.6-4.33c-.77-1.27-2.73-1.91-3.76-.84-.47.48-.64,1.18-1.11,1.65-1.73,1.76-4.36-1.36-4.2-3.82s1-5.48-.91-7c-3.24-2.56-9.4,3.08-11.54-.45-1.14-1.89.39-5-1.46-6.22-2.15-1.4-5.09,2.41-7.26,1-1.48-.95-.95-3.37-2.06-4.74-2.18-2.68-6.34,1.55-9.73.88-1-.21-1.94-.89-3-1.15a5.47,5.47,0,0,0-3.26.32c-.65.24-1.29.54-1.91.83-1.63.76-3.49,1.5-5.19.88s-2.54-3.28-1-4.21a6.08,6.08,0,0,1-7.25-5.52c-2.9.08-5.11-3.64-3.66-6.16a9.57,9.57,0,0,1-9.63-5.16c-.34-.71-.6-1.48-.95-2.19a5.22,5.22,0,0,0-.83-1.3c-2.35-2.64-7.5-1.72-9.13-4.86-.65-1.28-.45-2.83-.9-4.2a5.78,5.78,0,0,0-2.73-3.13c-2.28-1.37-5.37-2.1-7.48-3.84a7.9,7.9,0,0,1-1-10.63c-3.07-.91-6.73-2.53-6.89-5.72a7.79,7.79,0,0,1,.07-1.27,4.4,4.4,0,0,0-.12-2.34l0-.09a3.42,3.42,0,0,0-2.68-1.58h0a12.08,12.08,0,0,1-3.8-1,3.08,3.08,0,0,1-.72-.63c-1.81-2.21.9-5.69-.24-8.31-.59-1.35-2-2.12-3.52-2.76-2.54-1.07-5.37-1.77-5.05-4.21.15-1.17,1.14-2.08,1.4-3.22.8-3.5-4.52-4.47-7.13-7.1a4.7,4.7,0,0,1-1-1.36c-1-2.1,0-4.63-.44-6.91-.54-2.62-2.88-4.38-4.6-6.42s-2.79-5.36-.83-7.18c-2.19.4-4.14-1.81-4.33-4s.84-4.32,1.84-6.3a5.92,5.92,0,0,1-5.07-7.48c-.2-.74-.44-1.5-.69-2.29-1.31-4.1-2.93-8.65-.59-11.89a15.88,15.88,0,0,0,2.27-4.7c1.79-5.87,1.17-13.48,0-20.83s-2.85-14.26-3.3-19.1c1,.37,1.89.74,2.83,1.13s1.75.69,2.62,1l1.46.61q9.45,3.9,18.78,8.14c1.25.56,2.49,1.13,3.73,1.71.2.92.44,2,.71,3.14a107.88,107.88,0,0,0,4.38,14.83c1.75,4.08,3.41,9.16.65,12.65a9.33,9.33,0,0,1,4.55,5A7.72,7.72,0,0,0,156,133.4c.82,1.73,1.65,3.46,2.46,5.19.72,1.5,1.43,3,2.14,4.51a13.22,13.22,0,0,1,1.09,2.84c.8,3.66-1.54,7.2-3.76,10.23,5,2.21,10.85,5.82,10.28,11.25-.41,3.87-4.16,7.77-2.11,11.08.83,1.35,2.46,2.09,3.2,3.49s.35,3.43.37,5.18c.06,5.07,4.24,9,7.95,12.42a2.39,2.39,0,0,1,.23.22c1.32,1.22,2.61,2.46,3.89,3.74.39.37.78.76,1.17,1.16s.7.7,1,1.06.56.56.82.84c.58.59,1.15,1.19,1.69,1.79s1,1,1.42,1.52a10.74,10.74,0,0,1,2.41,3.51c1,2.79-.15,6.45,2,8.44a15,15,0,0,0,2.84,1.57,6.49,6.49,0,0,1,2,8.9,10.94,10.94,0,0,1,10.23,6.29c.83,1.84,1.13,3.92,2.25,5.6l.31.44h0c1.71,2.19,4.54,3.23,7.16,4.25,23.36,9.16,35.82,18.77,57.25,31.83,3.27,2,7.19,4.69,11.27,7.78,9.48,7.18,19.83,16.46,24.79,23.84C311.51,313.9,312.43,315.88,311.55,317.49Z"/></g><path class="cls-7" d="M158.41,93.85l-.06,0,.07,0Z"/><path class="cls-7" d="M18.86,71.67l.45-.58.59-.69C25.79,63.82,35,61.11,46,60.94a53.74,53.74,0,0,0-13,2,32.32,32.32,0,0,0-8.75,3.92A22.76,22.76,0,0,0,18.86,71.67Z"/><path class="cls-7" d="M251.44,162.52a1.93,1.93,0,0,1,0,.24,9.32,9.32,0,0,1-.22,1.47q-.06.28-.15.57a.5.5,0,0,1,0,.13,5.43,5.43,0,0,1-.17.53c0,.09-.06.18-.1.27a3.37,3.37,0,0,1-.2.49.85.85,0,0,1-.09.22,6.11,6.11,0,0,1-.27.58,1.42,1.42,0,0,1-.08.18l-.26.5c-.26.48-.56,1-.88,1.45-.43.65-.91,1.31-1.45,2-.26.33-.53.65-.81,1s-.57.66-.87,1c-.81.88-1.7,1.76-2.65,2.63l-.72.66c-1.06.95-2.2,1.9-3.38,2.84-.45.35-.91.71-1.38,1.06-2.48,1.88-5.17,3.71-7.94,5.46l-1.11.69c-1.94,1.2-3.92,2.35-5.89,3.45l-2,1.07-2.3,1.21c-1.06.55-2.12,1.08-3.16,1.6A128.11,128.11,0,0,1,203,199.08c-.49.18-1,.34-1.42.49s-.9.3-1.33.43l-.63.19-.6.17-.57.15c-.37.1-.72.18-1,.25-.92.19-1.83.38-2.74.55l-2.45.48-1.8.34-2.09.37-2,.34c-.41.08-.82.14-1.23.2h0c-.21,0-.42.08-.63.1l-1.69.27-1,.14c-1.57.23-3.11.44-4.64.63-1.91.24-3.78.44-5.63.62l-2.68.24-2,.16-1.28.09h0l-.86.06c-1.31.08-2.59.15-3.87.2l-1.42,0c-1.44.05-2.87.08-4.28.09h0c-1.51,0-3,0-4.48,0h-.72l-.71,0-1.86-.06-1.15-.05c-.83,0-1.65-.08-2.47-.13h0c-.9-.05-1.8-.12-2.68-.19l-.91-.07q-1.26-.1-2.49-.24c-.92-.09-1.84-.19-2.75-.3q-3.45-.4-6.76-1c-1.1-.19-2.19-.38-3.28-.59s-2.12-.42-3.17-.64h0l-.19,0c-.7-.15-1.39-.3-2.08-.47s-1.3-.3-1.94-.46l-.43-.11c-.71-.17-1.42-.35-2.12-.54l-.8-.21-1.46-.41-1.32-.37-.31-.09c-.66-.2-1.32-.39-2-.6-.82-.25-1.64-.51-2.45-.78-1.22-.39-2.43-.81-3.62-1.24l-1.82-.65c-.74-.26-1.48-.54-2.21-.82L97.27,195c-1-.39-2-.8-3-1.21L92.34,193l-.1,0-1.73-.75-1.79-.79q-1-.42-1.92-.87c-1-.45-2-.91-3-1.38q-2.09-1-4.14-2t-4.11-2.08q-2.05-1-4.09-2.13c-.91-.48-1.83-1-2.74-1.46l-.21-.11-1.13-.6-1.13-.63-1.13-.66c-.78-.47-1.57-1-2.36-1.49l-1.1-.74c-2-1.38-4-2.93-6.08-4.63l-1-.81c-.4-.33-.79-.67-1.18-1l-1.18-1.05c-.45-.41-.9-.82-1.35-1.25-.64-.6-1.29-1.22-1.93-1.86s-1.48-1.46-2.21-2.23c-.35-.35-.69-.71-1-1.07-.56-.59-1.11-1.18-1.66-1.79-.13-.13-.25-.27-.38-.42-.34-.38-.68-.75-1-1.13-1-1.14-2-2.32-3-3.52-.23-.27-.46-.55-.68-.83-.44-.53-.86-1.06-1.28-1.6l-1-1.24c-.65-.83-1.28-1.67-1.9-2.52h0c-.79-1.07-1.57-2.16-2.33-3.26l-1.14-1.67-1.11-1.68q-1.11-1.69-2.16-3.42h0c-.63-1-1.25-2.07-1.85-3.12q-1.66-2.9-3.18-5.87c-.27-.53-.53-1.07-.79-1.6-.59-1.2-1.16-2.4-1.7-3.62q-.4-.89-.78-1.77c-.8-1.87-1.55-3.75-2.23-5.64-.2-.54-.39-1.08-.58-1.63-.48-1.41-.93-2.83-1.34-4.25-.32-1.07-.61-2.15-.87-3.22-.31-1.23-.58-2.45-.82-3.67-.13-.61-.24-1.22-.34-1.82s-.18-1.08-.26-1.62c-.11-.72-.2-1.44-.28-2.15-.07-.52-.13-1-.17-1.56,0-.07,0-.13,0-.19,0-.39-.07-.79-.09-1.18q-.09-1.17-.12-2.31,0-.89,0-1.77v-.38c0-.62,0-1.23,0-1.83l.06-1c0-.23,0-.46.05-.68s0-.38,0-.57c0-.34.06-.67.1-1,.1-1,.24-2,.41-3,.11-.65.24-1.29.38-1.91a40.34,40.34,0,0,1,4.06-8.95,22.28,22.28,0,0,1,6.65-6.57,29.77,29.77,0,0,1,8.62-3.73,59.27,59.27,0,0,1,18.78-1.43,131.55,131.55,0,0,1,18.76,2.54C76.87,66,83,67.54,89,69.34c4.16,1.24,8.27,2.6,12.37,4q2.81,1,5.6,2c4.09,1.5,8.17,3,12.22,4.65,1,.37,1.89.74,2.83,1.13s1.75.69,2.62,1l1.46.61q9.45,3.9,18.78,8.14c1.25.56,2.49,1.13,3.73,1.71,1.62.74,3.24,1.5,4.86,2.26,1.94.91,3.87,1.84,5.8,2.77l4,1.94,3.29,1.61q3,1.47,6,3,9.8,5,19.41,10.3l1.05.58,2.13,1.2q7.22,4.06,14.32,8.35,3.21,2,6.39,4l.08.05,1.81,1.28c3.59,2.55,7,5.07,10.17,7.51l1,.73,1.85,1.45.9.72c2.41,1.92,4.65,3.79,6.69,5.58l1.29,1.15c1,.91,2,1.81,2.89,2.68l.63.62.61.6c.4.4.79.8,1.16,1.19l.75.79c.29.32.57.62.84.93l.48.55.88,1,.43.56q.21.26.39.51a17.8,17.8,0,0,1,2.2,3.69c.06.14.11.28.16.41s.07.21.1.31a5.06,5.06,0,0,1,.24,1.14C251.43,162.26,251.44,162.39,251.44,162.52Z"/><g class="cls-5"><path class="cls-6" d="M153.51,94.88l-4.15.88-1.11.23-7.66,1.62c-2.24.47-4.58.94-6.57.39-2.19-.62-3.64-2.39-5-4.1-.3-.37-.59-.74-.88-1.12-2.42-3.07-4.72-6.29-5.78-10.24a13.45,13.45,0,0,1-.31-1.43c.88.34,1.75.69,2.62,1l1.46.61q9.45,3.9,18.78,8.14c1.25.56,2.49,1.13,3.73,1.71C150.27,93.36,151.89,94.12,153.51,94.88Z"/></g><g class="cls-5"><path class="cls-6" d="M158.35,93.81l.07,0h0Z"/></g><g class="cls-5"><path class="cls-6" d="M167.81,98.8l-.09,0h0Z"/></g><g class="cls-5"><path class="cls-6" d="M172.62,104.2a47.42,47.42,0,0,1-8.77,3.91l-.31.1,1.23-2.79,1.86-4.22Q169.63,102.67,172.62,104.2Z"/></g><g class="cls-5"><path class="cls-6" d="M191.08,70.93c-2.69,1.67-6.24,3.07-7.07,6-1.36,4.74,6.42,6,5.72,10.72a9,9,0,0,1-2.25,4.09,54.09,54.09,0,0,1-5.22,5.48,54.64,54.64,0,0,1-6.15,4.83q-3.95-2.22-7.92-4.35l.61-1.38c.58-1.31,1.14-2.92.34-3.78s-1.94-.52-3-.29l-5.89,1.24-.07,0a.15.15,0,0,0,0-.07Q153.57,90.09,147,87l-2.88-1.34q-8.49-3.9-17.18-7.35l-.56-.23-4.4-1.72a16.57,16.57,0,0,1,1-4.14,15,15,0,0,1,2.3-4c1.71-2.13,4.12-4,4.78-6.48.52-1.93-.2-3.67-.92-5.25L117.93,31.59c-1.92-4.26-3.86-8.68-3.66-13.78s3.14-11.11,8.12-13.67c2.88-1.47,6-1.6,8.89-1.69L147.33,2l3.57-.11s5.62,1.59,7.39,2.31l1.62.68,1.36.58a68.34,68.34,0,0,1,13.39,7.52h0c2.59,1.88,5.2,4,8.24,6.71a27.38,27.38,0,0,1,3.4,3.41A11.8,11.8,0,0,1,188,25.77c2.65,6.24-.9,14.59-4.37,21.89,6.45-2.41,13.3.15,15.17,5.81S197.14,67.19,191.08,70.93Z"/></g><ellipse class="cls-8" cx="174.16" cy="22.26" rx="9" ry="13" transform="translate(81.17 171.19) rotate(-65.3)"/><path class="cls-6" d="M161.25,5.2a12.42,12.42,0,0,1,2.11,2.51,3.83,3.83,0,0,1,.54,1.77,6.73,6.73,0,0,1-.08,1.79,9.67,9.67,0,0,1-4,5.77,15.89,15.89,0,0,1-6.38,2.67,19.87,19.87,0,0,1-6.88,0,16.51,16.51,0,0,1-6.47-2.67,12.13,12.13,0,0,1-2.6-2.56A8.36,8.36,0,0,1,136,11.05a7.62,7.62,0,0,1-.11-1.9,7.72,7.72,0,0,1,.31-1.79,7.6,7.6,0,0,1,1.71-3.17,6.87,6.87,0,0,1,6.27-2v.2a6.65,6.65,0,0,0-5.46,2.45,6.76,6.76,0,0,0-1.23,2.81,7.22,7.22,0,0,0,0,3.07,8.44,8.44,0,0,0,3.66,4.84,15.14,15.14,0,0,0,5.77,2.24A17.17,17.17,0,0,0,159,15.71,8.82,8.82,0,0,0,162.8,11a4.33,4.33,0,0,0-.06-3,16.05,16.05,0,0,0-1.66-2.65Z"/></g><path class="cls-1" d="M209.77,35.32c19.4,14.25,36.67,41.67,33.89,65.44-.4,3.43-9.53-4.9-11.72-7.57s-3.48-6-4.78-9.15C219.87,66.23,207.43,33.61,209.77,35.32Z"/><path class="cls-1" d="M138.39,7.65c-8.73,12.11-12.73,27.11-30,41.43-5.74,4.76-4-15.22-.43-21.77,2.59-4.76,7.58-7.63,12.32-10.26C125.85,14,141.36,3.51,138.39,7.65Z"/><path class="cls-1" d="M197.65,67c.33,4.08-.22,9.06-3.9,10.83a1.7,1.7,0,0,1-1.33.17c-.73-.29-.83-1.27-.88-2.06-.48-7.52-6.67-13.16-11.29-19.11-8.12-10.48-21.14-45.69-10.88-37.29C180.66,28.76,196.12,48.18,197.65,67Z"/><path class="cls-1" d="M143.05,85.3c.65-1.4,2.31-2,3.81-2.32a44.9,44.9,0,0,1,29.54,3.36c2.21,1.08,4.56,2.65,5,5.08S180.15,96,178.09,97a13.91,13.91,0,0,1-6.8,1.14C159.36,97.9,142.4,86.7,143.05,85.3Z"/><path class="cls-1" d="M70.66,183.76c7.83.57,23.76-3,31,0,1.89.78,3,8,2.51,11.32-.31,2,2.51,4,.75,5a4.09,4.09,0,0,1-2.06.39C98.73,200.58,69,193.25,70.66,183.76Z"/><path class="cls-1" d="M27.66,142.76c6.19-4.82,16.52,1.56,19,9,2,6,4,15.51,2,16C40.66,169.76,20.06,148.68,27.66,142.76Z"/><path class="cls-1" d="M240.92,177.82c3.89,2.64-1,9.54-5,12s-3.67,3-8.28,3.92c-5,1-2.08-7.33,0-10S236.61,174.87,240.92,177.82Z"/><path class="cls-1" d="M274.66,298.76c-.76,3.82,4.46-2.67,8.34-2.95a16,16,0,0,1,3.07-.26c4.51.54,4.1,7.57,8.59,8.21,7,1,0,7.45,2,7s7-2.19,6-4-4.87-7.08-6.91-6.87a4.3,4.3,0,0,1-2.08,0c-1.06-.44-1.33-1.76-1.78-2.81a6.26,6.26,0,0,0-7.7-3.26c-.72.28-1.58.68-2.21.23s-.49-1.42-.51-2.2c-.06-1.85-4-6.74-5.81-7.06S275.66,293.76,274.66,298.76Z"/><path class="cls-1" d="M204.17,392.31a8.9,8.9,0,0,1,2.92-.11c0-1.61-2.19-2.4-3.43-3.44-1.72-1.45-3.77-.39-6,0,1.26,1.36,4.22,4.49,6,4C203.83,392.72,204,392.38,204.17,392.31Z"/><path class="cls-1" d="M192.17,381.3c2.06.36,3.49,1.46,6.05,1.16,1.88-.72-.22-3.71-2.21-3.46s-5-.67-5.82,1.18C190,380.71,191.61,381.2,192.17,381.3Z"/><path class="cls-1" d="M202.82,375.41c1,1,.91,2.75.64,4.14a3,3,0,0,1-2.91,2.51c-1.47-.05-4.2-1.58-.89-5.3C200.23,376.12,202.13,374.66,202.82,375.41Z"/><path class="cls-1" d="M183.66,363.76c4-8-4.35-8.8-7.3-13.12a7.52,7.52,0,0,1,11.56,9.2L193.1,362C189.77,365.16,180.66,369.76,183.66,363.76Z"/><path class="cls-9" d="M186.4,313.64a8.23,8.23,0,0,1,4.18-.68c1.41.28,2.71,1.6,2.42,3a4.08,4.08,0,0,1-1.19,1.86c-1.57,1.66-3.22,3.38-5.36,4.17s-4.93.35-6.11-1.61l6.89-4"/><path class="cls-1" d="M171.17,310.1c-.79-2.59,5.55-1.5,6.79.9a5,5,0,0,1-2.78,6.6,5.85,5.85,0,0,1-6.85-2.86c1.08-2.56,6.11-.77,6.83-3.45C175.43,310.28,171.47,311.1,171.17,310.1Z"/><path class="cls-1" d="M203.66,394.76c2.93-.16,4.75,9.08,5,12-6.69-10.39-9.09-8.44-6.41-11.47A2.62,2.62,0,0,1,203.66,394.76Z"/><path class="cls-1" d="M193,375.38c-2.5,1.37-5.08-3.28-4.71-6.11C188.25,369.27,195,374.26,193,375.38Z"/><path class="cls-1" d="M181.66,290.76c1.85,2.79,6.6,4.15,4.54,6.79-.75,1-1.92,1.83-3.1,1.51a3.49,3.49,0,0,1-1.61-1.24c-2.47-2.93-4.57-6.59-4.43-10.42C177.66,271.76,179.81,288,181.66,290.76Z"/><path class="cls-1" d="M181.66,327.76c1.54,3.07,3.26,5.33,3.06,8.75-1.85.59-3.78,2.55-5.55,1.76-2.33-1-.08-5.37,2.11-6.69-3.72-1.38-11-1.29-10.67-5.25s9.86-3.95,11.64-.41C182.47,326.36,181.45,327.33,181.66,327.76Z"/><path class="cls-4" d="M254.64,159.51a6.45,6.45,0,0,0-.26-1.37,7,7,0,0,0-.58-1.23,16.45,16.45,0,0,0-1.47-2,46.5,46.5,0,0,0-3.34-3.52c-2.32-2.23-4.76-4.29-7.25-6.29-5-4-10.1-7.77-15.32-11.42S215.94,126.4,210.59,123q-7.29-4.8-14.74-9.36l-1.4-.86-3.11-1.88q-7.54-4.53-15.23-8.82-3.95-2.22-7.92-4.35c-2.34-1.26-4.68-2.51-7-3.73l-1-.48-.07,0a.15.15,0,0,0,0-.07Q153.57,90.09,147,87l-2.88-1.34q-8.49-3.9-17.18-7.35l-.56-.23-4.4-1.72-2.54-.95c-3.66-1.36-7.35-2.66-11.08-3.86q-3.19-1-6.42-2-6-1.78-12-3.26A173.43,173.43,0,0,0,52,60.86c-1.91,0-3.84,0-5.76.07H46a53.74,53.74,0,0,0-13,2,32.32,32.32,0,0,0-8.75,3.92,22.76,22.76,0,0,0-5.35,4.82,2.34,2.34,0,0,0-.24.31,5.46,5.46,0,0,0-.36.48l-.49.72c-.24.35-.46.71-.67,1.07s-.33.57-.48.86-.31.59-.46.89A28,28,0,0,0,15,78.66a33.16,33.16,0,0,0-1.22,4.19,40.34,40.34,0,0,1,4.06-8.95,22.28,22.28,0,0,1,6.65-6.57,29.77,29.77,0,0,1,8.62-3.73,59.27,59.27,0,0,1,18.78-1.43,131.55,131.55,0,0,1,18.76,2.54C76.87,66,83,67.54,89,69.34c4.16,1.24,8.27,2.6,12.37,4q2.81,1,5.6,2c4.09,1.5,8.17,3,12.22,4.65,1,.37,1.89.74,2.83,1.13s1.75.69,2.62,1l1.46.61q9.45,3.9,18.78,8.14c1.25.56,2.49,1.13,3.73,1.71,1.62.74,3.24,1.5,4.86,2.26,1.94.91,3.87,1.84,5.8,2.77l4,1.94,3.29,1.61q3,1.47,6,3,9.8,5,19.41,10.3l1.05.58,2.13,1.2q7.22,4.06,14.32,8.35,3.21,2,6.39,4l.08.05c3.2,2,6.38,4.11,9.5,6.27,5.22,3.6,10.38,7.29,15.28,11.29,2.45,2,4.85,4,7.1,6.24a36.48,36.48,0,0,1,3.17,3.43,14.41,14.41,0,0,1,1.27,1.84,5.12,5.12,0,0,1,.43.93,5.19,5.19,0,0,1,.16,1,11.24,11.24,0,0,1-.76,4.32,28.66,28.66,0,0,1-1.9,4.2c-.35.64-.71,1.28-1.09,1.91.13.62.25,1.24.37,1.84a74.29,74.29,0,0,0,4.4-7.64h0A12.82,12.82,0,0,0,254.64,159.51Z"/><path class="cls-10" d="M104.16,496.26c-5.48,1.5-12.41,3.94-18,5-14.41,2.74-18.5,1.93-29,1"/><path class="cls-10" d="M125.16,503.26c-3,17,1,34,12,44,5.43,4.94,17,8,27,5"/><path class="cls-10" d="M216.16,467.26c-4.76,4.48-13.14,7.21-18,6-4-1-5.55-3.87-6-7-1-7-.55-18-1-23s-1.91-12-5-16"/><path class="cls-10" d="M167.42,372c7.47,7.56,21.7,23.45,25.74,29.31"/><path class="cls-10" d="M300.16,528.26c4,13,7.37,28.36,7.38,33,0,5.84-1.71,11.53-3.54,17.07-3.13,9.46-5.84,14.91-11.84,25.91"/><path class="cls-10" d="M284.16,317.26c3.75,3,20.28,9.1,24,10,12.4,3,22.25,5.25,35,5"/><path class="cls-10" d="M124.71,287.91c4.92,1.1,11.14,2.74,15.45,5.35,13.5,8.16,23.35,19.53,38,27,6.67,3.39,14.09,6.35,21.52,5.47"/><path class="cls-10" d="M438.18,426.1a212.55,212.55,0,0,1-61.32-8.1c-5-1.42-10.19-3.18-13.73-7-4.34-4.66-5.35-11.43-6.16-17.75"/><g id="filaments"><path class="cls-3" d="M436.93,425.26c-40,0-79,1-81-31s-10.06-35.09-29-51c-6-5.06-11.76-12-17.22-20.27A209.69,209.69,0,0,1,299,304.72c-4.3-8.21-8.41-17.06-12.34-26.18-7.59-17.61-14.5-36.25-20.77-53.28-11.69-31.74-11.53-43.25-15.24-62.49-.05-.29-.1-.57-.16-.86"/><path class="cls-3" d="M215.93,467.26c-37,24-18-23-29-39-5.58-8.12-13.42-19.25-18-29-2.76-5.87-1.47-19.35,1.19-35.78,2.22-13.66,5.39-29.36,8-44.4.11-.67.23-1.35.34-2,3.14-18.49,5.26-35.79,3.49-46.79-1-6.42-1-15.48-.13-26,.35-4.44.83-9.15,1.41-14.05.84-7,1.89-14.32,3.08-21.8.11-.7.22-1.39.34-2.09s.23-1.45.34-2.18c.06-.3.11-.6.15-.91.25-1.45.49-2.91.75-4.37.77-4.54,1.59-9.1,2.43-13.61.66-3.56,1.33-7.1,2-10.59s1.38-7,2.07-10.38c.54-2.65,1.08-5.26,1.61-7.8,2.25-10.73,4.38-20.32,6.09-27.81,1.36-5.94,2.45-10.55,3.13-13.34"/><path class="cls-3" d="M14.93,87.26s-24,71-9,105c26.19,59.36,46.12,37,65,61,37,47,47.69,22.09,81,48,27,21,31,24,48,24"/><path class="cls-3" d="M343.93,332.26A187.4,187.4,0,0,1,310.71,328c-29.67-7-36.88-20.32-48.78-30.73C253.6,290,239.59,285.4,223,277a168.63,168.63,0,0,1-34.93-23,162.81,162.81,0,0,1-14.26-13.87c-.3-.31-.58-.63-.87-1-6.75-7.5-10.13-18.22-19.62-34.87l-.5-.87-1-1.79-.65-1.09-.71-1.19a254.25,254.25,0,0,0-15-22.11c-3.11-4.12-6.57-8.47-10.43-13.08a77.61,77.61,0,0,1-8.22-12c-.33-.57-.65-1.16-1-1.74-.81-1.53-1.57-3.07-2.29-4.64-13.71-29.79-11.35-65.6-10-77.54"/></g><path class="cls-9" d="M105.6,74.67a3.93,3.93,0,0,0,1.81.39,2.13,2.13,0,0,0,1.86-1.62C111,67.71,103,62.12,94.17,61.63a17.32,17.32,0,0,0-5.91.57c-2.31.71-4.12,2.28-4,3.94S99.39,72.17,105.6,74.67Z"/><path class="cls-1" d="M254.66,160.76c2-12,1.46-16.76-2-23-1.39-2.52-6.57-5.64-8.22-3.29-3,4.2-5.34,9.8-4.21,14.81C241.17,153.49,252.69,172.6,254.66,160.76Z"/><path class="cls-1" d="M217.36,129.46a3.56,3.56,0,0,0,2.19.78c1.32-.14,2-1.65,2.28-3,2.15-10.53-7.43-21-18.12-22.16a14.06,14.06,0,0,0-7.19.88c-2.81,1.26-5,4.12-4.87,7.19S209.86,124.7,217.36,129.46Z"/><path class="cls-1" d="M9.66,96.76c0-7.84,11-37,3,8-1.1,6.23,8,16.51,6,17C10.66,123.76,9.66,107.76,9.66,96.76Z"/></g></g></svg>