<svg xmlns="http://www.w3.org/2000/svg" xmlns:xlink="http://www.w3.org/1999/xlink" viewBox="0 0 221.36 223.95"><defs><style>.\35 89395f7-46e9-49db-bbf2-dd3d82d0bd39,.\36 bb36144-a084-4c0b-b7a8-bc1904b91a8e{fill:none;}.\36 71bf907-b820-4655-9f4b-60a86610b0e4{fill:#002429;}.\37 bbbbfad-fcb6-402b-bf05-77979729cb7b{clip-path:url(#2ec6cdcf-1cec-400a-a949-d6e029b28d6e);}.\34 5bf4a46-1c70-4f70-bdef-e26937add39a{fill:#ff5714;}.dbafb519-623e-48c7-a5e7-985e21aaef77{fill:#ffb800;}.\30 91d17bf-0b0a-4809-8b9c-793c1e16bd5e{fill:#04e762;}.\36 4ba50e8-1bbf-4b83-8416-ff0b35255618{fill:#1be7ff;}.b96f82a3-9181-4997-ad47-98ca03a6aae5{fill:#dc0073;}.b13f57d5-ac8d-45fc-adf6-cad6df1db3a7{fill:#fff;}.\36 bb36144-a084-4c0b-b7a8-bc1904b91a8e{stroke:#fff;stroke-miterlimit:10;stroke-width:4px;}.\32 73fff3d-769b-4da5-8b3c-6ed2cf5fc202{fill:url(#d21c6eb2-f002-4ec4-a585-3f55bbed1f2a);}</style><clipPath id="2ec6cdcf-1cec-400a-a949-d6e029b28d6e"><circle class="589395f7-46e9-49db-bbf2-dd3d82d0bd39" cx="110.68" cy="113.27" r="110.68"/></clipPath><linearGradient id="d21c6eb2-f002-4ec4-a585-3f55bbed1f2a" x1="67.97" y1="92.53" x2="149.25" y2="92.53" gradientUnits="userSpaceOnUse"><stop offset="0" stop-color="#fff"/><stop offset="1" stop-color="#fff" stop-opacity="0"/></linearGradient></defs><title>prisme-09-09-09</title><g id="738dc47d-455e-4fe5-8d46-64eae35c025f" data-name="Layer 3"><circle class="671bf907-b820-4655-9f4b-60a86610b0e4" cx="110.68" cy="113.27" r="110.68"/><g class="7bbbbfad-fcb6-402b-bf05-77979729cb7b"><polygon class="45bf4a46-1c70-4f70-bdef-e26937add39a" points="581.74 110.64 581.74 127.3 281.69 97.36 134.16 82.64 130.48 76.27 581.74 110.64"/><polygon class="dbafb519-623e-48c7-a5e7-985e21aaef77" points="581.84 126.93 581.47 143.18 581.46 143.59 217.32 98.84 137.99 89.09 134.21 82.54 281.69 97.16 581.74 126.92 581.84 126.93"/><polygon class="091d17bf-0b0a-4809-8b9c-793c1e16bd5e" points="581.99 142.94 581.29 158.55 581.24 159.59 167.56 99.35 141.94 95.62 138.05 88.89 217.32 98.54 581.47 142.88 581.99 142.94"/><polygon class="64ba50e8-1bbf-4b83-8416-ff0b35255618" points="583.22 158.53 582.12 175.16 423.35 148.63 145.96 102.28 145.14 100.86 141.98 95.39 167.56 99.05 581.29 158.25 583.22 158.53"/><polygon class="b96f82a3-9181-4997-ad47-98ca03a6aae5" points="582.39 176.74 580.82 193.33 149.25 108.78 145.96 103.08 145.14 101.66 423.35 149.43 582.39 176.74"/><polygon class="b13f57d5-ac8d-45fc-adf6-cad6df1db3a7" points="82.04 91.59 78.15 98.32 -73.08 153.32 -74.78 148.62 82.04 91.59"/><polygon class="6bb36144-a084-4c0b-b7a8-bc1904b91a8e" points="176.57 156.1 44.79 156.1 78.15 98.32 110.68 41.98 176.57 156.1"/><polygon class="273fff3d-769b-4da5-8b3c-6ed2cf5fc202" points="67.97 96.71 149.25 108.78 130.48 76.27 67.97 96.71"/></g></g></svg>